<svg width="220" height="220" viewBox="0 0 220 220" fill="none" xmlns="http://www.w3.org/2000/svg">
<circle cx="125" cy="5" r="5" fill="#C4C4C4" fill-opacity="0.53"/>
<circle cx="215" cy="5" r="5" fill="#C4C4C4" fill-opacity="0.53"/>
<circle cx="185" cy="5" r="5" fill="#C4C4C4" fill-opacity="0.53"/>
<circle cx="155" cy="5" r="5" fill="#C4C4C4" fill-opacity="0.53"/>
<circle cx="95" cy="5" r="5" fill="#C4C4C4" fill-opacity="0.53"/>
<circle cx="65" cy="5" r="5" fill="#C4C4C4" fill-opacity="0.53"/>
<circle cx="35" cy="5" r="5" fill="#C4C4C4" fill-opacity="0.53"/>
<circle cx="5" cy="5" r="5" fill="#C4C4C4" fill-opacity="0.53"/>
<circle cx="125" cy="35" r="5" fill="#C4C4C4" fill-opacity="0.53"/>
<circle cx="215" cy="35" r="5" fill="#C4C4C4" fill-opacity="0.53"/>
<circle cx="185" cy="35" r="5" fill="#C4C4C4" fill-opacity="0.53"/>
<circle cx="155" cy="35" r="5" fill="#C4C4C4" fill-opacity="0.53"/>
<circle cx="95" cy="35" r="5" fill="#C4C4C4" fill-opacity="0.53"/>
<circle cx="65" cy="35" r="5" fill="#C4C4C4" fill-opacity="0.53"/>
<circle cx="35" cy="35" r="5" fill="#C4C4C4" fill-opacity="0.53"/>
<circle cx="5" cy="35" r="5" fill="#C4C4C4" fill-opacity="0.53"/>
<circle cx="125" cy="65" r="5" fill="#C4C4C4" fill-opacity="0.53"/>
<circle cx="215" cy="65" r="5" fill="#C4C4C4" fill-opacity="0.53"/>
<circle cx="185" cy="65" r="5" fill="#C4C4C4" fill-opacity="0.53"/>
<circle cx="155" cy="65" r="5" fill="#C4C4C4" fill-opacity="0.53"/>
<circle cx="95" cy="65" r="5" fill="#C4C4C4" fill-opacity="0.53"/>
<circle cx="65" cy="65" r="5" fill="#C4C4C4" fill-opacity="0.53"/>
<circle cx="35" cy="65" r="5" fill="#C4C4C4" fill-opacity="0.53"/>
<circle cx="5" cy="65" r="5" fill="#C4C4C4" fill-opacity="0.53"/>
<circle cx="125" cy="95" r="5" fill="#C4C4C4" fill-opacity="0.53"/>
<circle cx="215" cy="95" r="5" fill="#C4C4C4" fill-opacity="0.53"/>
<circle cx="185" cy="95" r="5" fill="#C4C4C4" fill-opacity="0.53"/>
<circle cx="155" cy="95" r="5" fill="#C4C4C4" fill-opacity="0.53"/>
<circle cx="95" cy="95" r="5" fill="#C4C4C4" fill-opacity="0.53"/>
<circle cx="65" cy="95" r="5" fill="#C4C4C4" fill-opacity="0.53"/>
<circle cx="35" cy="95" r="5" fill="#C4C4C4" fill-opacity="0.53"/>
<circle cx="5" cy="95" r="5" fill="#C4C4C4" fill-opacity="0.53"/>
<circle cx="125" cy="125" r="5" fill="#C4C4C4" fill-opacity="0.53"/>
<circle cx="215" cy="125" r="5" fill="#C4C4C4" fill-opacity="0.53"/>
<circle cx="185" cy="125" r="5" fill="#C4C4C4" fill-opacity="0.53"/>
<circle cx="155" cy="125" r="5" fill="#C4C4C4" fill-opacity="0.53"/>
<circle cx="95" cy="125" r="5" fill="#C4C4C4" fill-opacity="0.53"/>
<circle cx="65" cy="125" r="5" fill="#C4C4C4" fill-opacity="0.53"/>
<circle cx="35" cy="125" r="5" fill="#C4C4C4" fill-opacity="0.53"/>
<circle cx="5" cy="125" r="5" fill="#C4C4C4" fill-opacity="0.53"/>
<circle cx="125" cy="155" r="5" fill="#C4C4C4" fill-opacity="0.53"/>
<circle cx="215" cy="155" r="5" fill="#C4C4C4" fill-opacity="0.53"/>
<circle cx="185" cy="155" r="5" fill="#C4C4C4" fill-opacity="0.53"/>
<circle cx="155" cy="155" r="5" fill="#C4C4C4" fill-opacity="0.53"/>
<circle cx="95" cy="155" r="5" fill="#C4C4C4" fill-opacity="0.53"/>
<circle cx="65" cy="155" r="5" fill="#C4C4C4" fill-opacity="0.53"/>
<circle cx="35" cy="155" r="5" fill="#C4C4C4" fill-opacity="0.53"/>
<circle cx="5" cy="155" r="5" fill="#C4C4C4" fill-opacity="0.53"/>
<circle cx="125" cy="185" r="5" fill="#C4C4C4" fill-opacity="0.53"/>
<circle cx="215" cy="185" r="5" fill="#C4C4C4" fill-opacity="0.53"/>
<circle cx="185" cy="185" r="5" fill="#C4C4C4" fill-opacity="0.53"/>
<circle cx="155" cy="185" r="5" fill="#C4C4C4" fill-opacity="0.53"/>
<circle cx="95" cy="185" r="5" fill="#C4C4C4" fill-opacity="0.53"/>
<circle cx="65" cy="185" r="5" fill="#C4C4C4" fill-opacity="0.53"/>
<circle cx="35" cy="185" r="5" fill="#C4C4C4" fill-opacity="0.53"/>
<circle cx="5" cy="185" r="5" fill="#C4C4C4" fill-opacity="0.53"/>
<circle cx="125" cy="215" r="5" fill="#C4C4C4" fill-opacity="0.53"/>
<circle cx="215" cy="215" r="5" fill="#C4C4C4" fill-opacity="0.53"/>
<circle cx="185" cy="215" r="5" fill="#C4C4C4" fill-opacity="0.53"/>
<circle cx="155" cy="215" r="5" fill="#C4C4C4" fill-opacity="0.53"/>
<circle cx="95" cy="215" r="5" fill="#C4C4C4" fill-opacity="0.53"/>
<circle cx="65" cy="215" r="5" fill="#C4C4C4" fill-opacity="0.53"/>
<circle cx="35" cy="215" r="5" fill="#C4C4C4" fill-opacity="0.53"/>
<circle cx="5" cy="215" r="5" fill="#C4C4C4" fill-opacity="0.53"/>
</svg>
