<svg width="667" height="667" viewBox="0 0 667 667" fill="none" xmlns="http://www.w3.org/2000/svg">
<path d="M598.98 454.788H76.9882C70.534 454.788 65.3018 449.556 65.3018 443.101C65.3018 436.647 70.534 431.415 76.9882 431.415H308.847L320.856 432L360 433.905V432V433.905L432 437.411V432V437.411L437.888 437.697L440.276 437.813L463.795 438.957L465.861 439.059L504 440.915V432V440.915L568.047 444.032C568.601 440.027 569.043 436.015 569.385 432C569.403 431.805 569.419 431.609 569.435 431.415H598.98C605.435 431.415 610.667 436.647 610.667 443.101C610.667 449.556 605.435 454.788 598.98 454.788" fill="#CFEDD5"/>
<path d="M360 433.905L320.856 432H360V433.905Z" fill="#CFEDD5"/>
<path d="M432 437.411L360 433.905V432H432V437.411Z" fill="#CFEDD5"/>
<path d="M504 440.915L465.861 439.059C466.027 438.859 466.132 438.607 466.152 438.328C466.201 437.619 465.665 437.003 464.955 436.952C464.924 436.951 464.895 436.949 464.864 436.949C464.193 436.949 463.627 437.469 463.579 438.149C463.559 438.447 463.64 438.728 463.795 438.957L440.276 437.813C440.111 437.341 439.677 436.989 439.148 436.952C439.117 436.951 439.087 436.949 439.057 436.949C438.545 436.949 438.095 437.252 437.888 437.697L432 437.411V432H504V440.915V440.915ZM488.149 436.949C487.477 436.949 486.912 437.469 486.864 438.149C486.815 438.86 487.351 439.476 488.061 439.525C488.092 439.528 488.121 439.528 488.152 439.528C488.823 439.528 489.389 439.008 489.437 438.328C489.487 437.619 488.951 437.003 488.24 436.952C488.209 436.951 488.179 436.949 488.149 436.949Z" fill="#CFEDD5"/>
<path d="M440.276 437.813L437.888 437.697C438.095 437.252 438.546 436.949 439.058 436.949C439.087 436.949 439.118 436.951 439.148 436.952C439.678 436.989 440.111 437.341 440.276 437.813" fill="#1F3227"/>
<path d="M465.861 439.059L463.795 438.957C463.64 438.728 463.559 438.447 463.579 438.149C463.627 437.469 464.193 436.949 464.864 436.949C464.895 436.949 464.924 436.951 464.955 436.952C465.665 437.003 466.201 437.619 466.152 438.328C466.132 438.607 466.027 438.859 465.861 439.059Z" fill="#1F3227"/>
<path d="M488.152 439.528C488.121 439.528 488.092 439.528 488.061 439.525C487.351 439.476 486.815 438.86 486.864 438.149C486.912 437.469 487.477 436.949 488.149 436.949C488.179 436.949 488.209 436.951 488.24 436.952C488.951 437.003 489.487 437.619 489.437 438.328C489.389 439.008 488.823 439.528 488.152 439.528Z" fill="#1F3227"/>
<path d="M568.047 444.032L504 440.915V432H569.385C569.043 436.015 568.601 440.027 568.047 444.032ZM560.149 436.949C559.477 436.949 558.912 437.469 558.864 438.149C558.815 438.86 559.351 439.476 560.061 439.525C560.092 439.528 560.121 439.528 560.152 439.528C560.823 439.528 561.389 439.008 561.437 438.328C561.487 437.619 560.951 437.003 560.24 436.952C560.209 436.951 560.179 436.949 560.149 436.949ZM536.864 436.949C536.193 436.949 535.627 437.469 535.579 438.149C535.529 438.86 536.065 439.476 536.776 439.525C536.807 439.528 536.837 439.528 536.867 439.528C537.539 439.528 538.104 439.008 538.152 438.328C538.201 437.619 537.665 437.003 536.955 436.952C536.924 436.951 536.895 436.949 536.864 436.949ZM511.057 436.949C510.385 436.949 509.82 437.469 509.772 438.149C509.723 438.86 510.259 439.476 510.969 439.525C511 439.528 511.029 439.528 511.06 439.528C511.731 439.528 512.297 439.008 512.345 438.328C512.395 437.619 511.859 437.003 511.148 436.952C511.117 436.951 511.087 436.949 511.057 436.949Z" fill="#CFEDD5"/>
<path d="M511.06 439.528C511.03 439.528 511 439.528 510.97 439.525C510.259 439.476 509.723 438.86 509.772 438.149C509.82 437.469 510.386 436.949 511.058 436.949C511.087 436.949 511.118 436.951 511.148 436.952C511.859 437.003 512.395 437.619 512.346 438.328C512.298 439.008 511.731 439.528 511.06 439.528Z" fill="#1F3227"/>
<path d="M536.866 439.528C536.837 439.528 536.806 439.528 536.776 439.525C536.065 439.476 535.529 438.86 535.578 438.149C535.626 437.469 536.193 436.949 536.864 436.949C536.894 436.949 536.924 436.951 536.954 436.952C537.665 437.003 538.201 437.619 538.152 438.328C538.104 439.008 537.538 439.528 536.866 439.528Z" fill="#1F3227"/>
<path d="M560.152 439.528C560.122 439.528 560.092 439.528 560.062 439.525C559.351 439.476 558.815 438.86 558.864 438.149C558.912 437.469 559.478 436.949 560.15 436.949C560.179 436.949 560.21 436.951 560.24 436.952C560.951 437.003 561.487 437.619 561.438 438.328C561.39 439.008 560.823 439.528 560.152 439.528Z" fill="#1F3227"/>
<path d="M360 432H320.856L308.847 431.415H360V432Z" fill="#CFEDD5"/>
<path d="M360 432H432V431.415H360V432Z" fill="#CFEDD5"/>
<path d="M432 432H504V431.415H432V432Z" fill="#CFEDD5"/>
<path d="M569.385 432H504V431.415H569.435C569.419 431.609 569.403 431.805 569.385 432Z" fill="#CFEDD5"/>
<path d="M85.6323 437.297V293.149H165.784V315.103H109.243V353.627H157.913V375.165H109.243V414.929H165.784V437.297H85.6323Z" fill="#EE282C"/>
<path d="M248.211 334.571C248.211 327.808 246.483 322.803 243.032 319.556C239.582 316.313 234.611 314.689 228.122 314.689H207.203V355.904H227.915C234.127 355.904 239.063 354.111 242.723 350.52C246.379 346.929 248.211 341.613 248.211 334.571ZM247.176 437.297L225.636 377.236H207.203V437.297H183.592V293.149H229.986C235.92 293.149 241.444 294.013 246.555 295.739C251.662 297.467 256.046 300.056 259.706 303.504C263.362 306.957 266.23 311.272 268.3 316.449C270.372 321.627 271.407 327.668 271.407 334.571C271.407 343.685 269.472 351.553 265.608 358.183C261.742 364.808 256.011 369.851 248.418 373.301L273.064 437.297H247.176" fill="#EE282C"/>
<path d="M357.565 334.571C357.565 327.808 355.836 322.803 352.387 319.556C348.935 316.313 343.965 314.689 337.475 314.689H316.557V355.904H337.268C343.483 355.904 348.416 354.111 352.077 350.52C355.735 346.929 357.565 341.613 357.565 334.571V334.571ZM356.528 437.297L334.989 377.236H316.557V437.297H292.947V293.149H339.339C345.273 293.149 350.8 294.013 355.907 295.739C361.015 297.467 365.4 300.056 369.059 303.504C372.716 306.957 375.583 311.272 377.653 316.449C379.727 321.627 380.76 327.668 380.76 334.571C380.76 343.685 378.825 351.553 374.961 358.183C371.095 364.808 365.364 369.851 357.771 373.301L382.417 437.297H356.528" fill="#EE282C"/>
<path d="M462.775 336.273C462.775 334.475 462.464 332.364 461.843 329.944C461.221 327.523 460.151 325.203 458.633 322.989C457.112 320.776 455.077 318.876 452.524 317.284C449.968 315.692 446.688 314.896 442.687 314.896C438.68 314.896 435.333 315.624 432.64 317.077C429.948 318.529 427.805 320.329 426.22 322.472C424.632 324.616 423.493 326.935 422.804 329.427C422.111 331.917 421.767 334.268 421.767 336.48L421.975 391.685C421.975 398.604 423.56 404.413 426.739 409.117C429.913 413.823 435.297 416.173 442.893 416.173C448.277 416.173 452.937 414.34 456.873 410.675C460.807 407.008 462.775 401.992 462.775 395.627V336.273ZM486.8 393.597C486.8 400.504 485.729 406.717 483.589 412.237C481.447 417.761 478.413 422.489 474.476 426.423C470.541 430.36 465.881 433.361 460.497 435.433C455.112 437.504 449.173 438.54 442.687 438.54C434.815 438.54 428.049 437.264 422.388 434.708C416.725 432.155 412.139 428.701 408.616 424.353C405.096 420.004 402.507 414.967 400.849 409.235C399.193 403.507 398.363 397.464 398.363 391.112V336.643C398.363 331.536 399.157 326.357 400.747 321.109C402.332 315.864 404.888 311.1 408.409 306.819C411.929 302.54 416.487 299.02 422.079 296.256C427.669 293.496 434.537 292.113 442.687 292.113C450.279 292.113 456.836 293.428 462.361 296.049C467.881 298.673 472.473 302.091 476.135 306.301C479.791 310.515 482.483 315.277 484.211 320.592C485.936 325.909 486.8 331.257 486.8 336.643V393.597" fill="#EE282C"/>
<path d="M573.784 334.571C573.784 327.808 572.056 322.803 568.607 319.556C565.154 316.313 560.183 314.689 553.695 314.689H532.776V355.904H553.487C559.7 355.904 564.636 354.111 568.296 350.52C571.954 346.929 573.784 341.613 573.784 334.571ZM572.748 437.297L551.208 377.236H532.776V437.297H509.167V293.149H555.559C561.492 293.149 567.019 294.013 572.127 295.739C577.234 297.467 581.619 300.056 585.279 303.504C588.935 306.957 591.803 311.272 593.874 316.449C595.944 321.627 596.98 327.668 596.98 334.571C596.98 343.685 595.046 351.553 591.182 358.183C587.314 364.808 581.583 369.851 573.991 373.301L598.638 437.297H572.748" fill="#EE282C"/>
<path d="M245.089 168.693H249.089V139.21H245.089V168.693Z" fill="#232121"/>
<path d="M303.109 147.465H191.071V95.5734H303.109V147.465" fill="#EE282C"/>
<path d="M232.721 129.673V134.348H227.631V129.673H216.016V125.185L224.993 102.139H230.361L221.523 124.861H227.631V116.716H232.721V124.861H235.081V129.673H232.721Z" fill="white"/>
<path d="M250.446 110.007C250.446 108.988 250.152 108.195 249.566 107.623C248.979 107.052 248.208 106.768 247.252 106.768C246.296 106.768 245.524 107.052 244.939 107.623C244.352 108.195 244.059 108.988 244.059 110.007V126.482C244.059 127.531 244.352 128.332 244.939 128.888C245.524 129.443 246.296 129.72 247.252 129.72C248.208 129.72 248.979 129.443 249.566 128.888C250.152 128.332 250.446 127.531 250.446 126.482V110.007ZM255.536 126.527C255.536 127.823 255.312 128.964 254.867 129.951C254.42 130.939 253.812 131.779 253.044 132.474C252.275 133.168 251.39 133.694 250.39 134.047C249.39 134.402 248.338 134.579 247.228 134.579C246.122 134.579 245.068 134.402 244.068 134.047C243.068 133.694 242.191 133.168 241.438 132.474C240.684 131.779 240.084 130.939 239.638 129.951C239.192 128.964 238.97 127.823 238.97 126.527V110.007C238.97 108.711 239.192 107.562 239.638 106.559C240.084 105.558 240.692 104.708 241.46 104.014C242.23 103.32 243.107 102.795 244.091 102.44C245.076 102.087 246.122 101.908 247.228 101.908C248.338 101.908 249.399 102.087 250.414 102.44C251.428 102.795 252.314 103.32 253.067 104.014C253.82 104.708 254.42 105.558 254.867 106.559C255.312 107.562 255.536 108.711 255.536 110.007V126.527Z" fill="white"/>
<path d="M275.758 129.673V134.348H270.667V129.673H259.052V125.185L268.03 102.139H273.398L264.559 124.861H270.667V116.716H275.758V124.861H278.118V129.673H275.758Z" fill="white"/>
<path d="M457.633 283.637C458.816 284.832 459.455 286.853 459.956 288.277C460.947 291.103 461.873 293.948 462.801 296.793C463.736 299.661 464.683 302.669 464.164 305.64C463.959 306.824 463.443 308.056 462.391 308.637C461.705 309.015 460.871 309.059 460.108 308.888C458.1 308.435 456.664 306.624 455.869 304.725C455.076 302.827 454.757 300.76 454.021 298.839C452.728 295.467 450.132 292.015 446.388 291.607C444.468 291.399 441.979 291.201 440.647 289.597C439.28 287.947 439.187 284.312 441.081 283.039C441.701 282.62 442.443 282.415 443.179 282.276C445.56 281.825 447.921 282.065 450.313 282.256C452.387 282.421 454.64 282.02 456.597 282.901C456.984 283.075 457.327 283.328 457.633 283.637" fill="white"/>
<path d="M457.633 283.637L457.159 284.105C458.177 285.115 458.831 287.061 459.327 288.499C460.315 291.313 461.24 294.155 462.167 297C462.92 299.3 463.647 301.636 463.644 303.888C463.644 304.439 463.601 304.984 463.507 305.527C463.415 306.064 463.249 306.603 463.008 307.048C462.767 307.495 462.457 307.839 462.069 308.053C461.748 308.231 461.363 308.317 460.953 308.316C460.721 308.316 460.485 308.289 460.255 308.237C459.407 308.045 458.659 307.564 458.017 306.889C457.377 306.216 456.856 305.355 456.485 304.468C455.728 302.672 455.409 300.612 454.643 298.6C453.969 296.847 452.963 295.069 451.605 293.649C450.251 292.233 448.523 291.168 446.46 290.944C445.492 290.84 444.424 290.739 443.469 290.481C442.512 290.225 441.699 289.823 441.16 289.171C440.647 288.564 440.299 287.456 440.304 286.377C440.3 285.167 440.724 284.065 441.453 283.592C441.952 283.253 442.603 283.061 443.303 282.931C444.255 282.751 445.211 282.685 446.181 282.685C447.515 282.685 448.871 282.809 450.261 282.92C450.788 282.963 451.312 282.969 451.829 282.969C452.117 282.969 452.403 282.967 452.684 282.967C454.015 282.964 455.256 283.025 456.324 283.509C456.624 283.644 456.9 283.844 457.16 284.107L457.633 283.637L458.107 283.167C457.753 282.812 457.345 282.505 456.871 282.293C455.485 281.673 454.04 281.636 452.684 281.633C452.396 281.633 452.111 281.636 451.829 281.636C451.324 281.636 450.835 281.628 450.367 281.591C448.988 281.481 447.596 281.352 446.181 281.352C445.152 281.352 444.109 281.421 443.055 281.62C442.283 281.768 441.452 281.987 440.708 282.485C439.444 283.353 438.975 284.9 438.971 286.377C438.976 287.72 439.352 289.067 440.133 290.023C440.928 290.976 442.025 291.475 443.124 291.769C444.228 292.064 445.363 292.165 446.316 292.269C447.997 292.453 449.439 293.317 450.641 294.572C451.841 295.824 452.779 297.459 453.399 299.077C454.105 300.908 454.423 302.981 455.255 304.983C455.679 305.993 456.272 306.987 457.051 307.808C457.828 308.627 458.801 309.276 459.961 309.537C460.283 309.611 460.616 309.649 460.953 309.649C461.547 309.649 462.159 309.525 462.712 309.22C463.376 308.855 463.851 308.293 464.181 307.683C464.512 307.069 464.708 306.4 464.821 305.755C464.929 305.131 464.977 304.507 464.977 303.888C464.975 301.352 464.185 298.896 463.435 296.587C462.508 293.741 461.579 290.891 460.585 288.057C460.077 286.645 459.455 284.548 458.107 283.168L457.633 283.637" fill="#100F0D"/>
<path d="M253.542 178.785C253.914 177.103 254.271 175.416 254.611 173.724C255.334 170.147 257.29 166.444 254.516 163.292C252.055 160.496 246.946 161.459 244.012 163.155C241.14 164.816 239.156 168.241 239.859 171.484C240.466 174.277 243.107 176.495 245.964 176.607C245.194 179.099 244.486 181.611 243.844 184.139C242.928 187.748 245.142 189.023 248.372 188.335C249.183 188.163 250.023 187.971 250.675 187.459C251.636 186.705 251.987 185.429 252.276 184.243C252.716 182.428 253.138 180.609 253.542 178.785" fill="white"/>
<path d="M253.541 178.785L254.192 178.929C254.565 177.243 254.923 175.551 255.265 173.856C255.681 171.748 256.613 169.487 256.623 167.174C256.631 165.707 256.207 164.195 255.016 162.852C253.724 161.387 251.839 160.856 249.961 160.857C247.704 160.863 245.383 161.596 243.679 162.578C241.013 164.128 239.061 167.043 239.049 170.144C239.049 170.638 239.1 171.132 239.207 171.625C239.897 174.735 242.755 177.134 245.937 177.272L245.964 176.607L245.327 176.41C244.552 178.912 243.843 181.435 243.197 183.975C243.045 184.576 242.969 185.131 242.969 185.644C242.961 186.759 243.353 187.709 244.076 188.317C244.795 188.928 245.752 189.18 246.804 189.18C247.344 189.18 247.916 189.113 248.511 188.988C249.325 188.809 250.271 188.615 251.085 187.984C252.276 187.031 252.625 185.591 252.923 184.4C253.364 182.58 253.787 180.757 254.192 178.929L253.541 178.785L252.891 178.642C252.488 180.46 252.067 182.275 251.628 184.085C251.349 185.269 250.995 186.379 250.263 186.935C249.773 187.325 249.04 187.516 248.233 187.683C247.716 187.794 247.235 187.847 246.804 187.847C245.957 187.847 245.332 187.64 244.941 187.304C244.553 186.966 244.309 186.482 244.303 185.644C244.301 185.264 244.36 184.816 244.489 184.303C245.129 181.785 245.833 179.284 246.6 176.803L246.857 175.974L245.989 175.94C243.459 175.856 241.033 173.82 240.511 171.343C240.424 170.946 240.383 170.546 240.383 170.144C240.371 167.627 242.055 165.048 244.347 163.732C245.837 162.865 248.001 162.187 249.961 162.191C251.611 162.193 253.065 162.651 254.015 163.733C254.979 164.837 255.283 165.94 255.289 167.174C255.3 169.115 254.424 171.323 253.957 173.593C253.617 175.28 253.261 176.963 252.891 178.642L253.541 178.785" fill="#100F0D"/>
<path d="M446.3 279.295C445.815 279.188 445.331 279.08 444.849 278.991C429.591 276.173 412.997 271.496 397.415 272.928C394.06 273.237 390.739 273.875 387.376 274.087C376.028 274.803 365.141 270.78 354.216 268.393C349.765 267.421 345.323 266.907 340.883 265.985C335.46 264.86 329.855 266.005 324.389 265.292C319.611 264.669 314.935 262.6 310.153 263.2C303.963 263.977 298.503 267.809 296.883 273.941C296.071 277.012 296.459 280.275 297.177 283.368C297.851 286.264 299.007 289.347 301.588 290.821C306.991 293.907 317.188 291.913 323.179 292.015C331.284 292.152 339.388 292.423 347.489 292.693C363.457 293.228 379.437 293.779 395.415 293.375C411.861 292.959 428.311 293.352 444.755 293.929C445.301 289.055 445.824 284.177 446.3 279.295Z" fill="#100F0D"/>
<path d="M176.172 311.336C173.775 313.9 172.553 317.316 171.667 320.656C171.145 322.625 170.926 324.736 171.508 326.689C172.236 329.132 174.503 331.392 177.224 330.839C178.926 330.493 180.337 328.624 180.283 326.899C180.252 325.937 179.801 324.997 179.069 324.372C179.144 323.545 179.272 322.721 179.449 321.909C179.515 321.608 179.597 321.291 179.816 321.073C180.593 320.297 180.831 321.509 180.777 322.037C180.721 322.611 180.161 324.084 180.848 324.427C181.303 324.601 181.665 324.019 181.787 323.547C182.224 321.853 182.361 320.1 182.496 318.356C182.62 316.761 182.744 315.167 182.867 313.572C182.908 313.049 182.948 312.52 182.853 312.003C182.579 310.504 180.94 309.148 179.373 309.359C178.211 309.513 177.045 310.405 176.172 311.336" fill="white"/>
<path d="M176.172 311.336L175.685 310.882C173.163 313.583 171.92 317.111 171.023 320.485C170.708 321.673 170.495 322.924 170.495 324.184C170.495 325.085 170.605 325.994 170.869 326.879C171.231 328.088 171.92 329.24 172.864 330.116C173.805 330.99 175.024 331.591 176.396 331.591C176.711 331.591 177.032 331.559 177.357 331.492C178.384 331.28 179.265 330.647 179.904 329.84C180.54 329.03 180.948 328.028 180.951 326.996L180.949 326.879C180.911 325.722 180.38 324.619 179.503 323.865L179.069 324.372L179.733 324.432C179.805 323.633 179.929 322.837 180.1 322.051C180.157 321.76 180.239 321.58 180.285 321.546H180.287L180.379 321.467L180.271 321.265V321.488L180.379 321.467L180.271 321.265V321.488V321.159L180.032 321.395L180.271 321.488V321.159L180.032 321.395L180.103 321.325L180.02 321.38L180.032 321.395L180.103 321.325L180.02 321.38C180.044 321.39 180.128 321.703 180.117 321.884L180.113 321.972C180.108 322.062 180.044 322.336 179.977 322.64C179.913 322.95 179.844 323.303 179.843 323.675C179.843 323.898 179.865 324.134 179.965 324.382C180.06 324.626 180.265 324.885 180.551 325.024L180.579 325.038L180.609 325.05C180.737 325.099 180.876 325.125 181.013 325.125C181.256 325.125 181.476 325.041 181.641 324.933C181.889 324.768 182.045 324.561 182.169 324.353C182.291 324.144 182.376 323.928 182.432 323.714C182.888 321.944 183.025 320.151 183.161 318.408C183.284 316.812 183.408 315.219 183.532 313.624C183.555 313.339 183.579 313.034 183.579 312.714C183.579 312.447 183.561 312.168 183.509 311.884C183.344 311.001 182.836 310.222 182.161 309.64C181.487 309.063 180.625 308.672 179.699 308.67C179.561 308.67 179.423 308.679 179.284 308.697C177.848 308.905 176.62 309.896 175.685 310.882L176.172 311.336L176.659 311.792C177.469 310.913 178.572 310.123 179.461 310.019L179.699 310.003C180.233 310 180.821 310.245 181.295 310.652C181.768 311.056 182.107 311.609 182.197 312.124C182.231 312.307 182.245 312.503 182.245 312.714C182.245 312.966 182.225 313.236 182.203 313.52C182.079 315.115 181.955 316.71 181.832 318.304C181.697 320.048 181.56 321.763 181.141 323.38C181.109 323.508 181.033 323.673 180.968 323.756L180.913 323.816L181.013 323.968V323.792L180.913 323.816L181.013 323.968V323.792V323.999L181.087 323.804L181.013 323.792V323.999L181.087 323.804L180.848 324.427L181.147 323.831L181.084 323.955L181.188 323.864L181.147 323.831L181.084 323.955L181.188 323.864L181.128 323.917L181.201 323.882L181.188 323.864L181.128 323.917L181.201 323.882C181.199 323.88 181.173 323.806 181.176 323.675C181.175 323.482 181.221 323.196 181.281 322.917C181.341 322.633 181.412 322.372 181.441 322.103L181.451 321.884C181.448 321.596 181.411 321.276 181.288 320.952C181.224 320.789 181.139 320.62 180.981 320.459C180.831 320.297 180.563 320.149 180.271 320.155C179.873 320.161 179.588 320.363 179.345 320.601V320.6C178.956 321.001 178.872 321.455 178.797 321.767C178.615 322.607 178.483 323.458 178.405 324.312L178.375 324.655L178.636 324.879C179.221 325.376 179.595 326.153 179.616 326.92L179.617 326.996C179.62 327.661 179.333 328.414 178.856 329.015C178.383 329.619 177.733 330.059 177.091 330.185C176.853 330.235 176.621 330.257 176.396 330.257C175.423 330.256 174.524 329.835 173.771 329.139C173.019 328.446 172.437 327.48 172.147 326.499C171.925 325.755 171.828 324.977 171.828 324.184C171.828 323.075 172.017 321.935 172.312 320.827C173.185 317.521 174.387 314.216 176.66 311.792L176.172 311.336" fill="#100F0D"/>
<path d="M470.442 251.287C470.351 251.287 470.259 251.271 470.17 251.24L466.747 250.039C466.311 249.887 466.084 249.4 466.25 248.969L466.794 247.517C466.927 247.163 466.798 246.737 466.478 246.531C466.287 246.407 466.099 246.277 465.914 246.143C466.048 245.955 466.135 245.728 466.152 245.48C466.202 244.769 465.666 244.153 464.955 244.104C464.924 244.103 464.895 244.101 464.864 244.101C464.516 244.101 464.198 244.241 463.963 244.469C463.592 244.095 463.244 243.709 462.928 243.321C462.759 243.113 462.482 242.975 462.215 242.975C462.112 242.975 462.011 242.996 461.919 243.04L460.408 243.755C460.236 243.837 460.043 243.887 459.862 243.887C459.611 243.887 459.384 243.792 459.272 243.553L457.66 240.152C457.467 239.743 457.772 239.251 458.182 239.056L459.7 238.336C460.048 238.171 460.23 237.76 460.136 237.387C459.679 235.54 459.652 233.989 459.866 232.408C459.915 232.036 459.696 231.681 459.348 231.545L457.571 230.857C457.158 230.697 456.946 230.237 457.092 229.82L458.32 226.34C458.439 226.003 458.754 225.795 459.09 225.795C459.184 225.795 459.282 225.811 459.375 225.845L460.998 226.451C461.091 226.485 461.186 226.503 461.279 226.503C461.548 226.503 461.802 226.364 461.959 226.121C462.614 225.109 463.371 224.185 464.242 223.368C464.402 223.456 464.582 223.512 464.776 223.525C464.807 223.527 464.838 223.528 464.867 223.528C465.539 223.528 466.104 223.008 466.152 222.328C466.202 221.617 465.666 221.003 464.955 220.952C464.924 220.951 464.895 220.949 464.864 220.949L464.451 220.079C464.256 219.669 464.414 218.841 464.823 218.647L468.224 217.035C468.279 217.009 468.332 216.997 468.383 216.997C468.718 216.997 468.982 217.496 469.15 217.852L469.919 219.473C470.048 219.747 470.412 219.879 470.74 219.879C470.82 219.879 470.896 219.871 470.968 219.856C472.122 219.608 473.428 219.447 474.675 219.447C475.131 219.447 475.58 219.468 476.011 219.516C476.039 219.519 476.067 219.52 476.095 219.52C476.427 219.52 476.73 219.305 476.85 218.988L477.504 217.256C477.628 216.928 477.94 216.727 478.271 216.727C478.364 216.727 478.459 216.741 478.551 216.776L482.078 218.053C482.496 218.205 482.719 218.667 482.575 219.089L481.987 220.824C481.866 221.183 482.006 221.588 482.327 221.787C483.686 222.621 484.87 223.608 486.008 225.127C486.168 225.341 486.426 225.465 486.686 225.465C486.799 225.465 486.912 225.441 487.019 225.391L488.226 224.82C488.318 224.776 488.398 224.756 488.468 224.756C488.708 224.756 488.838 224.991 488.987 225.308L490.599 228.709C490.794 229.119 490.862 229.324 490.452 229.519L489.254 230.085C488.918 230.245 488.758 230.681 488.832 231.045C489.134 232.527 489.252 234.252 489.079 235.849C489.036 236.233 489.28 236.592 489.648 236.708L491.031 237.141C491.476 237.281 491.714 237.765 491.556 238.204L490.304 241.671C490.184 242.007 489.862 242.219 489.522 242.219C489.432 242.219 489.343 242.204 489.254 242.173L487.682 241.641C487.596 241.612 487.507 241.597 487.416 241.597C487.134 241.597 486.846 241.737 486.694 241.975C485.796 243.372 484.502 244.709 483.228 245.732C482.936 245.967 482.7 246.447 482.862 246.785L483.598 248.34C483.792 248.749 483.85 248.951 483.44 249.144L480.038 250.756C479.863 250.84 479.663 250.892 479.478 250.892C479.231 250.892 479.01 250.8 478.899 250.567L478.162 249.011C478.02 248.713 477.762 248.519 477.452 248.519C477.402 248.519 477.348 248.524 477.295 248.536C476.335 248.735 475.362 248.831 474.38 248.831C473.783 248.831 473.182 248.795 472.58 248.725C472.546 248.72 472.511 248.719 472.478 248.719C472.123 248.719 471.8 248.935 471.69 249.279L471.222 250.72C471.11 251.067 470.787 251.287 470.442 251.287V251.287ZM474.228 226.205C473.094 226.205 471.942 226.451 470.85 226.969C466.906 228.837 465.223 233.551 467.091 237.495C468.442 240.345 471.279 242.015 474.239 242.015C475.372 242.015 476.524 241.769 477.618 241.252C481.562 239.383 483.244 234.669 481.375 230.725C480.023 227.875 477.187 226.205 474.228 226.205" fill="#CFEDD5"/>
<path d="M464.867 223.528C464.838 223.528 464.807 223.527 464.776 223.525C464.582 223.512 464.402 223.456 464.242 223.368C464.496 223.127 464.762 222.896 465.036 222.675C465.338 222.432 465.386 222.049 465.22 221.7L464.864 220.949C464.895 220.949 464.924 220.951 464.955 220.952C465.666 221.003 466.202 221.617 466.152 222.328C466.104 223.008 465.539 223.528 464.867 223.528" fill="#1F3227"/>
<path d="M465.914 246.143C465.218 245.64 464.559 245.069 463.963 244.469C464.198 244.241 464.516 244.101 464.864 244.101C464.895 244.101 464.924 244.103 464.955 244.104C465.666 244.153 466.202 244.769 466.152 245.48C466.135 245.728 466.048 245.955 465.914 246.143" fill="#1F3227"/>
<path d="M504 282.416L501.748 281.625C501.159 281.419 500.855 280.763 501.076 280.18L501.81 278.221C501.992 277.741 501.815 277.168 501.384 276.888C499.56 275.703 497.884 274.14 496.591 272.556C496.362 272.273 495.988 272.088 495.627 272.088C495.49 272.088 495.352 272.115 495.227 272.175L493.19 273.14C492.956 273.251 492.695 273.319 492.451 273.319C492.112 273.319 491.807 273.189 491.655 272.869L489.478 268.276C489.216 267.723 489.63 267.057 490.182 266.796L492.232 265.824C492.703 265.601 492.947 265.045 492.82 264.54C492.202 262.048 492.168 259.952 492.456 257.817C492.523 257.316 492.228 256.836 491.755 256.653L489.358 255.724C488.799 255.508 488.512 254.888 488.711 254.323L490.368 249.624C490.53 249.169 490.954 248.887 491.408 248.887C491.536 248.887 491.666 248.909 491.794 248.956L493.983 249.775C494.11 249.821 494.238 249.843 494.364 249.843C494.728 249.843 495.071 249.656 495.282 249.328C496.424 247.561 497.802 245.993 499.438 244.675C499.844 244.347 499.91 243.831 499.686 243.359L498.647 241.168C498.386 240.615 498.596 239.497 499.15 239.236L503.743 237.059C503.816 237.024 503.888 237.008 503.958 237.008C503.971 237.008 503.986 237.009 504 237.011V252.891C501.146 255.996 500.295 260.64 502.212 264.687C502.684 265.683 503.291 266.572 504 267.343V282.416" fill="#CFEDD5"/>
<path d="M506.736 283.311C506.615 283.311 506.491 283.289 506.368 283.248L504 282.416V267.343C506.031 269.552 508.903 270.791 511.864 270.791C513.396 270.791 514.952 270.46 516.427 269.76C521.752 267.236 524.025 260.872 521.5 255.547C519.676 251.696 515.845 249.443 511.849 249.443C510.319 249.443 508.763 249.773 507.287 250.473C506.007 251.08 504.903 251.908 504 252.891V237.011C504.431 237.052 504.772 237.697 504.992 238.161L506.029 240.351C506.205 240.72 506.696 240.899 507.14 240.899C507.247 240.899 507.352 240.888 507.448 240.867C509.007 240.533 510.769 240.316 512.452 240.316C513.069 240.316 513.675 240.345 514.256 240.408C514.295 240.412 514.333 240.415 514.371 240.415C514.82 240.415 515.227 240.124 515.389 239.696L516.273 237.357C516.441 236.915 516.861 236.641 517.309 236.641C517.435 236.641 517.563 236.663 517.688 236.708L522.448 238.433C523.016 238.639 523.315 239.263 523.121 239.833L522.328 242.176C522.163 242.66 522.352 243.207 522.787 243.475C524.62 244.603 526.22 245.933 527.756 247.987C527.973 248.276 528.321 248.443 528.672 248.443C528.825 248.443 528.979 248.411 529.123 248.343L530.752 247.571C530.876 247.511 530.984 247.484 531.079 247.484C531.403 247.484 531.576 247.803 531.78 248.231L533.956 252.824C534.217 253.377 534.311 253.653 533.757 253.916L532.14 254.683C531.687 254.897 531.471 255.485 531.571 255.977C531.976 257.977 532.139 260.308 531.904 262.465C531.847 262.984 532.176 263.468 532.673 263.624L534.541 264.211C535.141 264.399 535.463 265.052 535.248 265.644L533.56 270.327C533.397 270.78 532.961 271.065 532.503 271.065C532.381 271.065 532.26 271.047 532.14 271.004L530.016 270.285C529.901 270.245 529.78 270.227 529.659 270.227C529.276 270.227 528.889 270.415 528.683 270.736C527.472 272.624 525.723 274.429 524.003 275.811C523.609 276.127 523.291 276.776 523.507 277.232L524.501 279.332C524.764 279.885 524.843 280.156 524.289 280.417L519.696 282.595C519.459 282.707 519.189 282.777 518.939 282.777C518.605 282.777 518.307 282.653 518.156 282.339L517.161 280.239C516.971 279.836 516.621 279.573 516.204 279.573C516.135 279.573 516.063 279.581 515.989 279.596C514.696 279.864 513.383 279.995 512.057 279.995C511.251 279.995 510.439 279.947 509.624 279.851C509.577 279.845 509.532 279.843 509.485 279.843C509.007 279.843 508.573 280.136 508.421 280.6L507.791 282.545C507.637 283.015 507.203 283.311 506.736 283.311V283.311ZM511.057 244.101C510.385 244.101 509.82 244.621 509.772 245.301C509.723 246.012 510.259 246.628 510.969 246.677C511 246.68 511.029 246.68 511.06 246.68C511.731 246.68 512.297 246.16 512.345 245.48C512.395 244.769 511.859 244.153 511.148 244.104C511.117 244.103 511.088 244.101 511.057 244.101Z" fill="#CFEDD5"/>
<path d="M511.06 246.68C511.03 246.68 511 246.68 510.97 246.678C510.259 246.628 509.723 246.012 509.772 245.301C509.82 244.621 510.386 244.101 511.058 244.101C511.088 244.101 511.118 244.103 511.148 244.104C511.859 244.154 512.395 244.77 512.346 245.48C512.298 246.16 511.731 246.68 511.06 246.68Z" fill="#1F3227"/>
<path d="M129.748 536.043C126.892 536.043 124.024 535.796 121.225 535.539C115.431 535.008 108.891 534.068 105.529 529.317C103.778 526.847 103.154 523.62 101.012 521.477C99.4109 519.879 97.1666 519.105 94.9557 518.623C94.2084 518.46 93.4541 518.323 92.6964 518.201C88.9869 517.603 85.1953 517.345 81.7286 515.928C77.553 514.223 73.8338 510.045 74.7036 505.621C75.4536 501.804 79.388 499.3 83.2505 498.848C83.8584 498.776 84.4661 498.744 85.0729 498.744C88.3234 498.744 91.5557 499.669 94.7317 500.479C101.127 502.112 107.634 503.307 114.192 504.053C123.706 505.137 134.027 505.541 141.477 511.556C146.419 515.545 150.023 521.924 156.261 523.107C157.557 523.352 158.903 523.348 160.16 523.744C161.417 524.14 162.635 525.081 162.813 526.388C163.185 529.083 156.575 529.391 154.689 529.907C149.237 531.396 144.069 533.388 138.705 534.929C135.799 535.765 132.78 536.043 129.748 536.043" fill="#CFEDD5"/>
<path d="M84.7707 494.392L84.9327 494.289C85.1822 494.171 85.427 494.095 85.6718 494.037L85.8202 493.991L85.8193 494.012C86.3489 493.915 86.8806 493.931 87.4639 494.051L87.5155 494.061C88.8895 494.344 89.9745 496.019 89.8567 497.377C89.7317 498.824 88.739 500.191 87.2535 500.481L87.2083 500.491C87.3791 500.427 87.5489 500.364 87.7193 500.303C86.9713 500.579 86.2401 500.699 85.4369 500.452C84.6583 500.212 83.8327 499.579 83.4786 498.829C82.7833 497.36 83.1354 495.147 84.7707 494.392V494.392ZM76.7661 494.881C76.0854 497.947 76.815 501.001 78.5193 503.36C79.9718 505.367 82.1327 506.872 84.7322 507.448C87.6223 508.089 90.4234 507.607 92.6854 506.092L150.629 518.595L153.891 503.885L95.8197 491.356C93.6745 488.829 91.5359 487.357 89.2906 486.86C86.5598 486.253 83.7483 486.759 81.375 488.284C79.0083 489.804 77.3707 492.147 76.7661 494.881" fill="#100F0D"/>
<path d="M93.2295 502.26L151.174 514.764L151.455 513.46L93.5107 500.956" fill="white"/>
<path d="M94.5684 496.499L152.512 509.003L152.793 507.7L94.8496 495.196" fill="white"/>
<path d="M143.811 510.48C142.992 514.173 143.66 517.963 145.692 521.151C145.844 521.392 146.004 521.627 146.171 521.856C148.202 524.665 151.154 526.609 154.568 527.365C157.772 528.077 161.144 527.647 164.063 526.157L165.984 525.176L155.243 517.765L161.058 509.339L171.622 516.632L171.754 514.345C172.156 507.383 167.504 501.231 160.696 499.724C153.076 498.033 145.502 502.86 143.811 510.48" fill="white"/>
<path d="M143.811 510.48L143.16 510.336C142.921 511.412 142.803 512.497 142.803 513.575C142.803 516.365 143.596 519.104 145.129 521.509L145.128 521.507C145.289 521.761 145.457 522.008 145.631 522.247C147.755 525.187 150.853 527.227 154.424 528.017C155.481 528.252 156.556 528.367 157.628 528.367C159.956 528.367 162.272 527.82 164.367 526.752L167.281 525.261L156.169 517.596L161.227 510.265L172.219 517.853L172.419 514.384C172.436 514.089 172.444 513.797 172.444 513.507C172.445 506.585 167.677 500.584 160.84 499.073C159.765 498.835 158.689 498.72 157.629 498.72C150.831 498.72 144.693 503.431 143.16 510.336L143.811 510.48L144.463 510.625C145.853 504.344 151.448 500.053 157.629 500.053C158.593 500.053 159.572 500.157 160.552 500.375C166.781 501.755 171.109 507.203 171.111 513.507C171.111 513.772 171.103 514.039 171.088 514.307L171.024 515.409L160.887 508.411L154.315 517.936L164.685 525.091L163.76 525.564C161.856 526.535 159.748 527.035 157.628 527.035C156.652 527.035 155.675 526.928 154.713 526.715C151.455 525.992 148.648 524.144 146.711 521.465V521.464C146.552 521.245 146.4 521.023 146.256 520.795L146.253 520.792H146.255C144.856 518.597 144.137 516.112 144.136 513.575C144.136 512.595 144.244 511.607 144.463 510.625L143.811 510.48" fill="#100F0D"/>
<path d="M205.929 502.832C199.029 502.832 192.133 502.487 185.267 501.715C178.012 500.899 169.327 498.291 167.736 491.165C166.357 484.984 171.747 478.969 177.819 477.168C180.105 476.491 182.452 476.24 184.823 476.24C188.749 476.24 192.745 476.925 196.653 477.491C205.888 478.825 271.923 479.724 270.06 492.787C269.12 499.373 237.591 500.757 231.476 501.407C222.993 502.304 214.459 502.832 205.929 502.832" fill="#CFEDD5"/>
<path d="M240.787 480.803L239.715 484.996L189.673 476.223L190.747 472.028L240.787 480.803Z" fill="#100F0D"/>
<path d="M277.067 481.789C277.168 481.917 277.265 482.049 277.36 482.185C278.667 484.043 279.172 486.28 278.779 488.483C277.963 493.073 273.437 496.151 268.693 495.345L219.961 487.095L222.464 471.027L271.543 478.537C273.761 478.916 275.704 480.064 277.067 481.789" fill="white"/>
<path d="M277.067 481.789L276.543 482.201C276.636 482.32 276.727 482.441 276.814 482.567L276.815 482.568C277.756 483.907 278.242 485.445 278.243 487.017C278.243 487.465 278.203 487.916 278.123 488.365C277.459 492.125 274.059 494.807 270.208 494.807C269.746 494.807 269.276 494.768 268.804 494.688L220.722 486.548L223.02 471.785L271.443 479.197L271.543 478.537L271.431 479.195C273.492 479.547 275.283 480.607 276.543 482.203L277.067 481.789L277.59 481.376C276.127 479.52 274.031 478.284 271.655 477.88L271.648 477.879L221.908 470.267L219.202 487.643L268.582 496.003C269.127 496.095 269.671 496.14 270.208 496.14C274.672 496.14 278.643 493.035 279.435 488.6C279.53 488.073 279.576 487.544 279.576 487.017C279.576 485.169 279 483.356 277.906 481.801L277.907 481.804C277.806 481.657 277.7 481.515 277.591 481.376L277.067 481.789" fill="#100F0D"/>
<path d="M199.62 465.869L206.06 475.049L204.827 478.783L196.487 484.413L177.536 476.427L179.492 465.824L199.62 465.869" fill="white"/>
<path d="M199.62 465.869L199.075 466.253L205.323 475.159L204.264 478.357L196.412 483.659L178.288 476.021L180.047 466.492L199.619 466.536L199.62 465.869L199.075 466.253L199.62 465.869L199.621 465.203L178.937 465.156L176.783 476.833L196.56 485.167L205.388 479.208L206.799 474.941L199.967 465.204L199.621 465.203L199.62 465.869" fill="#100F0D"/>
<path d="M233.87 479.097L278.772 486.284L278.983 484.968L234.08 477.78" fill="#100F0D"/>
<path d="M232.895 484.657L277.798 491.844L278.008 490.528L233.107 483.34" fill="#100F0D"/>
<path d="M224.56 487.891L227.735 471.615L226.427 471.359L223.251 487.636" fill="#100F0D"/>
<path d="M183.48 475.979L194.063 480.027Z" fill="white"/>
<path d="M183.242 476.601L193.826 480.649L194.302 479.403L183.718 475.356" fill="#100F0D"/>
<path d="M222.613 269.383C217.588 268.681 212.401 270.227 207.601 270.991C205.637 271.375 203.675 271.76 201.711 272.144C199.257 272.651 196.688 272.991 194.4 274.068C190.913 275.712 188.415 278.908 186.436 282.217C184.409 285.605 182.789 289.216 181.173 292.819C178.547 298.673 176.219 304.591 173.8 310.476C173.655 310.828 173.813 311.228 174.159 311.389C177.724 313.037 181.217 314.84 184.68 316.697C184.84 316.784 185.031 316.709 185.085 316.536C186.02 313.567 198.041 293.867 200.873 292.487C202.355 291.765 204.549 291.672 206.16 291.205C209.784 290.155 213.323 288.809 216.729 287.189C219.873 285.693 222.905 283.964 225.789 282.013C226.757 281.36 227.572 280.473 228.055 279.409C230.313 274.427 227.779 270.103 222.613 269.383" fill="white"/>
<path d="M222.613 269.383L222.705 268.721C221.781 268.593 220.856 268.537 219.932 268.537C215.641 268.541 211.396 269.716 207.496 270.332L207.484 270.333L207.473 270.336C205.509 270.721 203.547 271.105 201.583 271.491H201.579L201.576 271.492C199.156 271.995 196.532 272.332 194.116 273.465C190.435 275.205 187.872 278.521 185.864 281.875C183.811 285.308 182.181 288.944 180.565 292.545C177.931 298.42 175.6 304.343 173.184 310.223C173.113 310.392 173.08 310.571 173.08 310.745C173.079 311.268 173.38 311.763 173.879 311.993C177.427 313.635 180.908 315.431 184.365 317.285C184.505 317.361 184.664 317.4 184.82 317.4C185.216 317.405 185.599 317.136 185.721 316.737C185.809 316.449 186.093 315.819 186.509 315.011C187.971 312.161 191.089 306.909 194.135 302.248C195.659 299.916 197.167 297.727 198.437 296.06C199.073 295.227 199.649 294.523 200.129 294.004C200.601 293.487 201.013 293.151 201.165 293.087C201.799 292.775 202.669 292.573 203.588 292.407C204.509 292.236 205.475 292.096 206.345 291.845C210.005 290.784 213.576 289.427 217.016 287.791C220.189 286.281 223.251 284.535 226.163 282.565C227.217 281.853 228.119 280.88 228.661 279.684C229.26 278.365 229.551 277.068 229.551 275.847C229.553 274.011 228.885 272.347 227.683 271.097C226.483 269.845 224.767 269.008 222.705 268.721L222.613 269.383L222.521 270.043C224.336 270.296 225.756 271.015 226.721 272.02C227.685 273.029 228.215 274.328 228.217 275.847C228.217 276.856 227.977 277.965 227.448 279.133C227.025 280.067 226.297 280.865 225.416 281.461C222.56 283.392 219.557 285.105 216.443 286.587C213.068 288.192 209.564 289.524 205.975 290.565C205.235 290.78 204.297 290.921 203.348 291.095C202.396 291.271 201.428 291.477 200.581 291.888C200.051 292.159 199.556 292.649 198.921 293.352C196.753 295.793 193.383 300.828 190.413 305.616C188.931 308.008 187.556 310.332 186.496 312.227C185.965 313.175 185.515 314.016 185.168 314.708C184.819 315.404 184.577 315.936 184.449 316.336L184.82 316.452V316.067C184.659 316.061 184.493 316.184 184.449 316.335L184.82 316.452V316.067V316.439L184.996 316.111L184.82 316.067V316.439L184.996 316.111C181.525 314.249 178.021 312.44 174.439 310.784L174.429 310.779L174.439 310.784L174.413 310.745L174.416 310.731C176.837 304.837 179.164 298.928 181.781 293.091C183.397 289.489 185.008 285.901 187.008 282.559C188.957 279.295 191.392 276.217 194.684 274.672C196.844 273.651 199.36 273.307 201.845 272.797L201.711 272.144L201.839 272.799C203.803 272.413 205.765 272.029 207.729 271.644L207.601 270.991L207.705 271.648C211.705 271.009 215.885 269.868 219.932 269.871C220.803 269.871 221.667 269.923 222.521 270.043L222.613 269.383" fill="#100F0D"/>
<path d="M375.079 339.999C374.084 338.329 373.039 336.661 372.211 334.867C371.732 333.829 371.251 332.749 370.408 331.977C369.179 330.855 367.418 330.587 365.766 330.369C363.351 330.051 360.867 329.735 358.503 330.319C357.524 330.56 356.556 330.972 355.851 331.693C353.86 333.725 355.754 337.332 357.71 338.715C359.827 340.212 362.362 340.524 364.414 342.213C366.454 343.895 367.675 346.363 368.806 348.696C369.912 350.984 371.02 353.271 372.127 355.557C372.335 355.989 372.59 356.463 373.046 356.609C373.302 356.693 373.58 356.656 373.842 356.597C376.664 355.96 378.343 352.864 378.438 349.972C378.566 346.123 376.903 343.06 375.079 339.999" fill="white"/>
<path d="M375.079 339.999L375.651 339.657C374.651 337.98 373.62 336.331 372.816 334.588C372.336 333.559 371.836 332.388 370.857 331.485C369.415 330.184 367.505 329.933 365.852 329.708C364.42 329.519 362.936 329.325 361.439 329.325C360.409 329.325 359.371 329.417 358.343 329.672C357.295 329.932 356.208 330.377 355.373 331.227C354.641 331.969 354.333 332.923 354.337 333.851C354.34 334.935 354.72 336.005 355.268 336.948C355.821 337.889 356.545 338.705 357.325 339.259C358.469 340.068 359.687 340.535 360.832 341.008C361.98 341.481 363.053 341.957 363.989 342.728C365.883 344.281 367.079 346.653 368.205 348.987C369.312 351.275 370.42 353.561 371.527 355.848L371.525 355.847C371.636 356.073 371.767 356.339 371.965 356.597C372.161 356.852 372.444 357.116 372.841 357.244L372.839 357.243C373.027 357.304 373.209 357.325 373.376 357.325C373.608 357.324 373.811 357.287 373.987 357.248H373.988C375.604 356.883 376.869 355.817 377.723 354.492C378.579 353.163 379.051 351.56 379.104 349.993C379.108 349.847 379.111 349.701 379.111 349.556C379.109 345.693 377.412 342.616 375.651 339.657L375.079 339.999L374.505 340.34C376.26 343.283 377.78 346.107 377.777 349.556C377.777 349.687 377.776 349.817 377.771 349.949C377.729 351.276 377.315 352.668 376.603 353.768C375.887 354.873 374.901 355.675 373.695 355.948L373.696 355.947C373.568 355.976 373.456 355.992 373.376 355.992L373.252 355.976L373.251 355.975C373.192 355.956 373.119 355.909 373.021 355.784C372.925 355.661 372.825 355.473 372.727 355.268V355.267C371.62 352.98 370.512 350.693 369.405 348.407C368.269 346.072 367.024 343.508 364.836 341.699C363.72 340.78 362.501 340.256 361.34 339.776C360.175 339.297 359.067 338.86 358.095 338.171C357.507 337.757 356.877 337.063 356.42 336.275C355.957 335.488 355.668 334.609 355.671 333.851C355.676 333.193 355.861 332.64 356.327 332.159C356.904 331.567 357.752 331.189 358.663 330.967C359.56 330.744 360.488 330.659 361.439 330.659C362.821 330.659 364.248 330.841 365.679 331.031C367.328 331.24 368.941 331.525 369.957 332.471C370.667 333.111 371.127 334.099 371.605 335.147C372.457 336.992 373.516 338.679 374.505 340.34L375.079 339.999" fill="#100F0D"/>
<path d="M200.533 288.749C202.411 290.464 204.703 291.832 206.823 292.444C209.353 293.177 212.401 292.688 214.056 290.639C215.58 288.753 216.123 285.585 218.52 285.229C219.221 285.125 219.931 285.321 220.605 285.544C223.948 286.647 227.277 288.497 230.761 287.987C232.995 287.659 235.007 286.355 236.503 284.667C238.227 282.723 239.356 280.073 238.853 277.525C237.841 272.403 231.223 271.319 227.017 271.067C221.317 270.727 215.483 270.793 209.916 269.54C205.791 268.611 202.288 268.805 199.032 272.195C195.96 275.389 195.413 280.572 197.309 284.579C198.005 286.048 199.157 287.492 200.533 288.749" fill="white"/>
<path d="M200.533 288.749L200.084 289.241C202.032 291.017 204.389 292.432 206.637 293.085C207.428 293.313 208.261 293.432 209.095 293.432C211.143 293.432 213.232 292.715 214.575 291.057C215.42 290.003 215.939 288.711 216.536 287.697C216.832 287.189 217.14 286.757 217.475 286.452C217.813 286.147 218.16 285.96 218.617 285.889L218.921 285.868C219.363 285.865 219.868 286 220.396 286.176C223.277 287.116 226.267 288.728 229.543 288.74C229.977 288.74 230.416 288.711 230.859 288.645C233.289 288.285 235.423 286.888 237.003 285.108C238.528 283.384 239.635 281.133 239.64 278.772C239.64 278.315 239.597 277.855 239.507 277.396C239.229 275.983 238.549 274.823 237.639 273.919C236.271 272.559 234.416 271.744 232.519 271.227C230.619 270.712 228.661 270.497 227.057 270.401C221.325 270.061 215.525 270.121 210.063 268.889C208.713 268.585 207.412 268.395 206.141 268.395C203.435 268.383 200.865 269.307 198.551 271.732C196.527 273.841 195.544 276.721 195.544 279.601C195.544 281.409 195.931 283.224 196.708 284.864C197.453 286.437 198.657 287.936 200.084 289.241L200.533 288.749L200.983 288.256C199.657 287.047 198.557 285.659 197.912 284.293C197.225 282.843 196.877 281.219 196.877 279.601C196.876 277.02 197.763 274.473 199.512 272.656C201.631 270.469 203.721 269.74 206.141 269.728C207.276 269.728 208.483 269.9 209.769 270.191C215.439 271.464 221.309 271.392 226.977 271.732C229.043 271.855 231.692 272.189 233.88 273.087C234.976 273.533 235.952 274.117 236.697 274.863C237.444 275.609 237.971 276.507 238.199 277.655C238.272 278.024 238.307 278.397 238.307 278.772C238.312 280.699 237.365 282.693 236.004 284.224C234.589 285.821 232.7 287.031 230.665 287.327C230.291 287.381 229.916 287.407 229.543 287.407C226.727 287.42 223.836 285.92 220.813 284.911C220.251 284.725 219.617 284.536 218.921 284.535C218.757 284.535 218.591 284.545 218.421 284.571C217.681 284.677 217.061 285.021 216.576 285.468C215.844 286.143 215.368 287.023 214.915 287.884C214.467 288.747 214.044 289.597 213.539 290.22C212.525 291.48 210.847 292.099 209.095 292.099C208.388 292.099 207.676 291.997 207.008 291.804C205.017 291.231 202.789 289.909 200.983 288.256L200.533 288.749" fill="#100F0D"/>
<path d="M232.568 257.111C225.758 257.807 223.591 262.333 220.079 267.481C217.167 271.748 214.431 278.068 218.19 282.543C221.22 286.149 225.215 287.775 229.166 290.049C232.508 291.975 235.208 293.467 239.458 293.292C249.79 292.868 260.238 294.027 270.69 293.965C277.37 293.927 283.783 293.983 290.215 291.956C295.839 290.183 297.874 284.712 299.351 279.281C300.86 273.733 301.643 265.797 297.783 260.928C297.286 260.3 296.711 259.723 296.051 259.209C295.079 258.452 293.942 257.941 292.803 257.472C290.626 256.575 288.244 255.789 285.952 256.328C285.436 256.449 284.938 256.636 284.43 256.789C279.763 258.205 275.188 258.803 270.324 259.319C264.846 259.9 259.182 259.375 253.724 258.816C246.79 258.107 239.538 256.397 232.568 257.111" fill="white"/>
<path d="M232.568 257.111L232.5 256.448C228.955 256.801 226.519 258.208 224.611 260.159C222.699 262.108 221.271 264.556 219.528 267.105C217.596 269.948 215.703 273.677 215.692 277.359C215.688 279.324 216.26 281.287 217.679 282.971C220.844 286.728 224.943 288.377 228.832 290.627C231.987 292.447 234.739 293.976 238.79 293.972C239.016 293.972 239.248 293.968 239.484 293.957C241.079 293.892 242.676 293.865 244.279 293.865C252.73 293.864 261.287 294.633 269.887 294.635C270.155 294.635 270.424 294.633 270.692 294.632C277.364 294.592 283.855 294.657 290.415 292.592C293.399 291.655 295.456 289.703 296.906 287.34C298.36 284.973 299.248 282.192 299.994 279.457C300.704 276.845 301.258 273.719 301.258 270.591C301.256 266.961 300.514 263.305 298.306 260.513C297.776 259.845 297.163 259.231 296.46 258.683C295.403 257.861 294.207 257.331 293.056 256.856C291.35 256.155 289.472 255.488 287.524 255.485C286.952 255.485 286.375 255.544 285.8 255.679C285.228 255.815 284.718 256.007 284.236 256.152C279.636 257.547 275.108 258.14 270.254 258.656C268.59 258.832 266.902 258.905 265.206 258.905C261.408 258.905 257.56 258.539 253.792 258.152C248.064 257.569 242.046 256.276 236.078 256.273C234.883 256.273 233.688 256.325 232.5 256.448L232.568 257.111L232.636 257.773C233.774 257.657 234.922 257.607 236.078 257.607C241.854 257.604 247.83 258.88 253.656 259.479C257.431 259.865 261.323 260.239 265.206 260.239C266.94 260.239 268.675 260.164 270.395 259.981C275.267 259.464 279.89 258.863 284.623 257.428C285.158 257.265 285.644 257.084 286.106 256.977C286.571 256.868 287.044 256.819 287.524 256.819C289.159 256.815 290.891 257.403 292.548 258.088C293.675 258.552 294.755 259.044 295.64 259.735C296.258 260.216 296.795 260.755 297.26 261.341C299.202 263.784 299.927 267.135 299.924 270.591C299.926 273.56 299.394 276.587 298.707 279.107C297.975 281.801 297.108 284.471 295.77 286.64C294.427 288.813 292.654 290.484 290.014 291.32C283.712 293.308 277.375 293.263 270.686 293.299C270.419 293.3 270.152 293.301 269.887 293.301C261.366 293.301 252.81 292.532 244.279 292.532C242.662 292.532 241.046 292.559 239.43 292.625C239.212 292.635 238.998 292.639 238.79 292.639C235.096 292.635 232.671 291.297 229.498 289.472C225.488 287.171 221.596 285.571 218.699 282.113C217.5 280.68 217.03 279.077 217.026 277.359C217.015 274.149 218.767 270.575 220.63 267.857C222.399 265.259 223.811 262.869 225.562 261.093C227.319 259.32 229.37 258.116 232.636 257.773L232.568 257.111" fill="#100F0D"/>
<path d="M360.536 336.645C360.846 334.833 361.472 329.971 360.252 328.773C359.098 327.637 357.471 327.525 355.996 327.188C354.072 326.749 352.168 326.084 350.271 325.536C346.347 324.404 342.423 323.268 338.504 322.12C332.116 320.249 326.056 317.941 319.92 315.392C311.619 311.944 302.983 308.052 294.04 308.961C291.911 309.179 289.946 309.975 287.886 310.419C285.587 310.915 283.17 311.747 281.272 313.163C278.356 315.337 277.63 319.136 278.88 322.453C281.915 330.505 290.174 330.899 297.299 332.799C300.991 333.783 304.922 333.976 308.728 334.303C321.503 335.397 334.243 336.901 346.92 338.811C350.13 339.295 353.332 339.804 356.531 340.339C357.408 340.485 358.527 340.832 359.578 340.932C359.943 339.513 360.291 338.089 360.536 336.645" fill="#100F0D"/>
<path d="M283.992 328.395C284.533 328.54 285.101 328.557 285.688 328.407C292.46 326.677 298.361 320.639 302.427 315.269C308.948 306.656 312.917 296.56 319.048 287.771C320.931 285.072 323.457 283.209 325.025 280.312C327.804 275.176 329.135 268.301 328.059 262.539C325.981 251.409 313.084 248.131 303.279 249.773C296.852 250.849 291.12 254.588 284.713 255.78C283.911 255.929 283.059 256.056 282.42 256.564C282.211 256.731 282.057 257.04 281.947 257.44C281.972 265.24 282.007 273.031 281.896 280.84C281.827 285.7 282.387 291.919 281.733 295.908C281.332 298.36 279.391 301.075 278.617 303.507C276.8 309.227 276.225 315.361 278.243 321.125C279.065 323.479 281.196 327.647 283.992 328.395" fill="#100F0D"/>
<path d="M249.187 278.177C249.311 278.428 249.438 278.679 249.562 278.928Z" fill="#232121"/>
<path d="M247.148 269.925C249.394 266.275 251.399 262.124 253.031 257.795C255.136 252.216 256.622 246.341 257.203 240.859C257.746 235.751 257.438 230.596 257.128 225.469C256.223 210.425 255.998 195.145 254.355 180.173C252.807 180.953 241.627 181.988 241.672 181.619C239.628 198.285 237.583 214.951 235.538 231.617C235.055 235.548 234.566 239.511 233.284 243.257C231.956 247.141 229.816 250.685 227.828 254.275C224.443 260.384 216.582 271.191 218.1 278.251" fill="white"/>
<path d="M247.716 270.275C249.987 266.583 252.008 262.396 253.655 258.031C255.778 252.404 257.276 246.48 257.867 240.928C258.084 238.868 258.167 236.804 258.167 234.744C258.167 231.627 257.98 228.516 257.794 225.429C256.89 210.405 256.664 195.115 255.018 180.1L254.914 179.145L254.055 179.577C253.986 179.616 253.731 179.703 253.396 179.783C250.992 180.371 244.246 181.035 242.287 181.029C242.107 181.029 241.967 181.023 241.911 181.015L241.891 181.012L241.814 181.412L241.995 181.051L241.891 181.012L241.814 181.412L241.995 181.051L241.722 181.596L242.175 181.189L241.995 181.051L241.722 181.596L242.175 181.189L241.694 181.621H242.339C242.342 181.437 242.251 181.269 242.175 181.189L241.694 181.621H242.339H241.684L242.327 181.748L242.339 181.621H241.684L242.327 181.748L241.672 181.619L241.011 181.537C238.966 198.204 236.92 214.869 234.876 231.536C234.394 235.467 233.906 239.383 232.654 243.043C231.358 246.836 229.243 250.348 227.244 253.951C225.72 256.704 223.232 260.488 221.119 264.469C219.011 268.456 217.251 272.633 217.242 276.341C217.242 277.043 217.306 277.729 217.448 278.392L218.752 278.111C218.632 277.552 218.575 276.961 218.575 276.341C218.566 273.064 220.219 268.999 222.298 265.093C224.372 261.181 226.843 257.424 228.411 254.597C230.391 251.023 232.555 247.447 233.915 243.473C235.226 239.639 235.716 235.629 236.199 231.699C238.244 215.032 240.29 198.367 242.335 181.7L241.019 181.489L241.006 181.621C241.004 181.887 241.167 182.087 241.264 182.157C241.444 182.291 241.527 182.291 241.606 182.315C241.819 182.359 242.007 182.36 242.287 182.363C243.527 182.361 246.204 182.145 248.784 181.847C250.071 181.697 251.327 181.527 252.355 181.349C252.87 181.261 253.327 181.171 253.71 181.079C254.095 180.983 254.394 180.897 254.655 180.768L254.355 180.173L253.692 180.245C255.33 195.176 255.558 210.445 256.463 225.509C256.648 228.596 256.834 231.68 256.834 234.744C256.834 236.769 256.752 238.785 256.54 240.788C255.966 246.203 254.494 252.029 252.408 257.56C250.79 261.852 248.8 265.965 246.58 269.576L247.716 270.275" fill="#100F0D"/>
<path d="M282.834 295.015C287.038 286.967 292.118 279.375 297.955 272.419L296.932 271.561C291.035 278.592 285.902 286.264 281.652 294.397L282.834 295.015" fill="white"/>
<path d="M250.411 275.563C250.151 273.399 249.72 271.329 249.497 269.153C249.388 268.085 249.276 267.01 248.964 265.983L248.86 265.708C246.752 270.062 242.96 273.408 239.084 276.264C242.704 278.299 246.324 280.333 249.944 282.367C250.965 282.94 250.504 276.345 250.411 275.563" fill="#100F0D"/>
<path d="M212.035 277.5C212.043 278.208 211.452 279.016 211.03 279.508C217.375 282.704 218.498 295.661 217.879 301.784C217.463 305.916 216.258 309.943 215.915 314.081C215.406 320.224 216.987 326.743 221.195 331.248C226.299 336.716 234.874 338.388 241.872 335.745C248.871 333.103 254.084 326.519 255.62 319.196C259.394 301.216 241.867 285.347 230.68 273.743C226.271 269.169 220.674 265.949 214.135 266.211C212.16 266.289 210.211 266.667 208.286 267.109C203.383 268.237 198.927 270.009 196.386 274.505C194.852 277.219 192.128 279.281 191.315 282.289C190.711 284.517 191.372 287.083 193.09 288.625C194.806 290.169 197.535 290.529 199.52 289.351C203.908 286.743 202.482 277.092 208.399 277.389C208.271 276.865 208.66 276.328 209.148 276.103C209.638 275.877 210.198 275.889 210.736 275.905C210.979 275.913 211.231 275.921 211.454 276.023C211.959 276.248 212.028 277.019 212.035 277.5" fill="#100F0D"/>
<path d="M208.7 291.016C208.245 289.632 208.581 288.017 209.549 286.929Z" fill="white"/>
<path d="M209.333 290.808C209.221 290.468 209.167 290.108 209.167 289.745C209.165 288.88 209.483 288.004 210.048 287.373L209.052 286.487C208.253 287.385 207.835 288.563 207.833 289.745C207.833 290.243 207.908 290.743 208.067 291.224L209.333 290.808" fill="#100F0D"/>
<path d="M326.043 273.619C323.584 279.929 318.624 285.232 316.099 291.889L317.345 292.36C319.719 286.024 324.673 280.724 327.284 274.105L326.043 273.62" fill="white"/>
<path d="M513.296 500.279C511.451 500.279 509.591 500.077 507.926 499.305C505.942 498.384 504.283 496.493 504.195 494.308C504.148 493.139 504.434 492.075 504.97 491.105C507.924 485.759 518.532 483.347 523.287 482.139C528.35 480.852 533.576 480.192 538.802 480.192C542.244 480.192 545.686 480.477 549.08 481.06C550.21 481.253 551.456 481.556 552.087 482.513C552.94 483.807 552.192 485.589 551.09 486.679C546.71 491.008 539.967 493.284 534.323 495.537C527.948 498.084 521.252 500.021 514.354 500.259C514.003 500.271 513.65 500.279 513.296 500.279" fill="#CFEDD5"/>
<path d="M540.706 426.007C540.719 425.777 540.743 425.548 540.78 425.32C541.192 422.825 543.154 420.928 544.498 418.785C545.803 416.703 546.555 414.279 546.658 411.824C546.851 407.221 546.718 401.313 548.699 397.052C550.487 393.209 554.736 391.125 556.916 387.515C558.119 385.521 558.492 383.155 559.028 380.889C559.882 377.283 561.25 373.711 563.667 370.903C565.55 368.716 567.98 367.087 570.38 365.485C572.715 363.928 575.08 362.355 577.726 361.42C581.2 360.195 585.058 359.789 586.668 363.369C587.968 366.259 587.312 370.359 585.942 373.08C584.748 375.448 582.859 377.376 581.082 379.344C577.999 382.757 575.176 386.405 572.643 390.244C571.936 391.315 571.235 392.449 571.078 393.723C570.923 394.959 571.298 396.191 571.452 397.424C572.243 403.693 569.658 408.756 564.818 412.575C560.998 415.587 558.612 417.293 557.65 422.511C557.055 425.737 556.79 429.165 554.995 431.913C554.26 433.035 553.304 433.989 552.434 435.012C549.212 438.797 547.202 443.597 546.762 448.549C546.542 451.027 546.019 456.613 542.038 455.489C537.167 454.115 537.759 439.885 539.188 436.515C539.795 435.083 540.706 433.756 540.995 432.227C541.38 430.181 540.592 428.072 540.706 426.007" fill="#100F0D"/>
<path d="M520.079 436.38C520.039 434.567 520.306 432.681 520.939 430.732C521.708 428.361 522.97 425.987 522.59 423.523C521.964 419.448 517.264 417.227 515.806 413.371C513.806 408.092 518.511 402.791 519.563 397.245C520.458 392.54 518.656 387.805 517.442 383.175C516.918 381.18 513.948 369.796 519.851 371.612C520.781 371.9 521.378 372.793 521.832 373.656C524.696 379.105 525.42 386.011 529.995 390.495C531.867 392.329 534.284 393.556 536.059 395.485C538.878 398.552 539.699 403.072 539.06 407.188C537.942 414.379 530.851 419.189 533.683 426.549C534.862 429.613 536.882 432.264 538.534 435.103C541.963 440.988 548.93 464.584 534.907 456.433C527.472 452.113 520.266 445.079 520.079 436.38" fill="white"/>
<path d="M520.079 436.38L520.744 436.365L520.741 436.035C520.741 434.397 521.001 432.7 521.573 430.937C522.213 428.929 523.315 426.805 523.325 424.448C523.325 424.109 523.301 423.767 523.249 423.421C522.892 421.141 521.439 419.468 519.999 417.911C518.544 416.352 517.081 414.879 516.428 413.135C516.115 412.307 515.983 411.484 515.981 410.644C515.977 408.628 516.775 406.499 517.725 404.285C518.669 402.071 519.757 399.781 520.217 397.369C520.393 396.443 520.469 395.519 520.469 394.599C520.464 390.611 519.059 386.732 518.087 383.005C517.815 381.983 516.895 378.417 516.899 375.604C516.895 374.515 517.044 373.549 517.348 372.948C517.5 372.647 517.676 372.439 517.879 372.303C518.084 372.168 518.327 372.085 518.689 372.083C518.951 372.083 519.271 372.131 519.655 372.249C519.968 372.347 520.249 372.552 520.519 372.859C520.787 373.161 521.027 373.557 521.243 373.967C522.633 376.608 523.527 379.671 524.648 382.671C525.771 385.668 527.129 388.617 529.528 390.971C531.507 392.895 533.911 394.119 535.568 395.937C537.652 398.2 538.599 401.359 538.597 404.549C538.597 405.4 538.531 406.252 538.401 407.085C537.963 409.929 536.508 412.449 535.105 414.993C533.712 417.533 532.357 420.111 532.353 423.105C532.352 424.28 532.567 425.508 533.06 426.789C534.288 429.971 536.337 432.645 537.957 435.439C538.847 436.96 540.041 439.859 540.989 443.049C541.943 446.24 542.657 449.749 542.655 452.5C542.659 454.065 542.416 455.376 541.94 456.208C541.703 456.627 541.419 456.927 541.073 457.133C540.728 457.339 540.307 457.459 539.748 457.46C538.713 457.465 537.212 457.005 535.241 455.857C531.579 453.729 527.979 450.932 525.292 447.628C522.603 444.321 520.835 440.529 520.744 436.365L520.079 436.38L519.412 436.395C519.509 440.929 521.437 445.004 524.257 448.469C527.08 451.937 530.8 454.817 534.571 457.009C536.657 458.219 538.336 458.789 539.748 458.793C540.504 458.795 541.187 458.62 541.756 458.279C542.616 457.767 543.179 456.919 543.515 455.928C543.853 454.932 543.988 453.771 543.988 452.5C543.987 449.529 543.241 445.943 542.268 442.668C541.289 439.392 540.089 436.453 539.109 434.767C537.427 431.883 535.433 429.256 534.304 426.311C533.867 425.172 533.687 424.119 533.687 423.105C533.681 420.539 534.879 418.163 536.273 415.636C537.657 413.113 539.223 410.456 539.719 407.289C539.859 406.389 539.931 405.471 539.931 404.549C539.931 401.105 538.916 397.613 536.549 395.035C534.657 392.993 532.228 391.764 530.461 390.019C528.285 387.888 526.996 385.143 525.896 382.204C524.796 379.268 523.896 376.153 522.423 373.347C522.183 372.892 521.897 372.409 521.521 371.979C521.145 371.551 520.664 371.165 520.047 370.975C519.563 370.827 519.112 370.749 518.689 370.749C518.107 370.748 517.569 370.903 517.137 371.195C516.481 371.636 516.097 372.325 515.872 373.083C515.645 373.845 515.565 374.704 515.565 375.604C515.569 378.676 516.523 382.288 516.796 383.344C517.799 387.145 519.141 390.931 519.136 394.599C519.136 395.445 519.067 396.284 518.908 397.12C518.496 399.3 517.46 401.519 516.499 403.761C515.544 406.004 514.653 408.279 514.648 410.644C514.648 411.625 514.807 412.62 515.181 413.607C515.988 415.719 517.604 417.284 519.021 418.819C520.452 420.355 521.661 421.829 521.931 423.624C521.973 423.897 521.992 424.172 521.992 424.448C522.004 426.364 521.009 428.388 520.305 430.525C519.691 432.415 519.408 434.256 519.408 436.035C519.408 436.155 519.409 436.275 519.412 436.395L520.079 436.38" fill="#100F0D"/>
<path d="M547.734 436.876C547.811 436.72 547.891 436.565 547.972 436.411C549.715 433.077 552.042 430.079 553.84 426.773C555.3 424.091 556.406 421.219 558.028 418.633C559.65 416.047 561.916 413.695 564.836 412.804C566.642 412.252 569.559 412.595 570.967 413.937C571.427 414.376 571.78 414.919 572.228 415.373C573.038 416.196 574.115 416.692 575.104 417.288C580.16 420.347 582.326 426.1 584.17 431.413C586.187 437.225 588.635 442.163 589.446 448.273C589.628 449.651 589.75 451.236 588.794 452.245C587.988 453.095 586.634 453.22 585.524 452.844C584.416 452.468 583.502 451.679 582.642 450.883C581.524 449.847 580.426 448.741 579.746 447.376C579.17 446.223 578.914 444.921 578.262 443.808C577.486 442.476 576.216 441.523 575.048 440.516C571.654 437.587 569.57 434.067 567.148 430.403C564.704 431.401 562.306 434.584 559.671 435.991C557.37 437.219 553.508 437.657 552.228 440.215C550.966 442.737 551.552 446.387 550.642 449.147C548.619 455.289 543.884 454.419 544.54 447.871C544.923 444.052 546.012 440.305 547.734 436.876" fill="white"/>
<path d="M547.734 436.876L548.33 437.175C548.406 437.023 548.483 436.871 548.563 436.719C550.267 433.455 552.591 430.459 554.426 427.092C555.911 424.357 557.014 421.499 558.592 418.987C560.164 416.477 562.338 414.256 565.031 413.441C565.498 413.299 566.088 413.217 566.71 413.219C568.146 413.208 569.739 413.665 570.507 414.42C570.895 414.784 571.246 415.32 571.754 415.841C572.682 416.777 573.818 417.284 574.761 417.859C577.162 419.312 578.892 421.412 580.262 423.833C581.628 426.252 582.62 428.981 583.54 431.632C585.579 437.495 587.995 442.383 588.784 448.361C588.851 448.857 588.904 449.364 588.904 449.837C588.904 450.663 588.742 451.335 588.31 451.787C587.944 452.175 587.375 452.377 586.739 452.379C586.402 452.379 586.055 452.32 585.738 452.212C584.795 451.896 583.943 451.181 583.095 450.393C581.988 449.371 580.956 448.315 580.342 447.079C579.812 446.037 579.556 444.72 578.838 443.472C577.966 441.987 576.624 441 575.484 440.011C572.19 437.172 570.138 433.721 567.706 430.035L567.403 429.579L566.897 429.785C565.519 430.355 564.282 431.447 563.039 432.545C561.802 433.645 560.567 434.76 559.356 435.403C558.312 435.965 556.778 436.388 555.312 436.988C553.856 437.592 552.399 438.4 551.633 439.916C550.927 441.333 550.767 442.955 550.638 444.539C550.515 446.124 550.427 447.683 550.01 448.939C549.57 450.273 549.002 451.228 548.439 451.821C547.872 452.419 547.339 452.637 546.935 452.635C546.518 452.628 546.135 452.436 545.768 451.869C545.412 451.304 545.143 450.36 545.146 449.057C545.146 448.709 545.164 448.336 545.204 447.937C545.579 444.2 546.645 440.532 548.33 437.175L547.734 436.876L547.138 436.577C545.379 440.08 544.268 443.904 543.878 447.804C543.834 448.244 543.812 448.661 543.812 449.057C543.814 450.536 544.103 451.715 544.638 452.576C545.164 453.435 546.01 453.975 546.935 453.968C547.818 453.967 548.672 453.515 549.407 452.737C550.146 451.956 550.788 450.833 551.275 449.356C551.768 447.852 551.84 446.205 551.967 444.644C552.088 443.084 552.266 441.619 552.825 440.513C553.338 439.472 554.451 438.783 555.82 438.22C557.183 437.656 558.73 437.244 559.984 436.579C561.41 435.815 562.691 434.633 563.925 433.541C565.15 432.447 566.334 431.449 567.4 431.02L567.148 430.403L566.592 430.769C569.002 434.412 571.118 438.003 574.614 441.02C575.809 442.044 577.006 442.965 577.686 444.144C578.27 445.124 578.527 446.408 579.148 447.673C579.896 449.167 581.059 450.323 582.19 451.372C583.06 452.175 584.036 453.039 585.31 453.475C585.766 453.629 586.251 453.712 586.739 453.712C587.646 453.712 588.594 453.423 589.278 452.703C590.054 451.879 590.238 450.813 590.238 449.837C590.238 449.265 590.175 448.703 590.107 448.185C589.274 441.943 586.794 436.956 584.799 431.195C583.875 428.532 582.863 425.728 581.422 423.177C579.983 420.628 578.103 418.323 575.45 416.717C574.413 416.099 573.394 415.616 572.703 414.907C572.315 414.519 571.96 413.969 571.426 413.455C570.231 412.337 568.395 411.896 566.71 411.885C565.976 411.885 565.268 411.975 564.642 412.165C561.494 413.132 559.137 415.617 557.463 418.279C555.797 420.939 554.689 423.825 553.255 426.455C551.494 429.697 549.163 432.699 547.381 436.101C547.299 436.26 547.218 436.417 547.138 436.579L547.734 436.876" fill="#100F0D"/>
<path d="M562.664 448.611H517.363V454.273H520.999L526.328 484.473H553.697L559.028 454.273H562.664V448.611Z" fill="#100F0D"/>
<path d="M519.723 455.412H560.305V454.079H519.723V455.412Z" fill="white"/>
<path d="M520.678 409.639C520.678 410.251 520.183 410.745 519.574 410.745C518.963 410.745 518.468 410.251 518.468 409.639C518.468 409.029 518.963 408.535 519.574 408.535C520.183 408.535 520.678 409.029 520.678 409.639Z" fill="#100F0D"/>
<path d="M530.621 414.06C530.621 414.669 530.128 415.164 529.517 415.164C528.907 415.164 528.412 414.669 528.412 414.06C528.412 413.449 528.907 412.955 529.517 412.955C530.128 412.955 530.621 413.449 530.621 414.06Z" fill="#100F0D"/>
<path d="M528.412 426.213C528.412 426.823 527.918 427.317 527.307 427.317C526.696 427.317 526.202 426.823 526.202 426.213C526.202 425.603 526.696 425.108 527.307 425.108C527.918 425.108 528.412 425.603 528.412 426.213Z" fill="#100F0D"/>
<path d="M535.041 401.905C535.041 402.516 534.547 403.011 533.936 403.011C533.325 403.011 532.832 402.516 532.832 401.905C532.832 401.296 533.325 400.801 533.936 400.801C534.547 400.801 535.041 401.296 535.041 401.905Z" fill="#100F0D"/>
<path d="M521.783 379.807C521.783 380.417 521.288 380.913 520.677 380.913C520.068 380.913 519.573 380.417 519.573 379.807C519.573 379.197 520.068 378.703 520.677 378.703C521.288 378.703 521.783 379.197 521.783 379.807Z" fill="#100F0D"/>
<path d="M537.25 439.472C537.25 440.083 536.756 440.577 536.145 440.577C535.536 440.577 535.041 440.083 535.041 439.472C535.041 438.861 535.536 438.367 536.145 438.367C536.756 438.367 537.25 438.861 537.25 439.472Z" fill="#100F0D"/>
<path d="M527.307 437.261C527.307 437.872 526.812 438.367 526.202 438.367C525.592 438.367 525.098 437.872 525.098 437.261C525.098 436.652 525.592 436.157 526.202 436.157C526.812 436.157 527.307 436.652 527.307 437.261Z" fill="#100F0D"/>
<path d="M526.202 396.381C526.202 396.991 525.707 397.485 525.098 397.485C524.487 397.485 523.992 396.991 523.992 396.381C523.992 395.771 524.487 395.276 525.098 395.276C525.707 395.276 526.202 395.771 526.202 396.381Z" fill="#100F0D"/>
<path d="M343.591 558.667C343.155 558.667 342.723 558.665 342.287 558.66C332.386 558.557 322.563 557.274 312.846 555.331C305.348 553.831 297.912 551.939 290.55 549.893C283.628 547.972 276.343 545.656 271.683 540.189C257.69 523.772 280.507 506.835 292.584 499.759C301.398 494.595 311.716 488.637 322.212 488.637C323.464 488.637 324.718 488.721 325.972 488.903C332.658 489.864 338.942 492.597 345.088 495.396C365.586 504.723 386.063 515.223 408.379 518.241C413.052 518.872 451.834 519.9 450.056 526.219C449.744 527.331 448.831 528.159 447.932 528.887C439.78 535.492 429.623 539.012 419.675 542.352C394.972 550.643 369.623 558.667 343.591 558.667Z" fill="#CFEDD5"/>
<path d="M326.638 505.912C323.379 511.863 328.466 516.156 332.703 520.152C333.862 521.245 335.111 522.284 336.576 522.911C339.11 523.995 341.991 523.737 344.731 523.433C364.407 521.251 384.462 518.596 403.815 514.437C408.368 513.46 412.872 512.263 417.41 511.239C423.311 509.905 429.468 507.329 435.096 505.084C440.823 502.8 446.179 499.583 450.872 495.584L451.115 495.368C451.924 494.877 452.631 494.293 453.2 493.293C455.635 490.519 457.31 487.064 455.912 483.833C454.302 480.111 449.591 479.049 445.547 478.729C433.479 477.772 421.384 479.072 409.456 480.865C401.41 482.076 393.44 483.788 385.362 484.785C377.144 485.8 369.311 484.887 361.142 485.076C347.004 485.401 333.438 493.483 326.638 505.912" fill="#100F0D"/>
<path d="M361.68 476.535C356.687 474.565 351.539 476.411 348.791 470.728C347.796 468.673 347.329 466.411 346.596 464.249C344.329 457.561 339.364 451.831 333.067 448.637C337.981 444.003 344.569 441.693 350.561 438.575C356.056 435.713 361.156 432.097 365.672 427.859C369.831 423.955 376.275 415.576 372.827 409.5C370.052 404.609 363.169 406.135 358.719 407.269C352.524 408.852 347.112 409.148 341.524 412.801C336.141 416.316 331.705 421.071 327.361 425.808C320.576 433.207 305.769 447.676 315.448 458.063C320.927 463.94 326.576 469.573 333.192 474.172C335.055 475.468 336.975 476.701 339.051 477.617C343.16 479.429 344.747 482.772 348.86 484.619C352.285 486.156 355.944 487.268 359.695 487.453C362.475 487.588 366.999 486.941 367.264 483.588C367.515 480.425 364.301 477.568 361.68 476.535" fill="white"/>
<path d="M361.68 476.535L361.924 475.915C359.285 474.88 356.693 474.855 354.536 474.372C353.456 474.135 352.491 473.796 351.641 473.208C350.793 472.617 350.039 471.772 349.391 470.437C348.441 468.484 347.976 466.249 347.228 464.035C344.901 457.177 339.825 451.32 333.368 448.043L333.067 448.637L333.524 449.121C338.295 444.612 344.815 442.308 350.869 439.165C356.419 436.276 361.568 432.625 366.128 428.344C367.832 426.744 369.896 424.428 371.553 421.801C373.205 419.173 374.467 416.232 374.472 413.339C374.473 411.907 374.153 410.485 373.407 409.171C372.603 407.749 371.448 406.793 370.143 406.225C368.836 405.655 367.387 405.451 365.921 405.451C363.327 405.452 360.656 406.088 358.553 406.624C352.447 408.192 346.916 408.488 341.159 412.243C335.688 415.819 331.217 420.619 326.869 425.359C324.281 428.18 320.485 432.071 317.323 436.401C314.167 440.735 311.603 445.516 311.593 450.243C311.587 453.128 312.588 455.979 314.961 458.517C320.449 464.405 326.132 470.076 332.811 474.719C334.688 476.024 336.643 477.283 338.781 478.227C340.724 479.084 342.08 480.304 343.505 481.599C344.928 482.888 346.419 484.253 348.587 485.227C352.064 486.787 355.8 487.928 359.661 488.119C359.892 488.131 360.133 488.136 360.381 488.136C361.836 488.133 363.564 487.937 365.04 487.299C365.777 486.977 366.456 486.54 366.981 485.933C367.507 485.331 367.86 484.549 367.929 483.641C367.94 483.507 367.945 483.373 367.944 483.24C367.94 481.495 367.071 479.928 365.915 478.675C364.753 477.42 363.288 476.455 361.924 475.915L361.68 476.535L361.436 477.156C362.595 477.609 363.929 478.487 364.936 479.579C365.949 480.675 366.616 481.963 366.612 483.24L366.6 483.536C366.547 484.172 366.327 484.648 365.972 485.061C365.444 485.679 364.563 486.133 363.54 486.413C362.52 486.695 361.377 486.804 360.381 486.803C360.155 486.803 359.935 486.797 359.727 486.787C356.088 486.608 352.507 485.525 349.132 484.011C347.187 483.137 345.828 481.908 344.401 480.612C342.979 479.321 341.487 477.963 339.32 477.007C337.308 476.12 335.421 474.911 333.572 473.624C327.02 469.071 321.403 463.475 315.936 457.608C313.779 455.285 312.932 452.827 312.927 450.243C312.916 446.019 315.304 441.416 318.4 437.188C321.488 432.956 325.243 429.104 327.852 426.259C332.193 421.523 336.596 416.815 341.888 413.359C347.308 409.809 352.6 409.511 358.884 407.916C360.961 407.384 363.544 406.781 365.921 406.784C367.264 406.783 368.532 406.975 369.608 407.447C370.685 407.921 371.579 408.657 372.247 409.829C372.869 410.928 373.139 412.1 373.139 413.339C373.145 415.832 372.007 418.587 370.425 421.089C368.848 423.593 366.844 425.844 365.216 427.372C360.745 431.569 355.693 435.151 350.253 437.983C344.323 441.077 337.668 443.393 332.609 448.152L331.919 448.803L332.765 449.231C338.903 452.341 343.757 457.945 345.965 464.463C346.684 466.571 347.151 468.863 348.191 471.019C348.917 472.524 349.836 473.58 350.881 474.303C352.455 475.391 354.24 475.721 356.035 475.989C357.835 476.255 359.668 476.456 361.435 477.155L361.68 476.535" fill="#100F0D"/>
<path d="M431.523 467.46C429.089 470.673 425.028 472.781 421.143 471.873C417.029 470.912 414.319 467.085 412.109 463.485C408.596 457.765 405.317 451.808 403.559 445.331C401.623 438.2 400.712 426.856 407.792 422.116C412.827 418.745 421.057 420.656 424.949 424.967C433.351 434.269 438.912 454.544 432.421 466.089C432.155 466.564 431.855 467.023 431.523 467.46Z" fill="white"/>
<path d="M431.523 467.46L430.991 467.057C429.053 469.624 426.008 471.427 422.996 471.419C422.428 471.419 421.859 471.356 421.295 471.224C419.401 470.781 417.805 469.675 416.393 468.207C414.983 466.741 413.774 464.923 412.678 463.137C409.175 457.435 405.932 451.531 404.201 445.156C403.44 442.351 402.839 438.872 402.84 435.44C402.839 432.867 403.178 430.323 404.014 428.107C404.852 425.888 406.172 424.004 408.163 422.669C409.805 421.569 411.849 421.06 413.989 421.06C417.908 421.052 422.103 422.793 424.455 425.413C430.156 431.707 434.604 443.395 434.592 453.66C434.592 458.16 433.746 462.379 431.842 465.763C431.59 466.211 431.305 466.643 430.991 467.056L431.523 467.46L432.053 467.863C432.404 467.401 432.721 466.917 433.003 466.417C435.055 462.764 435.924 458.324 435.925 453.66C435.912 443.017 431.424 431.161 425.444 424.519C422.76 421.563 418.288 419.736 413.989 419.727C411.643 419.728 409.333 420.283 407.421 421.561C405.165 423.071 403.676 425.219 402.767 427.636C401.855 430.056 401.507 432.752 401.507 435.44C401.507 439.027 402.128 442.604 402.915 445.505C404.703 452.087 408.019 458.096 411.542 463.835C412.655 465.648 413.907 467.544 415.432 469.131C416.955 470.716 418.771 472.004 420.991 472.523C421.659 472.679 422.329 472.752 422.996 472.752C426.541 472.744 429.897 470.704 432.053 467.861L431.523 467.46" fill="#100F0D"/>
<path d="M418.681 410.483C412.453 403.891 405.053 399.049 395.351 399.289C392.736 399.355 390.141 399.783 387.528 399.875C378.36 400.199 369.271 397.911 360.432 401.441C350.999 405.209 342.263 410.596 333.987 416.439C333.321 416.909 349.456 439.044 351.171 441.051C357.847 436.157 356.245 459.208 356.139 462.327C355.877 470.088 355.68 477.933 357.277 485.581C357.665 485.041 358.113 484.464 358.763 484.323C359.551 484.152 360.044 485.1 360.747 485.275C362.245 485.647 364.344 485.259 365.896 485.253C368.861 485.243 371.829 485.255 374.796 485.231C381.631 485.173 388.484 485.145 395.261 484.196C398.805 483.699 402.309 483.195 405.841 483.252C407.7 476.812 407.048 469.059 407.231 462.657C407.423 456.501 406.928 450.469 407.401 444.339C416.139 442.181 424.723 439.405 433.069 436.039C433.572 435.837 429.072 425.603 428.58 424.616C426.661 420.772 424.361 417.107 421.612 413.801C420.663 412.659 419.688 411.548 418.681 410.483Z" fill="#100F0D"/>
<path d="M370.042 525.421C368.775 526.691 342.1 532.543 342.1 532.543L340.846 518.984L365.664 510.1L370.042 525.421Z" fill="white"/>
<path d="M370.041 525.421L369.569 524.951L369.739 525.119L369.589 524.933L369.569 524.951L369.739 525.119L369.589 524.933L369.565 524.948C369.487 524.997 369.269 525.1 368.973 525.211C367.847 525.64 365.557 526.288 362.805 526.997C358.671 528.064 353.456 529.288 349.277 530.245C347.188 530.724 345.359 531.136 344.051 531.428C342.743 531.72 341.96 531.891 341.957 531.892L342.1 532.543L342.764 532.481L341.556 519.437L365.219 510.968L369.4 525.605L370.041 525.421L369.569 524.951L370.041 525.421L370.683 525.239L366.109 509.232L340.133 518.531L341.505 533.356L342.243 533.195C342.245 533.193 348.916 531.729 355.749 530.107C359.167 529.295 362.624 528.444 365.316 527.713C366.663 527.348 367.816 527.013 368.687 526.725C369.123 526.58 369.487 526.448 369.78 526.324C369.927 526.263 370.055 526.201 370.172 526.137L370.513 525.893L370.791 525.616L370.683 525.239L370.041 525.421" fill="#100F0D"/>
<path d="M437.532 509.227C440.65 507.445 443.764 505.656 447.118 504.393C450.672 503.053 454.614 502.233 457.352 499.6C460.251 496.812 461.166 492.603 461.942 488.657C462.803 484.276 462.788 479.347 461.583 475.024C459.864 468.861 454.88 463.689 448.59 462.263C444.803 461.404 440.719 461.905 437.251 463.653C434.695 464.943 432.502 466.861 429.974 468.209C427.866 469.335 425.566 470.041 423.339 470.909C416.572 473.544 410.346 477.484 404.183 481.212C397.987 484.96 392.44 489.664 386.45 493.713C384.084 495.312 359.232 507.376 359.236 507.384C362.458 514.56 365.272 521.939 368.22 529.255C384.291 527.08 399.779 522.025 415.407 517.825C418.507 516.992 421.387 515.747 424.491 515.039C427.995 514.241 431.275 512.695 434.415 510.981C435.462 510.411 436.496 509.819 437.532 509.227" fill="#100F0D"/>
<path d="M341.196 533.968C336.279 534.941 331.341 533.889 326.037 533.317C321.903 532.872 317.661 533.633 313.551 533C308.063 532.155 303.797 528.272 303.393 522.785C303.165 519.697 303.052 516.247 305.088 513.915C306.756 512.005 309.512 511.371 312.036 511.601C314.56 511.832 316.948 512.8 319.344 513.624C323.444 515.032 327.665 516.044 331.9 516.945C335.332 517.676 338.283 519.38 341.685 517.695C341.867 517.604 342.075 517.505 342.267 517.572C342.472 517.644 342.569 517.875 342.643 518.081C343.856 521.488 344.947 524.94 345.915 528.425C346.417 530.237 347.251 531.287 345.764 532.409C344.591 533.295 342.609 533.689 341.196 533.968" fill="#100F0D"/>
<path d="M394.355 525.421C395.622 526.691 422.296 532.543 422.296 532.543L423.551 518.984L398.732 510.1L394.355 525.421Z" fill="white"/>
<path d="M394.355 525.421L393.883 525.893L394.224 526.137C394.665 526.376 395.355 526.619 396.32 526.92C399.668 527.96 406.109 529.523 411.735 530.833C417.357 532.141 422.151 533.193 422.153 533.195L422.889 533.356L424.263 518.531L398.287 509.232L393.605 525.616L393.883 525.893L394.355 525.421L394.995 525.605L399.177 510.968L422.839 519.437L421.632 532.481L422.296 532.543L422.439 531.892C422.435 531.891 420.773 531.527 418.255 530.959C414.476 530.107 408.779 528.797 403.913 527.585C401.481 526.98 399.256 526.397 397.591 525.911C396.759 525.667 396.065 525.447 395.567 525.264C395.317 525.173 395.116 525.092 394.98 525.027L394.831 524.949L394.805 524.932L394.697 525.079L394.825 524.951L394.805 524.932L394.697 525.079L394.825 524.951L394.355 525.421L394.995 525.605L394.355 525.421" fill="#100F0D"/>
<path d="M325.958 510.812C320.819 508.872 315.832 506.593 311.122 503.755C309.538 502.801 307.959 501.756 306.828 500.293C305.226 498.22 304.691 495.54 304.202 492.968C302.38 483.377 299.798 476.071 306.75 467.924C312.408 461.293 321.491 458.719 329.187 463.512C334.186 466.624 337.54 472.264 343.092 474.224C346.084 475.281 349.5 475.071 352.391 476.408C355.05 477.639 357.676 479.677 360.215 481.212C366.411 484.96 371.958 489.664 377.948 493.713C380.312 495.312 405.164 507.376 405.162 507.384C401.939 514.56 399.124 521.939 396.176 529.255C380.106 527.08 364.619 522.025 348.99 517.825C341.251 515.747 333.444 513.639 325.958 510.812" fill="#100F0D"/>
<path d="M423.199 533.968C428.118 534.941 433.054 533.889 438.359 533.317C442.494 532.872 446.736 533.633 450.846 533C456.043 532.199 461.97 527.041 462.203 521.528C462.276 519.808 461.824 518.1 461.175 516.505C460.832 515.665 460.428 514.843 459.868 514.129C458.606 512.524 456.598 511.599 454.564 511.411C451.451 511.121 448.327 512.128 445.376 512.991C442.335 513.88 439.534 514.36 436.591 515.629C432.812 517.261 428.586 517.844 424.506 517.295C423.443 517.151 422.346 516.935 421.316 517.236C419.008 517.911 419.24 521.389 419.063 523.295C418.796 526.164 418.656 529.109 417.498 531.793C419.41 532.916 421.304 533.592 423.199 533.968" fill="#100F0D"/>
<path d="M411.304 422.471L411.299 422.356C411.231 421.231 411.164 420.105 411.096 418.981C411.062 418.401 411.028 417.815 411.12 417.241C411.404 415.484 412.798 414.149 414.114 412.953C415.107 412.049 423.49 403.865 424.131 404.337C426.748 406.323 428.358 404.544 430.267 402.511C430.852 401.888 431.444 401.153 431.423 400.301C431.402 399.447 430.376 398.648 429.687 399.151C431.204 397.471 432.682 395.752 434.115 394C435.378 392.457 436.63 391.509 435.768 389.465C434.383 386.176 431.494 383.696 428.287 382.131C425.748 380.891 421.688 379.152 418.802 379.365C415.619 379.6 413.975 382.287 411.584 383.923C411.478 383.995 411.362 384.068 411.235 384.06C411.084 384.049 410.968 383.925 410.855 383.823C409.975 383.019 408.515 383.175 407.558 383.885C406.6 384.596 406.047 385.719 405.614 386.829C405.336 387.541 405.09 388.307 405.234 389.059C405.376 389.808 406.044 390.511 406.804 390.428C406.206 390.521 405.216 395.06 405.054 395.639C404.242 398.521 402.466 400.139 400.45 402.365C398.632 404.373 396.439 406.547 393.735 406.427C392.534 406.375 391.042 405.972 390.351 406.956C390.118 407.288 390.054 407.708 390.02 408.113C389.538 414.048 393.359 419.312 398.138 422.432C400.644 424.069 411.535 428.535 411.304 422.471" fill="white"/>
<path d="M411.304 422.471L411.969 422.44L411.964 422.325V422.316C411.896 421.191 411.829 420.065 411.761 418.941C411.744 418.64 411.727 418.349 411.727 418.073C411.727 417.819 411.741 417.576 411.777 417.347C411.896 416.615 412.249 415.945 412.755 415.297C413.259 414.651 413.908 414.04 414.561 413.447C415.067 412.987 417.28 410.843 419.512 408.797C420.625 407.777 421.74 406.785 422.628 406.059C423.071 405.696 423.459 405.4 423.747 405.205C423.889 405.109 424.009 405.039 424.084 405.003L424.148 404.975L424.059 404.699V404.984L424.148 404.975L424.059 404.699V404.984V404.435L423.736 404.875C423.867 404.971 423.997 404.985 424.059 404.984V404.435L423.736 404.875L424.131 404.337L423.727 404.868C424.607 405.539 425.467 405.871 426.3 405.869C427.237 405.869 428.044 405.456 428.745 404.912C429.452 404.364 430.092 403.668 430.753 402.967C431.052 402.647 431.372 402.284 431.632 401.855C431.889 401.428 432.091 400.92 432.091 400.344L432.089 400.288V400.284C432.072 399.74 431.827 399.277 431.492 398.931C431.155 398.589 430.705 398.335 430.165 398.328C429.872 398.327 429.555 398.419 429.293 398.612L429.687 399.151L430.181 399.597C431.707 397.909 433.191 396.183 434.631 394.423C435.096 393.852 435.587 393.344 435.993 392.771C436.396 392.204 436.721 391.528 436.719 390.723C436.719 390.244 436.608 389.74 436.383 389.207C434.909 385.719 431.888 383.149 428.579 381.531C427.367 380.939 425.809 380.233 424.179 379.671C422.547 379.109 420.848 378.684 419.303 378.681C419.117 378.681 418.933 378.688 418.752 378.701C416.975 378.829 415.621 379.661 414.473 380.603C413.321 381.549 412.323 382.613 411.207 383.373L411.209 383.372L411.143 383.413L411.253 383.649V383.393L411.143 383.413L411.253 383.649V383.393V383.72L411.271 383.395L411.253 383.393V383.72L411.271 383.395L411.235 384.06L411.28 383.395L411.257 383.733L411.392 383.421L411.28 383.395L411.257 383.733L411.392 383.421L411.316 383.596L411.421 383.437L411.392 383.421L411.316 383.596L411.421 383.437L411.393 383.413L411.303 383.329L411.304 383.331C410.752 382.825 410.044 382.615 409.363 382.616C408.572 382.619 407.793 382.883 407.16 383.351C406.029 384.197 405.443 385.444 404.992 386.587C404.765 387.176 404.527 387.848 404.524 388.6C404.524 388.791 404.54 388.987 404.579 389.184C404.675 389.68 404.919 390.131 405.273 390.485C405.624 390.836 406.113 391.1 406.681 391.101L406.873 391.091L406.804 390.428L406.701 389.769C406.463 389.811 406.323 389.924 406.225 390.015C406.047 390.192 405.955 390.364 405.852 390.565C405.519 391.252 405.211 392.329 404.943 393.337C404.68 394.333 404.467 395.265 404.412 395.457C404.031 396.807 403.435 397.844 402.673 398.843C401.911 399.841 400.975 400.792 399.955 401.919C399.08 402.885 398.133 403.869 397.124 404.589C396.113 405.313 395.065 405.765 393.948 405.765L393.764 405.761C393.257 405.741 392.623 405.637 391.971 405.635C391.597 405.636 391.212 405.669 390.829 405.804C390.448 405.936 390.071 406.191 389.805 406.572C389.453 407.083 389.395 407.625 389.355 408.057V408.059C389.325 408.417 389.312 408.773 389.312 409.125C389.312 412.035 390.276 414.752 391.809 417.109C393.344 419.467 395.449 421.473 397.772 422.991C398.627 423.545 400.229 424.329 402.085 425.001C403.941 425.669 406.021 426.219 407.833 426.221C408.907 426.219 409.915 426.031 410.711 425.452C411.515 424.875 411.987 423.881 411.973 422.657L411.969 422.445V422.44L411.304 422.471L410.637 422.495L410.64 422.657C410.628 423.589 410.357 424.045 409.921 424.377C409.48 424.708 408.749 424.891 407.833 424.888C406.293 424.892 404.304 424.388 402.539 423.748C400.775 423.113 399.204 422.335 398.501 421.875C396.32 420.451 394.345 418.563 392.927 416.381C391.508 414.2 390.645 411.736 390.645 409.125C390.645 408.809 390.657 408.489 390.684 408.167V408.169C390.712 407.791 390.781 407.492 390.896 407.339C390.999 407.197 391.103 407.125 391.275 407.061C391.445 407 391.685 406.968 391.971 406.968C392.472 406.967 393.088 407.064 393.705 407.093L393.948 407.099C395.437 407.099 396.756 406.495 397.901 405.673C399.049 404.851 400.049 403.8 400.944 402.813C401.939 401.712 402.899 400.741 403.732 399.653C404.564 398.565 405.264 397.352 405.695 395.819C405.745 395.639 405.833 395.261 405.959 394.752C406.145 393.996 406.404 392.981 406.665 392.168C406.795 391.764 406.927 391.408 407.035 391.183L407.153 390.973V390.972L406.841 390.673L406.905 391.087C407.091 391.052 407.144 390.977 407.153 390.972L406.841 390.673L406.905 391.087L406.733 389.765L406.681 389.768C406.543 389.769 406.375 389.7 406.213 389.54C406.053 389.384 405.927 389.147 405.888 388.933L405.857 388.6C405.855 388.149 406.019 387.619 406.235 387.071C406.652 385.993 407.171 384.996 407.955 384.42C408.347 384.127 408.883 383.947 409.363 383.949C409.781 383.951 410.14 384.073 410.404 384.315L410.408 384.319L410.405 384.316L410.639 384.515C410.753 384.599 410.939 384.707 411.188 384.725H411.193H411.197L411.253 384.727C411.64 384.716 411.845 384.543 411.957 384.475L411.96 384.473C413.236 383.597 414.255 382.499 415.317 381.635C416.385 380.765 417.445 380.136 418.849 380.031C418.996 380.02 419.147 380.015 419.303 380.015C420.599 380.012 422.193 380.393 423.744 380.931C425.297 381.467 426.812 382.152 427.993 382.729C431.099 384.244 433.856 386.633 435.153 389.724C435.324 390.131 435.385 390.451 435.385 390.723C435.384 391.171 435.225 391.54 434.904 392.001C434.584 392.457 434.105 392.96 433.599 393.577C432.172 395.323 430.703 397.031 429.192 398.704L424.871 403.488L430.079 399.689L430.165 399.661C430.231 399.656 430.401 399.719 430.537 399.861C430.676 400.001 430.757 400.191 430.757 400.319L430.756 400.313L430.757 400.344C430.757 400.603 430.667 400.872 430.489 401.167C430.315 401.46 430.056 401.761 429.781 402.053C429.12 402.76 428.509 403.411 427.931 403.857C427.345 404.308 426.829 404.537 426.3 404.536C425.825 404.536 425.265 404.359 424.533 403.807L424.529 403.803L424.524 403.8C424.357 403.677 424.18 403.651 424.059 403.651C423.791 403.66 423.653 403.735 423.492 403.808C423.203 403.952 422.889 404.168 422.512 404.452C421.207 405.437 419.207 407.251 417.412 408.923C415.624 410.589 414.04 412.119 413.665 412.46C413.003 413.063 412.297 413.717 411.704 414.477C411.112 415.235 410.628 416.109 410.461 417.135C410.409 417.456 410.393 417.771 410.393 418.073C410.393 418.403 410.412 418.72 410.431 419.023C410.499 420.145 410.565 421.271 410.633 422.396L411.299 422.356L410.632 422.385L410.637 422.5V422.495L411.304 422.471" fill="#100F0D"/>
<path d="M409.636 492.428H341.36C340.137 492.428 339.146 491.437 339.146 490.215V449.025C339.146 447.803 340.137 446.811 341.36 446.811H409.636C410.859 446.811 411.85 447.803 411.85 449.025V490.215C411.85 491.437 410.859 492.428 409.636 492.428Z" fill="#EE282C"/>
<path d="M379.774 468.195C379.774 470.556 377.86 472.472 375.498 472.472C373.136 472.472 371.22 470.556 371.22 468.195C371.22 465.832 373.136 463.917 375.498 463.917C377.86 463.917 379.774 465.832 379.774 468.195Z" fill="#100F0D"/>
<path d="M434.235 390.969C434.008 391.827 433.498 392.58 432.94 393.317C430.452 396.616 426.836 400.767 423.212 402.828C423.076 402.907 422.935 402.971 422.799 403.045C421.816 399.66 420.586 396.307 417.48 394.309C414.755 392.557 411.532 392.287 408.406 392.701C409.523 388.008 413.11 380.811 418.596 380.743C420.632 380.716 422.562 381.657 424.23 382.825C425.896 383.992 427.386 385.401 429.091 386.512C431.015 387.763 435.027 387.985 434.235 390.969ZM415.415 401.381C414.2 401.096 412.866 400.713 411.864 399.945C411.144 399.392 411.976 398.224 412.664 398.795C413.502 399.488 414.742 399.756 415.77 400.037C416.539 400.248 416.18 401.56 415.415 401.381V401.381ZM442.28 381.405C442.212 380.959 442.096 380.516 441.931 380.092C441.495 378.969 440.726 377.979 439.663 377.429C438.84 377.004 437.903 376.861 436.979 376.784C435.903 376.693 434.819 376.679 433.742 376.74C432.702 376.8 431.663 376.929 430.626 376.861C429.004 376.756 427.456 376.175 425.939 375.595C424.42 375.016 422.878 374.424 421.258 374.3C417.895 374.039 415.511 376.601 413.487 378.972C411.218 381.628 409.494 384.693 407.844 387.756C404.647 393.691 403.671 401.037 409.695 405.651C417.587 411.695 426.987 403.451 432.89 398.412C434.098 397.38 435.463 396.695 436.55 395.483C437.748 394.149 438.667 392.588 439.511 391.015C440.332 389.479 441.1 387.908 441.659 386.257C442.188 384.697 442.527 383.032 442.28 381.405" fill="#100F0D"/>
<path d="M422.527 406.665C422.693 406.253 422.871 405.849 423.063 405.451C424.544 402.365 427.821 401.084 430.373 398.897C431.951 397.544 433.559 396.479 435.199 395.224C435.985 394.623 436.633 393.713 437.455 393.211C437.981 392.888 438.725 392.829 439.184 393.245C439.544 393.572 439.643 394.093 439.676 394.58C439.885 397.757 438.113 400.216 436.564 402.775C435.209 405.011 433.081 406.415 431.665 408.584C430.273 410.717 430.5 413.483 430.779 416.016C431.248 420.268 431.715 424.523 432.183 428.776C432.621 432.756 433.62 436.1 434.575 439.957C436.04 445.883 435.943 452.769 436.057 458.843C436.173 464.936 432.143 472.243 425.811 473.521C413.084 476.091 415.855 458.116 415.515 450.895C415.244 445.149 416.619 439.283 417.92 433.748C419.283 427.957 419.421 421.973 420.268 416.103C420.723 412.951 421.315 409.652 422.527 406.665" fill="white"/>
<path d="M422.527 406.665L423.144 406.916C423.306 406.516 423.479 406.124 423.664 405.739C424.335 404.341 425.423 403.328 426.714 402.373C427.999 401.42 429.472 400.545 430.808 399.403C432.344 398.084 433.94 397.025 435.604 395.753C436.494 395.056 437.14 394.168 437.803 393.78C437.966 393.679 438.183 393.616 438.36 393.617C438.536 393.619 438.656 393.667 438.736 393.739C438.875 393.847 438.988 394.184 439.011 394.624C439.022 394.781 439.027 394.939 439.027 395.093C439.026 396.431 438.65 397.641 438.076 398.839C437.504 400.035 436.735 401.205 435.994 402.429C434.754 404.509 432.635 405.908 431.107 408.219C430.156 409.679 429.903 411.357 429.903 412.999C429.903 414.049 430.007 415.096 430.116 416.088C430.586 420.341 431.052 424.595 431.52 428.849C431.967 432.901 432.979 436.281 433.927 440.117C435.367 445.921 435.279 452.768 435.391 458.855L435.394 459.1C435.396 461.973 434.431 465.156 432.72 467.735C431.01 470.319 428.583 472.283 425.679 472.868C424.879 473.029 424.152 473.104 423.494 473.104C421.819 473.1 420.595 472.636 419.624 471.849C418.172 470.675 417.272 468.663 416.767 466.232C416.259 463.808 416.142 461.001 416.143 458.332C416.143 456.237 416.214 454.228 416.214 452.528C416.214 451.932 416.204 451.375 416.18 450.863C416.158 450.379 416.147 449.893 416.147 449.407C416.146 444.247 417.379 438.957 418.57 433.9C419.951 428.019 420.087 422.016 420.928 416.197C421.379 413.061 421.968 409.815 423.144 406.916L422.527 406.665L421.908 406.415C420.663 409.491 420.066 412.839 419.608 416.008C418.758 421.932 418.615 427.895 417.272 433.595C416.083 438.653 414.815 444.036 414.814 449.407C414.814 449.913 414.824 450.42 414.848 450.925C414.871 451.408 414.88 451.945 414.88 452.528C414.88 454.192 414.81 456.209 414.81 458.332C414.812 461.945 415.004 465.86 416.16 468.973C416.74 470.529 417.572 471.897 418.783 472.884C419.99 473.872 421.568 474.441 423.494 474.437C424.252 474.437 425.067 474.351 425.943 474.175C429.283 473.497 431.98 471.271 433.832 468.471C435.687 465.664 436.724 462.267 436.727 459.1L436.724 458.829C436.607 452.771 436.715 445.844 435.222 439.797C434.262 435.92 433.275 432.612 432.846 428.703C432.378 424.449 431.911 420.195 431.442 415.943C431.334 414.961 431.236 413.961 431.236 412.999C431.236 411.488 431.476 410.092 432.224 408.948C433.527 406.92 435.667 405.511 437.134 403.12C437.858 401.924 438.652 400.721 439.279 399.415C439.904 398.109 440.36 396.688 440.36 395.093C440.36 394.909 440.354 394.724 440.342 394.536C440.299 394.003 440.214 393.297 439.631 392.751C439.26 392.415 438.791 392.283 438.36 392.284C437.911 392.285 437.48 392.415 437.107 392.643C436.126 393.259 435.478 394.188 434.795 394.695C433.178 395.932 431.556 397.005 429.94 398.391C428.723 399.436 427.282 400.296 425.92 401.301C424.563 402.305 423.272 403.475 422.462 405.161C422.264 405.573 422.08 405.991 421.908 406.415L422.527 406.665" fill="#100F0D"/>
<path d="M422.48 467.095C422.499 467.632 422.475 468.14 422.399 468.592C422.207 469.711 421.415 470.809 420.292 470.981C419.095 471.164 418.012 470.285 417.196 469.389C413.952 465.819 412.276 461.191 412.328 456.392C412.343 455.029 412.487 453.593 413.272 452.48C414.059 451.367 415.678 450.74 416.838 451.456C417.622 451.939 417.992 452.865 418.312 453.729C419.392 456.639 420.472 459.549 421.551 462.46C422.018 463.715 422.427 465.521 422.48 467.095" fill="white"/>
<path d="M426.987 468.203C426.378 468.599 425.706 468.881 424.972 468.8C424.43 468.74 424.355 469.58 424.847 469.724C425.942 470.045 426.97 469.795 427.662 468.876C427.963 468.477 427.382 467.947 426.987 468.203" fill="#100F0D"/>
<path d="M317.251 451.795C316.706 451.28 316.355 450.553 316.468 449.787C316.551 449.221 316.327 448.664 315.734 448.493C315.24 448.353 314.524 448.667 314.442 449.228C314.219 450.747 314.628 452.208 315.764 453.28C316.748 454.207 318.238 452.724 317.251 451.795Z" fill="#100F0D"/>
<path d="M357.175 521.805C363.833 523.432 370.56 524.784 377.329 525.86L377.539 524.544C370.805 523.473 364.115 522.128 357.492 520.509L357.175 521.805" fill="white"/>
<path d="M402.62 515.081C403.521 512.98 404.472 510.899 405.468 508.84L405.743 508.275L405.195 507.968C396.561 503.127 388.132 497.955 379.559 492.955L378.887 494.107C387.444 499.097 395.879 504.272 404.543 509.131L404.868 508.549L404.268 508.259C403.263 510.336 402.304 512.436 401.395 514.556L402.62 515.081" fill="white"/>
<path d="M346.417 516.072C340.155 514.571 334.003 512.607 328.028 510.201L327.529 511.439C333.565 513.868 339.78 515.852 346.107 517.368L346.417 516.072Z" fill="white"/>
</svg>
