<?xml version="1.0" encoding="UTF-8" standalone="no"?>
<svg
   xmlns:dc="http://purl.org/dc/elements/1.1/"
   xmlns:cc="http://creativecommons.org/ns#"
   xmlns:rdf="http://www.w3.org/1999/02/22-rdf-syntax-ns#"
   xmlns:svg="http://www.w3.org/2000/svg"
   xmlns="http://www.w3.org/2000/svg"
   viewBox="0 0 666.66669 496.81332"
   height="496.81332"
   width="666.66669"
   xml:space="preserve"
   id="svg2"
   version="1.1"><metadata
     id="metadata8"><rdf:RDF><cc:Work
         rdf:about=""><dc:format>image/svg+xml</dc:format><dc:type
           rdf:resource="http://purl.org/dc/dcmitype/StillImage" /></cc:Work></rdf:RDF></metadata><defs
     id="defs6" /><g
     transform="matrix(1.3333333,0,0,-1.3333333,0,496.81333)"
     id="g10"><g
       transform="scale(0.1)"
       id="g12"><path
         id="path14"
         style="fill:#e7e8e5;fill-opacity:1;fill-rule:nonzero;stroke:none"
         d="m 0,449.129 h 5000 v 2.5 H 0 Z" /><path
         id="path16"
         style="fill:#e7e8e5;fill-opacity:1;fill-rule:nonzero;stroke:none"
         d="m 4337.96,342.699 h -331.22 v 2.5 h 331.22 v -2.5" /><path
         id="path18"
         style="fill:#e7e8e5;fill-opacity:1;fill-rule:nonzero;stroke:none"
         d="m 3043.82,346.449 h 86.93 v -2.5 h -86.93 v 2.5" /><path
         id="path20"
         style="fill:#e7e8e5;fill-opacity:1;fill-rule:nonzero;stroke:none"
         d="m 4499.01,288.172 h -191.92 v 2.5 h 191.92 v -2.5" /><path
         id="path22"
         style="fill:#e7e8e5;fill-opacity:1;fill-rule:nonzero;stroke:none"
         d="m 714.137,257.551 h 431.933 v -2.5 H 714.137 v 2.5" /><path
         id="path24"
         style="fill:#e7e8e5;fill-opacity:1;fill-rule:nonzero;stroke:none"
         d="m 1045.56,366.73 h 63.33 v -2.5 h -63.33 v 2.5" /><path
         id="path26"
         style="fill:#e7e8e5;fill-opacity:1;fill-rule:nonzero;stroke:none"
         d="m 1875.46,356.059 h 608.98 v -2.5 h -608.98 v 2.5" /><path
         id="path28"
         style="fill:#e7e8e5;fill-opacity:1;fill-rule:nonzero;stroke:none"
         d="m 439.152,3723.59 c -30.101,0 -54.582,-24.48 -54.582,-54.57 V 954.699 c 0,-30.097 24.481,-54.578 54.582,-54.578 H 2370.14 c 30.09,0 54.57,24.481 54.57,54.578 V 3669.02 c 0,30.09 -24.48,54.57 -54.57,54.57 H 439.152 M 2370.14,897.621 H 439.152 c -31.476,0 -57.082,25.598 -57.082,57.078 V 3669.02 c 0,31.46 25.606,57.07 57.082,57.07 H 2370.14 c 31.46,0 57.07,-25.61 57.07,-57.07 V 954.699 c 0,-31.48 -25.61,-57.078 -57.07,-57.078" /><path
         id="path30"
         style="fill:#e7e8e5;fill-opacity:1;fill-rule:nonzero;stroke:none"
         d="m 2602.12,3723.59 c -30.09,0 -54.57,-24.48 -54.57,-54.57 V 954.699 c 0,-30.097 24.48,-54.578 54.57,-54.578 H 4533.1 c 30.1,0 54.59,24.481 54.59,54.578 V 3669.02 c 0,30.09 -24.49,54.57 -54.59,54.57 H 2602.12 M 4533.1,897.621 H 2602.12 c -31.47,0 -57.07,25.598 -57.07,57.078 V 3669.02 c 0,31.46 25.6,57.07 57.07,57.07 H 4533.1 c 31.48,0 57.09,-25.61 57.09,-57.07 V 954.699 c 0,-31.48 -25.61,-57.078 -57.09,-57.078" /><path
         id="path32"
         style="fill:#ededeb;fill-opacity:1;fill-rule:nonzero;stroke:none"
         d="m 711.109,1823.39 h 3577.78 V 3312.28 H 711.109 Z" /><path
         id="path34"
         style="fill:#fafaf9;fill-opacity:1;fill-rule:nonzero;stroke:none"
         d="m 781.113,1893.39 h 3437.78 V 3242.28 H 781.113 Z" /><path
         id="path36"
         style="fill:#ffffff;fill-opacity:1;fill-rule:nonzero;stroke:none"
         d="m 1233.67,1893.39 352.66,1348.9 h 260 l -352.66,-1348.9 h -260" /><path
         id="path38"
         style="fill:#ffffff;fill-opacity:1;fill-rule:nonzero;stroke:none"
         d="m 1553.67,1893.39 352.66,1348.9 h 116.32 L 1670,1893.39 h -116.33" /><path
         id="path40"
         style="fill:#ffffff;fill-opacity:1;fill-rule:nonzero;stroke:none"
         d="m 2122.74,1893.39 352.65,1348.9 h 260 l -352.65,-1348.9 h -260" /><path
         id="path42"
         style="fill:#ffffff;fill-opacity:1;fill-rule:nonzero;stroke:none"
         d="m 2778.29,1893.39 352.65,1348.9 h 116.33 l -352.65,-1348.9 h -116.33" /><path
         id="path44"
         style="fill:#dadbd8;fill-opacity:1;fill-rule:nonzero;stroke:none"
         d="m 1684.31,1893.39 h 17.7695 V 3242.28 H 1684.31 Z" /><path
         id="path46"
         style="fill:#dadbd8;fill-opacity:1;fill-rule:nonzero;stroke:none"
         d="m 781.113,1893.39 h 17.7773 V 3242.28 H 781.113 Z" /><path
         id="path48"
         style="fill:#ededeb;fill-opacity:1;fill-rule:nonzero;stroke:none"
         d="m 1614.31,1893.39 h 70 v 1348.89 h -70 z" /><path
         id="path50"
         style="fill:#dadbd8;fill-opacity:1;fill-rule:nonzero;stroke:none"
         d="m 2552.23,1893.39 v 1348.9 H 2570 v -1348.9 h -17.77" /><path
         id="path52"
         style="fill:#ededeb;fill-opacity:1;fill-rule:nonzero;stroke:none"
         d="m 2552.23,1893.39 v 1348.9 h -70.01 v -1348.9 h 70.01" /><path
         id="path54"
         style="fill:#dadbd8;fill-opacity:1;fill-rule:nonzero;stroke:none"
         d="m 3420.56,1893.39 h 17.7734 V 3242.28 H 3420.56 Z" /><path
         id="path56"
         style="fill:#ededeb;fill-opacity:1;fill-rule:nonzero;stroke:none"
         d="m 3350.56,1893.39 h 70 v 1348.89 h -70 z" /><path
         id="path58"
         style="fill:#dadbd8;fill-opacity:1;fill-rule:nonzero;stroke:none"
         d="m 4288.89,1823.39 h 17.7695 V 3312.28 H 4288.89 Z" /><path
         id="path60"
         style="fill:#dadbd8;fill-opacity:1;fill-rule:nonzero;stroke:none"
         d="M 4346.67,3414.5 H 653.336 c -8.559,0 -15.559,7 -15.559,15.56 0,8.56 7,15.56 15.559,15.56 H 4346.67 c 8.55,0 15.55,-7 15.55,-15.56 0,-8.56 -7,-15.56 -15.55,-15.56" /><path
         id="path62"
         style="fill:#f9f9f8;fill-opacity:1;fill-rule:nonzero;stroke:none"
         d="m 1423.33,758.949 h -135.9 l -0.42,137.789 c 0.15,0.301 0.28,0.582 0.43,0.883 h 135.89 V 758.949 m 0,141.172 h -134.68 c 52.19,107.339 100.26,219.139 124.49,308.799 3.34,12.37 6.74,26.24 10.19,41.42 V 900.121 m 0,2412.169 h -143.71 l -0.31,102.21 h 144.02 v -102.21" /><path
         id="path64"
         style="fill:#eeeeec;fill-opacity:1;fill-rule:nonzero;stroke:none"
         d="m 1423.33,897.621 h -135.89 c 0.4,0.82 0.81,1.68 1.21,2.5 h 134.68 v -2.5" /><path
         id="path66"
         style="fill:#f0f0ee;fill-opacity:1;fill-rule:nonzero;stroke:none"
         d="m 1423.33,3242.29 h -143.49 l -0.22,70 h 143.71 v -70" /><path
         id="path68"
         style="fill:#f6f6f4;fill-opacity:1;fill-rule:nonzero;stroke:none"
         d="m 1283.38,2083.52 -0.92,301.46 c 14.01,-84.4 18.09,-143.63 18.09,-201.92 0,-11.84 -0.17,-23.65 -0.46,-35.62 l -16.71,-63.92 m -1.61,525.24 -0.88,289.62 c 2,-16.07 7.43,-35.02 17.45,-56.93 32.73,-71.49 14.61,-169.98 14.61,-169.98 0,0 9.98,-2.87 27.74,-6.29 6.84,12.86 16.55,33.58 18.31,50.68 -1.39,-24.14 -5.55,-42.54 -8.23,-52.34 13.81,-2.31 30.98,-4.61 50.79,-6.12 -3.76,-15.48 -9.91,-28.7 -19.31,-37.67 v 0 c -36.97,-1.78 -73.45,-6.62 -100.48,-10.97 m -0.96,315.9 -0.97,317.63 h 143.49 v -174.91 c -49.88,-9.16 -96.03,-39.64 -116.67,-103.03 -12.56,-5.76 -22.93,-18.86 -25.85,-39.69" /><path
         id="path70"
         style="fill:#f9f9f8;fill-opacity:1;fill-rule:nonzero;stroke:none"
         d="m 1283.47,2055.8 -0.09,27.72 16.71,63.92 c -0.25,-10.29 -0.58,-20.7 -0.97,-31.36 h -0.44 c -2.53,0 -4.77,-1.03 -5.53,-2.55 l -8.69,-30.4 c -1.19,-2.36 1.61,-4.76 5.53,-4.76 h 1.54 c -2.91,-7.23 -5.59,-14.75 -8.06,-22.57" /><path
         id="path72"
         style="fill:#f9f9f8;fill-opacity:1;fill-rule:nonzero;stroke:none"
         d="m 1257.02,758.949 h -40.25 c 13.28,25.063 26.9,51.231 40.49,78.02 l -0.24,-78.02 m -180.59,102.86 -0.23,35.812 h 12.35 c -4.05,-11.949 -8.1,-23.922 -12.12,-35.812 m 12.96,38.312 h -13.2 l -5.86,923.269 h 184.93 c -5.05,-200.49 9.78,-445.72 -63.19,-631.79 -21.85,-55.72 -62.53,-173.11 -102.68,-291.479 m 175.69,2412.169 h -204.19 l -0.64,102.21 h 205.15 l -0.32,-102.21" /><path
         id="path74"
         style="fill:#eeeeec;fill-opacity:1;fill-rule:nonzero;stroke:none"
         d="m 1088.55,897.621 h -12.35 l -0.01,2.5 h 13.2 c -0.28,-0.84 -0.56,-1.672 -0.84,-2.5" /><path
         id="path76"
         style="fill:#f0f0ee;fill-opacity:1;fill-rule:nonzero;stroke:none"
         d="m 1255.26,1823.39 h -184.93 l -0.44,70 h 188.23 c -1.36,-22.58 -2.25,-45.95 -2.86,-70 m 9.6,1418.9 h -203.52 l -0.45,70 h 204.19 l -0.22,-70" /><path
         id="path78"
         style="fill:#f6f6f4;fill-opacity:1;fill-rule:nonzero;stroke:none"
         d="m 1233.67,1893.39 h -163.78 l -8.55,1348.9 h 203.52 l -2.01,-636.75 c -6.97,-1.25 -12.7,-2.35 -16.89,-3.18 -2.63,-0.29 -5.28,-0.82 -7.93,-1.63 v 0 0 0 0 0 c -34.03,-10.35 -74.89,-127.51 -74.89,-127.51 v 0 0 l 22.93,-16.4 c -8.97,-30.44 -16.65,-60.95 -23.42,-92.17 -5.21,-24.34 -10.13,-48.77 -13.45,-73.76 -3.56,-24.93 -6.33,-50.11 -6.99,-76.03 l -0.35,-9.68 c -0.06,-3.3 0,-8.74 0.32,-12.43 0.63,-7.97 1.7,-15.14 3.02,-21.88 2.68,-13.55 6.09,-26.01 9.71,-38.27 7.17,-24.47 15.9,-47.65 24.78,-70.68 18.51,-45.77 38.3,-90.2 61.09,-133.81 l 2.21,0.91 -9.32,-35.63 m 27.27,107.82 -3.31,11.23 c -6.87,22.96 -13.42,45.97 -19.45,68.94 -6.32,22.84 -12.04,45.82 -16.83,68.18 -2.33,11.15 -4.32,22.27 -5.49,32.57 -0.69,5.18 -0.99,10.03 -1.04,14.13 0,2.33 0.11,2.96 0.29,5.67 l 0.83,8.41 c 4.29,44.82 14.05,90.73 24.9,136.28 4.94,19.84 10.26,39.83 15.84,59.72 l 5.53,-3.95 -1.27,-401.18" /><path
         id="path80"
         style="fill:#f9f9f8;fill-opacity:1;fill-rule:nonzero;stroke:none"
         d="m 1258.12,1893.39 h -24.45 l 9.32,35.63 17.74,7.29 -0.02,-7.82 c -1.01,-11.45 -1.87,-23.17 -2.59,-35.1" /><path
         id="path82"
         style="fill:#f9f9f8;fill-opacity:1;fill-rule:nonzero;stroke:none"
         d="M 1014.04,758.949 H 867.434 l -0.426,138.672 h 147.932 l -0.9,-138.672 m 0.92,141.172 H 867 l -2.824,923.269 H 1021 l -6.04,-923.269 m 15.78,2412.169 H 859.625 l -0.316,102.21 h 172.101 l -0.67,-102.21" /><path
         id="path84"
         style="fill:#eeeeec;fill-opacity:1;fill-rule:nonzero;stroke:none"
         d="M 1014.94,897.621 H 867.008 l -0.008,2.5 h 147.96 l -0.02,-2.5" /><path
         id="path86"
         style="fill:#f0f0ee;fill-opacity:1;fill-rule:nonzero;stroke:none"
         d="M 1021,1823.39 H 864.176 l -0.211,70 h 157.495 l -0.46,-70 m 9.29,1418.9 H 859.836 l -0.211,70 h 171.115 l -0.45,-70" /><path
         id="path88"
         style="fill:#f6f6f4;fill-opacity:1;fill-rule:nonzero;stroke:none"
         d="M 1021.46,1893.39 H 863.965 l -4.129,1348.9 h 170.454 l -8.83,-1348.9" /><path
         id="path90"
         style="fill:#f9f9f8;fill-opacity:1;fill-rule:nonzero;stroke:none"
         d="M 837.02,758.949 H 667.777 v 138.672 h 169.68 L 837.02,758.949 m 0.445,141.172 H 667.777 V 3414.5 h 177.621 l -0.32,-102.21 H 711.109 v -1488.9 h 129.27 l -2.914,-923.269" /><path
         id="path92"
         style="fill:#eeeeec;fill-opacity:1;fill-rule:nonzero;stroke:none"
         d="m 837.457,897.621 h -169.68 v 2.5 h 169.688 l -0.008,-2.5" /><path
         id="path94"
         style="fill:#f0f0ee;fill-opacity:1;fill-rule:nonzero;stroke:none"
         d="m 840.379,1823.39 h -129.27 v 1488.9 h 133.969 l -0.223,-70 h -63.742 v -1348.9 h 17.778 41.707 l -0.219,-70" /><path
         id="path96"
         style="fill:#f6f6f4;fill-opacity:1;fill-rule:nonzero;stroke:none"
         d="m 840.598,1893.39 h -41.707 v 1348.9 h -17.778 v -1348.9 1348.9 h 63.742 l -4.257,-1348.9" /><path
         id="path98"
         style="fill:#eaeae7;fill-opacity:1;fill-rule:nonzero;stroke:none"
         d="m 781.113,1893.39 h 17.7773 V 3242.28 H 781.113 Z" /><path
         id="path100"
         style="fill:#f9f9f8;fill-opacity:1;fill-rule:nonzero;stroke:none"
         d="m 1423.33,3445.62 h -144.11 l -0.03,7.77 h -13.67 l -0.02,-7.77 h -205.45 l -0.05,7.77 h -28.33 l -0.05,-7.77 H 859.215 l -0.024,7.77 h -13.668 l -0.027,-7.77 H 667.777 v 30 h 755.553 v -30" /><path
         id="path102"
         style="fill:#eaeae7;fill-opacity:1;fill-rule:nonzero;stroke:none"
         d="m 1423.33,3414.5 h -144.02 l -0.09,31.12 h 144.11 v -31.12 m -157.93,0 h -205.15 l -0.2,31.12 h 205.45 l -0.1,-31.12 m -233.99,0 H 859.309 l -0.094,31.12 h 172.405 l -0.21,-31.12 m -186.012,0 H 667.777 v 31.12 h 177.719 l -0.098,-31.12" /><path
         id="path104"
         style="fill:#ededeb;fill-opacity:1;fill-rule:nonzero;stroke:none"
         d="m 1034.44,736.73 h -20.55 l 0.15,22.219 0.9,138.672 h 61.26 l 0.23,-35.812 c -14.68,-43.477 -28.99,-86.161 -41.99,-125.079 m 41.75,163.391 h -61.23 l 6.04,923.269 h 49.33 l 5.86,-923.269 m -15.3,2412.169 h -30.15 l 0.67,102.21 h 28.84 l 0.64,-102.21" /><path
         id="path106"
         style="fill:#e4e4e2;fill-opacity:1;fill-rule:nonzero;stroke:none"
         d="m 1076.2,897.621 h -61.26 l 0.02,2.5 h 61.23 l 0.01,-2.5" /><path
         id="path108"
         style="fill:#e6e6e4;fill-opacity:1;fill-rule:nonzero;stroke:none"
         d="M 1070.33,1823.39 H 1021 l 0.46,70 h 48.43 l 0.44,-70 m -8.99,1418.9 h -31.05 l 0.45,70 h 30.15 l 0.45,-70" /><path
         id="path110"
         style="fill:#ebebe8;fill-opacity:1;fill-rule:nonzero;stroke:none"
         d="m 1069.89,1893.39 h -48.43 l 8.83,1348.9 h 31.05 l 8.55,-1348.9" /><path
         id="path112"
         style="fill:#ededeb;fill-opacity:1;fill-rule:nonzero;stroke:none"
         d="m 1060.05,3445.62 h -28.43 l 0.05,7.77 H 1060 l 0.05,-7.77" /><path
         id="path114"
         style="fill:#dedfdc;fill-opacity:1;fill-rule:nonzero;stroke:none"
         d="m 1060.25,3414.5 h -28.84 l 0.21,31.12 h 28.43 l 0.2,-31.12" /><path
         id="path116"
         style="fill:#ededeb;fill-opacity:1;fill-rule:nonzero;stroke:none"
         d="m 867.5,736.73 h -30.551 l 0.071,22.219 0.437,138.672 h 29.551 L 867.434,758.949 867.5,736.73 M 867,900.121 h -29.535 l 2.914,923.269 h 23.797 L 867,900.121 m -7.375,2412.169 h -14.547 l 0.32,102.21 h 13.911 l 0.316,-102.21" /><path
         id="path118"
         style="fill:#e4e4e2;fill-opacity:1;fill-rule:nonzero;stroke:none"
         d="m 867.008,897.621 h -29.551 l 0.008,2.5 H 867 l 0.008,-2.5" /><path
         id="path120"
         style="fill:#e6e6e4;fill-opacity:1;fill-rule:nonzero;stroke:none"
         d="m 864.176,1823.39 h -23.797 l 0.219,70 h 23.367 l 0.211,-70 m -4.34,1418.9 h -14.981 l 0.223,70 h 14.547 l 0.211,-70" /><path
         id="path122"
         style="fill:#ebebe8;fill-opacity:1;fill-rule:nonzero;stroke:none"
         d="m 863.965,1893.39 h -23.367 l 4.257,1348.9 h 14.981 l 4.129,-1348.9" /><path
         id="path124"
         style="fill:#ededeb;fill-opacity:1;fill-rule:nonzero;stroke:none"
         d="m 859.215,3445.62 h -13.719 l 0.027,7.77 h 13.668 l 0.024,-7.77" /><path
         id="path126"
         style="fill:#dedfdc;fill-opacity:1;fill-rule:nonzero;stroke:none"
         d="m 859.309,3414.5 h -13.911 l 0.098,31.12 h 13.719 l 0.094,-31.12" /><path
         id="path128"
         style="fill:#ededeb;fill-opacity:1;fill-rule:nonzero;stroke:none"
         d="m 1287.5,736.73 h -30.55 l 0.07,22.219 0.24,78.02 c 9.97,19.652 19.92,39.613 29.75,59.769 l 0.42,-137.789 0.07,-22.219 m -7.88,2575.56 h -14.54 l 0.32,102.21 h 13.91 l 0.31,-102.21" /><path
         id="path130"
         style="fill:#e6e6e4;fill-opacity:1;fill-rule:nonzero;stroke:none"
         d="m 1279.84,3242.29 h -14.98 l 0.22,70 h 14.54 l 0.22,-70" /><path
         id="path132"
         style="fill:#ebebe8;fill-opacity:1;fill-rule:nonzero;stroke:none"
         d="m 1261.43,1999.55 -0.49,1.66 1.27,401.18 19.69,-14.08 c 0.19,-1.11 0.38,-2.23 0.56,-3.33 l 0.92,-301.46 -21.95,-83.97 m 1.42,605.99 2.01,636.75 h 14.98 l 0.97,-317.63 c -1.08,-7.7 -1.14,-16.45 0.08,-26.28 l 0.88,-289.62 c -6.99,-1.13 -13.35,-2.22 -18.92,-3.22" /><path
         id="path134"
         style="fill:#ededeb;fill-opacity:1;fill-rule:nonzero;stroke:none"
         d="m 1260.71,1928.49 0.02,7.82 0.73,0.29 c -0.26,-2.69 -0.51,-5.39 -0.75,-8.11 m 6.15,52.59 -5.43,18.47 21.95,83.97 0.09,-27.72 c -7.17,-22.67 -12.55,-47.71 -16.61,-74.72" /><path
         id="path136"
         style="fill:#ededeb;fill-opacity:1;fill-rule:nonzero;stroke:none"
         d="m 1279.22,3445.62 h -13.72 l 0.02,7.77 h 13.67 l 0.03,-7.77" /><path
         id="path138"
         style="fill:#dedfdc;fill-opacity:1;fill-rule:nonzero;stroke:none"
         d="m 1279.31,3414.5 h -13.91 l 0.1,31.12 h 13.72 l 0.09,-31.12" /><path
         id="path140"
         style="fill:#f9f9f8;fill-opacity:1;fill-rule:nonzero;stroke:none"
         d="m 4323.17,758.949 h -120.33 l -0.43,138.672 h 120.76 V 758.949 m 0,141.172 h -120.76 l -2.83,923.269 h 89.31 v 1488.9 h -93.86 l -0.31,102.21 h 128.45 V 900.121 m -34.28,2412.169 v -1488.9 h 17.77 v 1488.9 h -17.77" /><path
         id="path142"
         style="fill:#eeeeec;fill-opacity:1;fill-rule:nonzero;stroke:none"
         d="m 4202.41,897.621 h 120.762 v 2.5 H 4202.41 Z" /><path
         id="path144"
         style="fill:#f0f0ee;fill-opacity:1;fill-rule:nonzero;stroke:none"
         d="m 4288.89,1823.39 h -89.31 l -0.21,70 h 19.52 v 1348.9 h -23.65 l -0.21,70 h 93.86 v -1488.9" /><path
         id="path146"
         style="fill:#f6f6f4;fill-opacity:1;fill-rule:nonzero;stroke:none"
         d="m 4218.89,1893.39 h -19.52 l -4.13,1348.9 h 23.65 v -1348.9" /><path
         id="path148"
         style="fill:#eaeae7;fill-opacity:1;fill-rule:nonzero;stroke:none"
         d="m 4288.89,1823.39 h 17.7695 V 3312.28 H 4288.89 Z" /><path
         id="path150"
         style="fill:#f9f9f8;fill-opacity:1;fill-rule:nonzero;stroke:none"
         d="m 4172.42,758.949 h -125.15 l -0.42,138.672 h 126.01 l -0.44,-138.672 m 0.45,141.172 h -126.03 l -2.83,923.269 h 131.77 l -2.91,-923.269 m 7.61,2412.169 h -141.02 l -0.31,102.21 h 141.66 l -0.33,-102.21" /><path
         id="path152"
         style="fill:#eeeeec;fill-opacity:1;fill-rule:nonzero;stroke:none"
         d="m 4172.86,897.621 h -126.01 l -0.01,2.5 h 126.03 l -0.01,-2.5" /><path
         id="path154"
         style="fill:#f0f0ee;fill-opacity:1;fill-rule:nonzero;stroke:none"
         d="m 4175.78,1823.39 h -131.77 l -0.21,70 H 4176 l -0.22,-70 m 4.48,1418.9 h -140.59 l -0.21,70 h 141.02 l -0.22,-70" /><path
         id="path156"
         style="fill:#f6f6f4;fill-opacity:1;fill-rule:nonzero;stroke:none"
         d="m 4176,1893.39 h -132.2 l -4.13,1348.9 h 140.59 L 4176,1893.39" /><path
         id="path158"
         style="fill:#f9f9f8;fill-opacity:1;fill-rule:nonzero;stroke:none"
         d="m 4016.86,758.949 h -153.27 l -0.88,138.672 h 154.58 l -0.43,-138.672 m 0.44,141.172 h -154.61 l -5.85,923.269 h 163.38 l -2.92,-923.269 m 7.62,2412.169 H 3847.4 l -0.65,102.21 h 178.49 l -0.32,-102.21" /><path
         id="path160"
         style="fill:#eeeeec;fill-opacity:1;fill-rule:nonzero;stroke:none"
         d="m 4017.29,897.621 h -154.58 l -0.02,2.5 h 154.61 l -0.01,-2.5" /><path
         id="path162"
         style="fill:#f0f0ee;fill-opacity:1;fill-rule:nonzero;stroke:none"
         d="m 4020.22,1823.39 h -163.38 l -0.45,70 h 164.05 l -0.22,-70 m 4.47,1418.9 h -176.85 l -0.44,70 h 177.52 l -0.23,-70" /><path
         id="path164"
         style="fill:#f6f6f4;fill-opacity:1;fill-rule:nonzero;stroke:none"
         d="m 4020.44,1893.39 h -164.05 l -8.55,1348.9 h 176.85 l -4.25,-1348.9" /><path
         id="path166"
         style="fill:#f9f9f8;fill-opacity:1;fill-rule:nonzero;stroke:none"
         d="m 3806.67,1694.88 c -1.22,45.52 -2.24,88.92 -3.08,128.51 h 3.92 l -0.84,-128.51 m 10.58,1617.41 h -101.12 l -0.32,102.21 h 102.11 l -0.67,-102.21" /><path
         id="path168"
         style="fill:#f0f0ee;fill-opacity:1;fill-rule:nonzero;stroke:none"
         d="m 3807.51,1823.39 h -3.92 c -0.53,25 -1,48.45 -1.4,70 h 5.77 l -0.45,-70 m 9.28,1418.9 h -100.45 l -0.21,70 h 101.12 l -0.46,-70" /><path
         id="path170"
         style="fill:#f6f6f4;fill-opacity:1;fill-rule:nonzero;stroke:none"
         d="m 3807.96,1893.39 h -5.77 c -1.56,84.68 -2.15,139.68 -2.15,139.83 v 0 0 c 1.02,43.34 -17.47,186.7 -19.67,368.27 0.01,-0.02 0.02,-0.05 0.03,-0.07 -0.6,52.19 0.1,107.5 3,164.4 l -0.05,0.04 c 4.08,80.22 12.5,163.77 27.62,246.6 0,0 -38.19,7.35 -93.35,11.38 l -1.28,418.45 h 100.45 l -8.83,-1348.9 m -87.92,138 v 0.05 c 34.53,0.78 62.58,1.41 80,1.78 l -80,-1.83" /><path
         id="path172"
         style="fill:#f9f9f8;fill-opacity:1;fill-rule:nonzero;stroke:none"
         d="m 3649.15,758.949 h -81.53 v 138.672 h 57.04 c 7.95,-46.43 16.24,-93.199 24.49,-138.672 m -24.92,141.172 h -56.61 v 401.299 c 3.88,-36.74 7.69,-71.12 11.35,-101.92 9.96,-83.94 26.67,-190.68 45.26,-299.379 m 77.35,2412.169 h -133.96 v 102.21 h 134.28 l -0.32,-102.21" /><path
         id="path174"
         style="fill:#eeeeec;fill-opacity:1;fill-rule:nonzero;stroke:none"
         d="m 3624.66,897.621 h -57.04 v 2.5 h 56.61 c 0.15,-0.859 0.28,-1.652 0.43,-2.5" /><path
         id="path176"
         style="fill:#f0f0ee;fill-opacity:1;fill-rule:nonzero;stroke:none"
         d="m 3701.36,3242.29 h -133.74 v 70 h 133.96 l -0.22,-70" /><path
         id="path178"
         style="fill:#f6f6f4;fill-opacity:1;fill-rule:nonzero;stroke:none"
         d="m 3599.25,2028.63 v 0.08 c 34.96,0.79 68.44,1.55 98.29,2.22 v -0.05 l -98.29,-2.25 m 100.79,796.33 c -8.66,0.48 -17.65,0.86 -26.89,1.11 v 0 c -46.58,42.57 -36.36,162.39 -24.96,227.91 l -80.57,-71.82 v 260.13 h 133.74 l -1.32,-417.33" /><path
         id="path180"
         style="fill:#f9f9f8;fill-opacity:1;fill-rule:nonzero;stroke:none"
         d="m 4323.17,3445.62 h -128.55 l -0.02,7.77 h -13.67 l -0.03,-7.77 h -141.85 l -0.02,7.77 h -13.67 l -0.02,-7.77 h -178.79 l -0.05,7.77 h -28.33 l -0.05,-7.77 h -102.4 l -0.02,7.77 h -13.67 l -0.03,-7.77 h -134.38 v 30 h 755.55 v -30" /><path
         id="path182"
         style="fill:#eaeae7;fill-opacity:1;fill-rule:nonzero;stroke:none"
         d="m 4323.17,3414.5 h -128.45 l -0.1,31.12 h 128.55 v -31.12 m -142.36,0 h -141.66 l -0.1,31.12 h 141.85 l -0.09,-31.12 m -155.57,0 h -178.49 l -0.2,31.12 h 178.79 l -0.1,-31.12 m -207.32,0 h -102.11 l -0.09,31.12 h 102.4 l -0.2,-31.12 m -116.02,0 h -134.28 v 31.12 H 3702 l -0.1,-31.12" /><path
         id="path184"
         style="fill:#ededeb;fill-opacity:1;fill-rule:nonzero;stroke:none"
         d="m 3863.73,736.73 h -4.45 c -3.61,52.09 -7.35,106.52 -11.06,160.891 h 14.49 l 0.88,-138.672 0.14,-22.219 m -1.04,163.391 h -14.64 c -9.46,139.119 -18.65,277.709 -24.57,375.979 -7.82,129.6 -13.2,283.61 -16.81,418.78 l 0.84,128.51 h 49.33 l 5.85,-923.269 M 3847.4,3312.29 h -30.15 l 0.67,102.21 h 28.83 l 0.65,-102.21" /><path
         id="path186"
         style="fill:#e4e4e2;fill-opacity:1;fill-rule:nonzero;stroke:none"
         d="m 3862.71,897.621 h -14.49 c -0.05,0.859 -0.11,1.641 -0.17,2.5 h 14.64 l 0.02,-2.5" /><path
         id="path188"
         style="fill:#e6e6e4;fill-opacity:1;fill-rule:nonzero;stroke:none"
         d="m 3856.84,1823.39 h -49.33 l 0.45,70 h 48.43 l 0.45,-70 m -9,1418.9 h -31.05 l 0.46,70 h 30.15 l 0.44,-70" /><path
         id="path190"
         style="fill:#ebebe8;fill-opacity:1;fill-rule:nonzero;stroke:none"
         d="m 3856.39,1893.39 h -48.43 l 8.83,1348.9 h 31.05 l 8.55,-1348.9" /><path
         id="path192"
         style="fill:#ededeb;fill-opacity:1;fill-rule:nonzero;stroke:none"
         d="m 3846.55,3445.62 h -28.43 l 0.05,7.77 h 28.33 l 0.05,-7.77" /><path
         id="path194"
         style="fill:#dedfdc;fill-opacity:1;fill-rule:nonzero;stroke:none"
         d="m 3846.75,3414.5 h -28.83 l 0.2,31.12 h 28.43 l 0.2,-31.12" /><path
         id="path196"
         style="fill:#ededeb;fill-opacity:1;fill-rule:nonzero;stroke:none"
         d="m 3716.13,3312.29 h -14.55 l 0.32,102.21 h 13.91 l 0.32,-102.21" /><path
         id="path198"
         style="fill:#e6e6e4;fill-opacity:1;fill-rule:nonzero;stroke:none"
         d="m 3716.34,3242.29 h -14.98 l 0.22,70 h 14.55 l 0.21,-70" /><path
         id="path200"
         style="fill:#ebebe8;fill-opacity:1;fill-rule:nonzero;stroke:none"
         d="m 3697.54,2030.88 v 0.05 c 7.76,0.18 15.28,0.35 22.5,0.51 v -0.05 l -22.5,-0.51 m 20.08,792.96 c -5.69,0.41 -11.55,0.79 -17.58,1.12 l 1.32,417.33 h 14.98 l 1.28,-418.45" /><path
         id="path202"
         style="fill:#ededeb;fill-opacity:1;fill-rule:nonzero;stroke:none"
         d="M 3715.72,3445.62 H 3702 l 0.03,7.77 h 13.67 l 0.02,-7.77" /><path
         id="path204"
         style="fill:#dedfdc;fill-opacity:1;fill-rule:nonzero;stroke:none"
         d="m 3715.81,3414.5 h -13.91 l 0.1,31.12 h 13.72 l 0.09,-31.12" /><path
         id="path206"
         style="fill:#ededeb;fill-opacity:1;fill-rule:nonzero;stroke:none"
         d="m 4047.34,736.73 h -30.55 l 0.07,22.219 0.43,138.672 h 29.56 l 0.42,-138.672 0.07,-22.219 m -0.5,163.391 h -29.54 l 2.92,923.269 h 23.79 l 2.83,-923.269 m -7.38,2412.169 h -14.54 l 0.32,102.21 h 13.91 l 0.31,-102.21" /><path
         id="path208"
         style="fill:#e4e4e2;fill-opacity:1;fill-rule:nonzero;stroke:none"
         d="m 4046.85,897.621 h -29.56 l 0.01,2.5 h 29.54 l 0.01,-2.5" /><path
         id="path210"
         style="fill:#e6e6e4;fill-opacity:1;fill-rule:nonzero;stroke:none"
         d="m 4044.01,1823.39 h -23.79 l 0.22,70 h 23.36 l 0.21,-70 m -4.34,1418.9 h -14.98 l 0.23,70 h 14.54 l 0.21,-70" /><path
         id="path212"
         style="fill:#ebebe8;fill-opacity:1;fill-rule:nonzero;stroke:none"
         d="m 4043.8,1893.39 h -23.36 l 4.25,1348.9 h 14.98 l 4.13,-1348.9" /><path
         id="path214"
         style="fill:#ededeb;fill-opacity:1;fill-rule:nonzero;stroke:none"
         d="m 4039.05,3445.62 h -13.71 l 0.02,7.77 h 13.67 l 0.02,-7.77" /><path
         id="path216"
         style="fill:#dedfdc;fill-opacity:1;fill-rule:nonzero;stroke:none"
         d="m 4039.15,3414.5 h -13.91 l 0.1,31.12 h 13.71 l 0.1,-31.12" /><path
         id="path218"
         style="fill:#ededeb;fill-opacity:1;fill-rule:nonzero;stroke:none"
         d="m 4202.91,736.73 h -30.56 l 0.07,22.219 0.44,138.672 h 29.55 l 0.43,-138.672 0.07,-22.219 m -0.5,163.391 h -29.54 l 2.91,923.269 h 23.8 l 2.83,-923.269 m -7.38,2412.169 h -14.55 l 0.33,102.21 h 13.91 l 0.31,-102.21" /><path
         id="path220"
         style="fill:#e4e4e2;fill-opacity:1;fill-rule:nonzero;stroke:none"
         d="m 4202.41,897.621 h -29.55 l 0.01,2.5 h 29.54 v -2.5" /><path
         id="path222"
         style="fill:#e6e6e4;fill-opacity:1;fill-rule:nonzero;stroke:none"
         d="m 4199.58,1823.39 h -23.8 l 0.22,70 h 23.37 l 0.21,-70 m -4.34,1418.9 h -14.98 l 0.22,70 h 14.55 l 0.21,-70" /><path
         id="path224"
         style="fill:#ebebe8;fill-opacity:1;fill-rule:nonzero;stroke:none"
         d="M 4199.37,1893.39 H 4176 l 4.26,1348.9 h 14.98 l 4.13,-1348.9" /><path
         id="path226"
         style="fill:#ededeb;fill-opacity:1;fill-rule:nonzero;stroke:none"
         d="m 4194.62,3445.62 h -13.72 l 0.03,7.77 h 13.67 l 0.02,-7.77" /><path
         id="path228"
         style="fill:#dedfdc;fill-opacity:1;fill-rule:nonzero;stroke:none"
         d="m 4194.72,3414.5 h -13.91 l 0.09,31.12 h 13.72 l 0.1,-31.12" /><path
         id="path230"
         style="fill:#e2e2e0;fill-opacity:1;fill-rule:nonzero;stroke:none"
         d="m 3252.15,468.648 h 142.031 v 813.773 H 3252.15 Z" /><path
         id="path232"
         style="fill:#ededeb;fill-opacity:1;fill-rule:nonzero;stroke:none"
         d="m 1605.82,468.648 h 1700.93 v 813.773 H 1605.82 Z" /><path
         id="path234"
         style="fill:#dadbd8;fill-opacity:1;fill-rule:nonzero;stroke:none"
         d="M 3268.55,468.648 H 1679.31 v -17.019 h 1641.43 v 17.019 h -52.19" /><path
         id="path236"
         style="fill:#f3f2f1;fill-opacity:1;fill-rule:nonzero;stroke:none"
         d="M 3258.22,903.16 H 1675.13 c 12.33,110.24 21.56,214.84 23.2,291.27 0.22,10.21 0.33,21.04 0.33,32.44 0,1.54 0,3.09 -0.01,4.65 h 172.19 l 4.25,-58.74 c 0.63,-8.63 7.78,-13.99 15.14,-13.99 4.05,-0.01 8.16,1.62 11.28,5.23 l 58.4,67.5 H 3258.22 V 903.16" /><path
         id="path238"
         style="fill:#f3f2f1;fill-opacity:1;fill-rule:nonzero;stroke:none"
         d="M 3258.22,521.719 H 1654.34 v 210.383 c 5.06,38.929 10.02,78.558 14.68,117.988 h 1589.2 V 521.719" /><path
         id="path240"
         style="fill:#dadbd8;fill-opacity:1;fill-rule:nonzero;stroke:none"
         d="m 1897.47,1067.34 c 0,-19.93 -16.16,-36.1 -36.09,-36.1 -19.94,0 -36.1,16.17 -36.1,36.1 0,19.93 16.16,36.09 36.1,36.09 19.93,0 36.09,-16.16 36.09,-36.09" /><path
         id="path242"
         style="fill:#dadbd8;fill-opacity:1;fill-rule:nonzero;stroke:none"
         d="m 3087.28,1067.34 c 0,-19.93 -16.16,-36.1 -36.09,-36.1 -19.94,0 -36.1,16.17 -36.1,36.1 0,19.93 16.16,36.09 36.1,36.09 19.93,0 36.09,-16.16 36.09,-36.09" /><path
         id="path244"
         style="fill:#dadbd8;fill-opacity:1;fill-rule:nonzero;stroke:none"
         d="m 1897.47,685.91 c 0,-19.941 -16.16,-36.101 -36.09,-36.101 -19.94,0 -36.1,16.16 -36.1,36.101 0,19.93 16.16,36.09 36.1,36.09 19.93,0 36.09,-16.16 36.09,-36.09" /><path
         id="path246"
         style="fill:#dadbd8;fill-opacity:1;fill-rule:nonzero;stroke:none"
         d="m 3087.28,685.91 c 0,-19.941 -16.16,-36.101 -36.09,-36.101 -19.94,0 -36.1,16.16 -36.1,36.101 0,19.93 16.16,36.09 36.1,36.09 19.93,0 36.09,-16.16 36.09,-36.09" /><path
         id="path248"
         style="fill:#dadbd8;fill-opacity:1;fill-rule:nonzero;stroke:none"
         d="m 2492.38,1067.34 c 0,-19.93 -16.16,-36.1 -36.1,-36.1 -19.93,0 -36.09,16.17 -36.09,36.1 0,19.93 16.16,36.09 36.09,36.09 19.94,0 36.1,-16.16 36.1,-36.09" /><path
         id="path250"
         style="fill:#dadbd8;fill-opacity:1;fill-rule:nonzero;stroke:none"
         d="m 2492.38,685.91 c 0,-19.941 -16.16,-36.101 -36.1,-36.101 -19.93,0 -36.09,16.16 -36.09,36.101 0,19.93 16.16,36.09 36.09,36.09 19.94,0 36.1,-16.16 36.1,-36.09" /><path
         id="path252"
         style="fill:#ededeb;fill-opacity:1;fill-rule:nonzero;stroke:none"
         d="m 3201.61,1420.65 c 0,-76.34 -61.88,-138.23 -138.22,-138.23 -76.34,0 -138.23,61.89 -138.23,138.23 h 276.45" /><path
         id="path254"
         style="fill:#ededeb;fill-opacity:1;fill-rule:nonzero;stroke:none"
         d="m 2108.89,1445.32 c 0,-89.97 -72.93,-162.9 -162.9,-162.9 -89.97,0 -162.9,72.93 -162.9,162.9 h 325.8" /><path
         id="path256"
         style="fill:#ededeb;fill-opacity:1;fill-rule:nonzero;stroke:none"
         d="m 2809.17,1378.31 c 0,-52.96 -42.94,-95.89 -95.9,-95.89 -52.96,0 -95.89,42.93 -95.89,95.89 h 191.79" /><path
         id="path258"
         style="fill:#f3f2f1;fill-opacity:1;fill-rule:nonzero;stroke:none"
         d="M 4438.89,113.238 C 4438.89,50.6992 3570.82,0 2500,0 1429.18,0 561.109,50.6992 561.109,113.238 c 0,62.532 868.071,113.231 1938.891,113.231 1070.82,0 1938.89,-50.699 1938.89,-113.231" /><path
         id="path260"
         style="fill:#17282f;fill-opacity:1;fill-rule:nonzero;stroke:none"
         d="m 3481.49,3121.97 c -21.34,21.31 -62.33,102.04 -23,139.51 39.33,37.47 74.31,3.49 77.02,-14.92 2.72,-18.41 -4.56,-173.97 -54.02,-124.59" /><path
         id="path262"
         style="fill:#f46b74;fill-opacity:1;fill-rule:nonzero;stroke:none"
         d="m 3472.46,219.102 -89.21,-0.782 -24.33,206.379 89.2,0.781 24.34,-206.378" /><path
         id="path264"
         style="fill:#17282f;fill-opacity:1;fill-rule:nonzero;stroke:none"
         d="m 3383.07,228.648 97.41,0.852 c 3.65,0.031 7,-2.469 8.06,-6.02 l 23.55,-79.089 c 2.44,-8.2 -3.22,-16.039 -11.65,-15.981 -35.19,0.289 -86.12,1.91 -130.29,1.52 -51.65,-0.45 -74.68,-3.66 -135.25,-4.192 -36.62,-0.316 -49.55,36.594 -34.48,40.082 68.65,15.871 104.15,18 161.68,55.692 6.25,4.097 13.27,7.07 20.97,7.136" /><path
         id="path266"
         style="fill:#c3c5c2;fill-opacity:1;fill-rule:nonzero;stroke:none"
         d="m 3460.67,319.051 -6.34,53.789 h 0.05 l 6.33,-53.789 h -0.04" /><path
         id="path268"
         style="fill:#ea5b5b;fill-opacity:1;fill-rule:nonzero;stroke:none"
         d="m 3371.47,318.27 -6.21,52.671 89.07,1.899 6.34,-53.789 -89.2,-0.781" /><path
         id="path270"
         style="fill:#406fbf;fill-opacity:1;fill-rule:nonzero;stroke:none"
         d="m 3367.6,219.082 c -19.31,-3.391 -33.99,-2.66 -39.88,2.117 -2.14,1.742 -3.17,4 -3.17,6.91 0,1.301 0.52,1.789 1.02,2.11 5.49,3.422 26.68,-4.199 42.03,-11.137 z m -21.36,-6.352 c 10.03,0 20.92,1.829 28.56,3.442 l 1.66,1.808 -1.17,2.161 c -4.23,2.07 -41.71,20.05 -51.96,13.66 -1.96,-1.223 -3,-3.192 -3,-5.68 -0.01,-4.223 1.58,-7.641 4.73,-10.199 4.78,-3.883 12.67,-5.192 21.18,-5.192" /><path
         id="path272"
         style="fill:#406fbf;fill-opacity:1;fill-rule:nonzero;stroke:none"
         d="m 3349.99,252.07 c 12.78,0 19.2,-20.84 21.39,-29.98 -11.76,6.672 -27.4,21.801 -26.52,27.781 0.06,0.43 0.25,1.738 3.79,2.129 z m 24.38,-35.941 1.31,0.453 0.77,2.008 c -0.28,1.64 -7.02,39.98 -28.26,37.609 -5.61,-0.617 -7.18,-3.449 -7.51,-5.711 -1.48,-10.019 21.42,-29.328 32.86,-34.199 l 0.83,-0.16" /><path
         id="path274"
         style="fill:#f46b74;fill-opacity:1;fill-rule:nonzero;stroke:none"
         d="m 3409.44,2671.34 -9.24,-9.59 -8.59,-8.54 c -5.72,-5.59 -11.61,-10.85 -17.47,-16.12 -11.76,-10.48 -23.76,-20.59 -36.03,-30.39 -24.62,-19.48 -50.55,-37.53 -77.96,-53.77 -13.7,-8.13 -27.8,-15.79 -42.18,-23.08 -14.48,-7.15 -29.41,-13.67 -44.61,-19.76 -30.56,-12 -62.85,-21.37 -96.75,-26.43 l -7.45,-1.12 c -4.65,-0.55 -9.11,-1.02 -14.44,-0.89 -10.03,-0.02 -21.82,2.04 -32.56,6.4 -10.95,4.27 -20.39,10.9 -27.65,17.71 -7.56,6.99 -12.32,13.85 -16.58,20.59 -7.77,13.15 -11.53,24.61 -14.32,35.03 -2.71,10.43 -4.21,19.93 -5.26,29.04 -2.11,18.17 -2.15,34.74 -1.51,50.94 0.67,16.12 1.95,31.72 3.75,47.06 3.82,30.65 9.17,60.31 15.79,89.55 6.72,29.33 14.16,57.73 23.79,86.71 l 65.72,-12.91 c -2.41,-56.27 -5.1,-113.85 -3.29,-168.21 0.67,-26.91 3.16,-54.06 7.97,-75.29 1.23,-5.18 2.68,-9.89 4.14,-13.32 1.4,-3.41 3.05,-5.52 2.98,-4.64 -0.16,0.8 -0.67,1.7 -2.73,3.96 -1.89,2.01 -5.27,4.41 -9.38,6.26 -4,1.78 -8.53,2.46 -11.33,2.65 -0.62,-0.01 -1.14,0 -1.59,0.01 -0.78,0.02 -1.38,0.03 -2.04,-0.05 -1.09,-0.21 0.59,0.18 1.06,0.31 l 2.16,0.56 c 23.04,5.62 46.04,14.47 68.8,24.97 22.65,10.9 45.01,23.62 66.83,37.84 21.74,14.35 43.1,29.88 63.73,46.51 10.37,8.23 20.54,16.76 30.41,25.51 l 14.55,13.2 7.06,6.51 6.06,5.81 98.16,-93.02" /><path
         id="path276"
         style="fill:#17282f;fill-opacity:1;fill-rule:nonzero;stroke:none"
         d="m 3462.3,2706.62 c -3.4,94.26 -80.83,127.07 -177.78,62.82 -91.98,-61.06 -123.35,-88.57 -123.35,-88.57 l 62.75,-201.37 c 0,0 120.21,38.09 189.41,112.92 46.95,50.77 50.12,82.08 48.97,114.2" /><path
         id="path278"
         style="fill:#111d23;fill-opacity:1;fill-rule:nonzero;stroke:none"
         d="m 3292.85,2573.73 c 5.84,13.09 11.91,25.33 17.75,36.37 -0.63,-11.21 -1.19,-22.96 -1.65,-35.21 l -16.1,-1.16" /><path
         id="path280"
         style="fill:#f46b74;fill-opacity:1;fill-rule:nonzero;stroke:none"
         d="m 3062.6,2821.9 33.58,75.88 -95.03,27.85 c 0,0 -16.34,-36.31 -7.06,-98.61 l 68.51,-5.12" /><path
         id="path282"
         style="fill:#f46b74;fill-opacity:1;fill-rule:nonzero;stroke:none"
         d="m 3106.28,2986.8 -82.64,-9.85 -22.49,-51.32 95.03,-27.85 10.1,89.02" /><path
         id="path284"
         style="fill:#406fbf;fill-opacity:1;fill-rule:nonzero;stroke:none"
         d="m 3344.85,2023.06 c 0,0 -61.48,-514.64 -68.21,-789.72 -7,-286.129 49.08,-863.238 49.08,-863.238 l 161.09,3.429 c 0,0 19.37,617.778 42.74,900.879 25.49,308.63 89.49,754.49 89.49,754.49 l -274.19,-5.84" /><path
         id="path286"
         style="fill:#a4c3e9;fill-opacity:1;fill-rule:nonzero;stroke:none"
         d="m 3325.72,370.102 c 0,0 -8.79,90.457 -18.97,217.488 -14.04,175.051 -30.72,419.56 -30.72,592.63 0,18.59 0.2,36.35 0.61,53.12 1.58,64.77 6.2,142.82 12.34,224.32 l 201.38,14.56 c 4.76,-102.26 17.82,-197.89 34.49,-259.9 -6.33,-90.06 -12.26,-200.91 -17.47,-312.199 -0.04,-0.832 -0.08,-1.672 -0.12,-2.5 -8.13,-174.031 -14.51,-348.723 -17.85,-445.992 -0.03,-0.828 -0.06,-1.68 -0.09,-2.5 -1.62,-47.289 -2.51,-75.598 -2.51,-75.598 l -32.48,-0.691 -89.07,-1.899 v 0 l -39.54,-0.839 m 214.87,1024.108 c 2.87,28.66 5.92,57.78 9.1,87.02 0.01,-0.05 0.01,-0.07 0.01,-0.11 -3.18,-29.21 -6.24,-58.29 -9.11,-86.91" /><path
         id="path288"
         style="fill:#c3c5c2;fill-opacity:1;fill-rule:nonzero;stroke:none"
         d="m 3524.9,1212.12 c -0.02,0.06 -0.04,0.13 -0.05,0.2 1.54,22.04 3.11,42.84 4.7,62.09 3.16,38.2 6.9,78.5 11.04,119.8 -4.12,-41.29 -7.85,-81.6 -10.99,-119.8 -1.6,-19.29 -3.2,-40.19 -4.7,-62.29" /><path
         id="path290"
         style="fill:#7f9bcf;fill-opacity:1;fill-rule:nonzero;stroke:none"
         d="m 3524.85,1212.32 c -16.67,62.01 -29.73,157.64 -34.49,259.9 l 9.47,0.69 c 17.64,1.27 34.29,5.83 49.41,13.02 0.15,-1.56 0.3,-3.14 0.45,-4.7 -3.18,-29.24 -6.23,-58.36 -9.1,-87.02 -4.14,-41.3 -7.88,-81.6 -11.04,-119.8 -1.59,-19.25 -3.16,-40.05 -4.7,-62.09" /><path
         id="path292"
         style="fill:#406fbf;fill-opacity:1;fill-rule:nonzero;stroke:none"
         d="m 3506.6,366.281 -189.42,-3.781 -13.93,62.93 201.04,0.449 2.31,-59.598" /><path
         id="path294"
         style="fill:#f46b74;fill-opacity:1;fill-rule:nonzero;stroke:none"
         d="m 3870.43,219.102 -89.21,-0.782 -24.33,206.379 89.2,0.781 24.34,-206.378" /><path
         id="path296"
         style="fill:#17282f;fill-opacity:1;fill-rule:nonzero;stroke:none"
         d="m 3781.04,228.648 97.42,0.852 c 3.64,0.031 6.99,-2.469 8.05,-6.02 l 23.55,-79.089 c 2.44,-8.2 -3.22,-16.039 -11.65,-15.981 -35.19,0.289 -86.12,1.91 -130.29,1.52 -51.64,-0.45 -74.68,-3.66 -135.25,-4.192 -36.62,-0.316 -49.55,36.594 -34.48,40.082 68.65,15.871 104.15,18 161.68,55.692 6.25,4.097 13.27,7.07 20.97,7.136" /><path
         id="path298"
         style="fill:#c3c5c2;fill-opacity:1;fill-rule:nonzero;stroke:none"
         d="m 3858.64,319.051 -6.34,53.789 h 0.05 l 6.33,-53.789 h -0.04" /><path
         id="path300"
         style="fill:#ea5b5b;fill-opacity:1;fill-rule:nonzero;stroke:none"
         d="m 3769.44,318.27 -6.2,52.671 89.06,1.899 6.34,-53.789 -89.2,-0.781" /><path
         id="path302"
         style="fill:#406fbf;fill-opacity:1;fill-rule:nonzero;stroke:none"
         d="m 3765.57,219.082 c -19.3,-3.391 -33.98,-2.66 -39.88,2.117 -2.13,1.742 -3.17,4 -3.16,6.91 0,1.301 0.51,1.789 1.01,2.11 5.5,3.422 26.68,-4.199 42.03,-11.137 z m -21.36,-6.352 c 10.04,0 20.93,1.829 28.56,3.442 l 1.66,1.808 -1.17,2.161 c -4.23,2.07 -41.71,20.05 -51.96,13.66 -1.96,-1.223 -3,-3.192 -3,-5.68 -0.01,-4.223 1.58,-7.641 4.73,-10.199 4.78,-3.883 12.67,-5.192 21.18,-5.192" /><path
         id="path304"
         style="fill:#406fbf;fill-opacity:1;fill-rule:nonzero;stroke:none"
         d="m 3747.96,252.07 c 12.79,0 19.2,-20.84 21.39,-29.98 -11.76,6.672 -27.4,21.801 -26.52,27.781 0.06,0.43 0.25,1.738 3.79,2.129 z m 24.38,-35.941 1.31,0.453 0.77,2.008 c -0.28,1.64 -7.02,39.98 -28.26,37.609 -5.61,-0.617 -7.18,-3.449 -7.51,-5.711 -1.48,-10.019 21.42,-29.328 32.86,-34.199 l 0.83,-0.16" /><path
         id="path306"
         style="fill:#406fbf;fill-opacity:1;fill-rule:nonzero;stroke:none"
         d="m 3502.03,2026.4 c 0,0 44.5,-553.65 76.94,-826.9 33.73,-284.219 144.72,-829.398 144.72,-829.398 l 161.09,3.429 c 0,0 -44.21,619.02 -61.3,902.569 -18.64,309.12 -23.44,757.12 -23.44,757.12 l -298.01,-6.82" /><path
         id="path308"
         style="fill:#a4c3e9;fill-opacity:1;fill-rule:nonzero;stroke:none"
         d="m 3723.69,370.102 c 0,0 -110.99,545.179 -144.72,829.398 -9.22,77.65 -19.41,177.93 -29.28,281.73 -0.15,1.56 -0.3,3.14 -0.45,4.7 50.37,23.95 83.69,77.17 79.44,135.92 l -29.43,406.78 200.79,4.59 v 0 0 c 0,-0.44 4.81,-448.15 23.44,-757.12 17.09,-283.549 61.3,-902.569 61.3,-902.569 l -32.48,-0.691 -89.06,-1.899 h -0.01 l -39.54,-0.839" /><path
         id="path310"
         style="fill:#406fbf;fill-opacity:1;fill-rule:nonzero;stroke:none"
         d="m 3904.57,366.281 -189.42,-3.781 -13.93,62.93 201.04,0.449 2.31,-59.598" /><path
         id="path312"
         style="fill:#17282f;fill-opacity:1;fill-rule:nonzero;stroke:none"
         d="m 3333.7,2794.07 c 0,0 -65.93,-244.58 11.15,-771.01 143.73,3.06 385.24,8.67 455.19,10.16 1.72,73.3 -52.35,432.69 10.93,779.24 0,0 -59.82,11.52 -137.82,13.61 -61.02,1.64 -149.31,1.71 -202.79,-4.33 -70.51,-7.95 -136.66,-27.67 -136.66,-27.67" /><path
         id="path314"
         style="fill:#bcbebc;fill-opacity:1;fill-rule:nonzero;stroke:none"
         d="m 3780.4,2401.42 c -0.01,0.02 -0.02,0.05 -0.03,0.07 -0.63,52.13 0.08,107.4 2.98,164.37 l 0.05,-0.04 c -2.9,-56.9 -3.6,-112.21 -3,-164.4" /><path
         id="path316"
         style="fill:#111d23;fill-opacity:1;fill-rule:nonzero;stroke:none"
         d="m 3780.37,2401.49 c -23.01,59.83 -66.57,177.85 -71.47,226.03 l 74.45,-61.66 c -2.9,-56.97 -3.61,-112.24 -2.98,-164.37" /><path
         id="path318"
         style="fill:#ffffff;fill-opacity:1;fill-rule:nonzero;stroke:none"
         d="m 3516.89,2652.27 -81.26,-160.82 c -7.85,-15.53 9.03,-32.34 24.14,-24.03 l 53.11,29.19 c 5.84,3.21 13.02,2.74 18.51,-1.22 l 52.27,-37.68 c 14.04,-10.12 32.27,3.85 26.43,20.25 l -61.13,171.76 c -5.23,14.72 -25.12,16.3 -32.07,2.55" /><path
         id="path320"
         style="fill:#f46b74;fill-opacity:1;fill-rule:nonzero;stroke:none"
         d="m 3648.19,3053.98 c -11.4,-65.52 -21.62,-185.34 24.96,-227.91 0,0 -13.59,-59.31 -137.67,-79.51 -83.37,26.75 -65.12,75.18 -65.12,75.18 72.39,18.93 69.36,72.87 55.61,123.3 l 122.22,108.94" /><path
         id="path322"
         style="fill:#bfc0be;fill-opacity:1;fill-rule:nonzero;stroke:none"
         d="m 3533.05,2909.24 c -0.09,0.87 -0.18,1.75 -0.27,2.63 0.1,-0.88 0.2,-1.76 0.29,-2.63 -0.01,0 -0.02,0 -0.02,0 m -7.02,35.85 c 0,0 0,0.01 0,0.01 l 13.58,12.1 -13.58,-12.11" /><path
         id="path324"
         style="fill:#ea5b5b;fill-opacity:1;fill-rule:nonzero;stroke:none"
         d="m 3533.07,2909.24 c -0.09,0.87 -0.19,1.75 -0.29,2.63 -1.22,10.97 -3.7,22.17 -6.75,33.22 l 13.58,12.11 58.76,52.33 c 2.51,-6.71 3.41,-20.64 2.25,-35.19 -2.33,-29.16 -39.84,-60.48 -67.55,-65.1" /><path
         id="path326"
         style="fill:#f46b74;fill-opacity:1;fill-rule:nonzero;stroke:none"
         d="m 3687.88,3134.72 c -24.04,-85.22 -33.77,-136.31 -87.01,-171.18 -80.07,-52.45 -178.09,10.23 -180,100.91 -1.72,81.61 37.87,207.25 129.86,223.28 90.63,15.8 161.18,-67.8 137.15,-153.01" /><path
         id="path328"
         style="fill:#17282f;fill-opacity:1;fill-rule:nonzero;stroke:none"
         d="m 3636.62,3082.55 c -11.21,27.18 -19.28,116.75 27.34,138.72 46.62,21.98 95.21,-31.68 82.98,-57.04 -18.98,-39.39 -84.33,-144.67 -110.32,-81.68" /><path
         id="path330"
         style="fill:#17282f;fill-opacity:1;fill-rule:nonzero;stroke:none"
         d="m 3664.48,3189.72 c -11.47,29.61 -148.63,46.96 -167.81,79.28 -22.81,38.45 70.76,43.05 135.05,23.48 56.5,-17.19 94.17,-33.73 87.57,-75.75 -3.74,-23.78 -54.81,-27.01 -54.81,-27.01" /><path
         id="path332"
         style="fill:#17282f;fill-opacity:1;fill-rule:nonzero;stroke:none"
         d="m 3694.25,3220.64 c 0,0 29.72,-8.26 46.48,13.82 -5.21,-21.8 -30.57,-43.85 -46.48,-13.82" /><path
         id="path334"
         style="fill:#17282f;fill-opacity:1;fill-rule:nonzero;stroke:none"
         d="m 3557.03,3313.11 c -41.24,32.03 -97.32,-5.61 -92,-47.31 5.32,-41.69 144.17,-73.42 144.17,-73.42 0,0 2.52,78.25 -52.17,120.73" /><path
         id="path336"
         style="fill:#17282f;fill-opacity:1;fill-rule:nonzero;stroke:none"
         d="m 3465.11,3265.2 c 6.32,-29.15 27.59,-52.13 70.67,-69.04 -40.3,28.33 -54.23,73.05 -54.23,73.05 l -16.44,-4.01" /><path
         id="path338"
         style="fill:#17282f;fill-opacity:1;fill-rule:nonzero;stroke:none"
         d="m 3551.65,3138.99 c -1.53,-7.03 -6.49,-11.92 -11.09,-10.93 -4.59,1 -7.08,7.51 -5.56,14.54 1.53,7.03 6.49,11.92 11.09,10.93 4.59,-1 7.08,-7.51 5.56,-14.54" /><path
         id="path340"
         style="fill:#17282f;fill-opacity:1;fill-rule:nonzero;stroke:none"
         d="m 3472.16,3156.23 c -1.52,-7.03 -6.48,-11.93 -11.08,-10.93 -4.6,1 -7.09,7.5 -5.56,14.54 1.52,7.03 6.49,11.92 11.08,10.93 4.6,-1 7.09,-7.51 5.56,-14.54" /><path
         id="path342"
         style="fill:#f14358;fill-opacity:1;fill-rule:nonzero;stroke:none"
         d="m 3496.67,3147.25 c 0,0 -24.78,-37.1 -46.63,-52.86 9.92,-14.3 32.22,-13.59 32.22,-13.59 l 14.41,66.45" /><path
         id="path344"
         style="fill:#17282f;fill-opacity:1;fill-rule:nonzero;stroke:none"
         d="m 3498.5,3056.95 0.04,-0.01 c 33.09,-7.17 53.17,12.22 54.01,13.05 l 0.01,2.99 -2.98,0.02 c -0.19,-0.19 -19.37,-18.6 -50.14,-11.93 -1.14,0.25 -2.27,-0.47 -2.52,-1.62 -0.24,-1.12 0.46,-2.23 1.58,-2.5" /><path
         id="path346"
         style="fill:#17282f;fill-opacity:1;fill-rule:nonzero;stroke:none"
         d="m 3581.07,3159.45 2.76,0.27 c 2.12,0.99 3.04,3.5 2.06,5.62 -9.83,21.2 -29.11,24.21 -29.93,24.34 -2.31,0.33 -4.45,-1.28 -4.78,-3.59 -0.33,-2.3 1.29,-4.44 3.55,-4.78 0.64,-0.1 15.65,-2.61 23.49,-19.53 0.57,-1.22 1.64,-2.04 2.85,-2.33" /><path
         id="path348"
         style="fill:#17282f;fill-opacity:1;fill-rule:nonzero;stroke:none"
         d="m 3443.2,3191.1 c 1.55,-0.37 3.26,0.16 4.31,1.5 11.64,14.82 27.16,13.63 27.32,13.61 2.33,-0.2 4.38,1.52 4.58,3.84 0.21,2.33 -1.56,4.38 -3.83,4.58 -0.83,0.08 -20.28,1.57 -34.72,-16.81 -1.44,-1.84 -1.12,-4.49 0.72,-5.93 l 1.62,-0.79" /><path
         id="path350"
         style="fill:#f46b74;fill-opacity:1;fill-rule:nonzero;stroke:none"
         d="m 3832.81,2743.98 c 18.19,-31.73 33.44,-62.52 49.15,-94.24 15.47,-31.58 29.94,-63.66 43.57,-96.27 13.58,-32.62 26.61,-65.61 38,-99.57 11.76,-33.72 22.1,-68.43 30.51,-104.26 l 6.09,-27.33 c 2.64,-12.89 3.73,-26.1 3.4,-38.97 -0.59,-25.88 -7.2,-49.81 -15.95,-70.64 -17.86,-41.89 -44.17,-72.87 -71.12,-99.96 -27.42,-26.79 -56.64,-49.35 -86.96,-69.36 -15.06,-10.12 -30.73,-19.16 -46.41,-27.96 -15.87,-8.87 -31.24,-16.85 -48.75,-24.62 l -33.25,58.14 c 12.06,9.55 25.41,20.29 37.8,30.78 12.56,10.6 24.54,21.82 36.46,32.81 23.55,22.28 45.76,45.4 64.31,69.47 18.65,23.73 33.55,49.11 40.24,71.43 3.38,11.16 4.27,21.23 3.62,29.68 -0.34,4.25 -1.12,8.18 -2.36,11.98 l -6.72,22.44 c -19.04,60.63 -44.44,121.83 -72.05,182.11 -13.68,30.23 -28.25,60.23 -42.86,90.22 -14.46,29.79 -30.26,60.12 -44.95,88.5 l 118.23,65.62" /><path
         id="path352"
         style="fill:#17282f;fill-opacity:1;fill-rule:nonzero;stroke:none"
         d="m 3814.44,2811.77 c 83.35,-18.11 141.39,-235.62 141.39,-235.62 l -149.17,-135.33 c 0,0 -72.86,76.58 -110.27,180.27 -39.19,108.66 28.77,210.06 118.05,190.68" /><path
         id="path354"
         style="fill:#f46b74;fill-opacity:1;fill-rule:nonzero;stroke:none"
         d="m 3718.71,2058.79 -95.88,-1 59.45,-96.65 c 0,0 68.28,16.88 74.41,51.18 l -37.98,46.47" /><path
         id="path356"
         style="fill:#f46b74;fill-opacity:1;fill-rule:nonzero;stroke:none"
         d="m 3563.07,2000.75 52.95,-77.63 66.26,38.02 -59.45,96.65 -59.76,-57.04" /><path
         id="path358"
         style="fill:#f46b74;fill-opacity:1;fill-rule:nonzero;stroke:none"
         d="m 3714.08,3056.72 c -11.14,-21.11 -30.99,-35.11 -49.83,-40.61 -28.33,-8.26 -42.83,17 -35.23,43.91 6.83,24.22 29.81,57.71 58.38,54.16 28.14,-3.5 39.41,-33.32 26.68,-57.46" /><path
         id="path360"
         style="fill:#406fbf;fill-opacity:1;fill-rule:nonzero;stroke:none"
         d="m 2758.04,1384.16 -0.72,9.98 106.59,7.71 0.72,-9.98 -106.59,-7.71" /><path
         id="path362"
         style="fill:#406fbf;fill-opacity:1;fill-rule:nonzero;stroke:none"
         d="m 2908.14,1395.02 -0.72,9.97 52.35,3.79 0.72,-9.98 -52.35,-3.78" /><path
         id="path364"
         style="fill:#406fbf;fill-opacity:1;fill-rule:nonzero;stroke:none"
         d="M 3419.54,2582.89 1654.42,2455.22 c -76.39,-5.53 -134.37,-72.55 -128.85,-148.94 l 60.2,-832.2 c 5.52,-76.39 72.55,-134.37 148.94,-128.85 l 99.84,7.22 c 15.13,1.1 28.29,-10.28 29.38,-25.42 l 11.16,-154.25 c 0.97,-13.38 17.64,-18.91 26.42,-8.76 l 167.38,193.48 c 7.03,8.13 17.01,13.14 27.73,13.91 l 1403.21,101.5 c 76.39,5.52 134.37,72.55 128.85,148.94 l -60.2,832.2 c -5.52,76.39 -72.54,134.37 -148.94,128.84" /><path
         id="path366"
         style="fill:#ffffff;fill-opacity:1;fill-rule:nonzero;stroke:none"
         d="m 1912.35,2073.61 95.34,6.89 7.81,-107.97 104.19,7.53 -7.81,107.98 95.77,6.93 22.32,-308.57 -95.77,-6.92 -9.03,124.81 -104.19,-7.54 9.03,-124.81 -95.34,-6.9 -22.32,308.57" /><path
         id="path368"
         style="fill:#c3c5c2;fill-opacity:1;fill-rule:nonzero;stroke:none"
         d="m 1724.64,1344.87 c -9.84,0 -19.48,1.04 -28.81,3.04 v 0 c 9.32,-2 18.96,-3.04 28.81,-3.04 3.34,0 6.68,0.12 10.07,0.36 l 15.3,1.11 c -0.2,-0.02 -0.41,-0.03 -0.61,-0.05 l -14.69,-1.06 c -3.38,-0.24 -6.73,-0.36 -10.07,-0.36" /><path
         id="path370"
         style="fill:#bfc0be;fill-opacity:1;fill-rule:nonzero;stroke:none"
         d="m 1820.01,2467.2 v 0 l 231.67,16.75 -231.67,-16.75" /><path
         id="path372"
         style="fill:#c3c5c2;fill-opacity:1;fill-rule:nonzero;stroke:none"
         d="m 1733.92,2460.97 v 0 l 86.09,6.23 v 0 l -86.09,-6.23" /><path
         id="path374"
         style="fill:#3563b7;fill-opacity:1;fill-rule:nonzero;stroke:none"
         d="m 1724.64,1344.87 c -9.85,0 -19.49,1.04 -28.81,3.04 -10.69,264.34 -48.35,649.61 -56.44,730.46 h 0.14 c 3.07,0 5.6,1.5 5.8,3.42 l 3.06,30.4 c 0.21,2.11 -2.44,3.89 -5.79,3.89 h -1.12 c 15.09,94.37 25.58,170.25 32.7,231.32 6.4,-14.85 13.14,-29.53 19.9,-44.17 4.55,-9.9 9.38,-19.66 14.15,-29.43 l 3.57,-7.33 2.69,-5.31 c 1.08,-2.15 2.47,-4.43 4.02,-6.7 5.82,-8.95 15.84,-18.53 27.97,-23.43 8.71,-3.71 17.36,-4.97 24.99,-4.97 2.92,0 5.69,0.19 8.25,0.49 9.46,1.1 17.2,3.51 24.13,6.18 13.8,5.44 24.58,12.11 34.79,19.01 19.93,14.11 36.95,29.16 52.82,45.14 15.82,15.92 30.67,32.3 44.95,49.03 13.96,17.12 27.53,33.95 40.32,52.32 l -30.69,25.94 c -15.14,-14.16 -30.6,-28.9 -46.44,-42.58 -15.57,-14.05 -31.46,-27.59 -47.68,-40.15 -16.25,-12.37 -32.55,-24.54 -48.81,-33.47 -7.95,-4.43 -16.01,-8.27 -22.43,-10.03 -0.79,-0.23 -1.55,-0.42 -2.26,-0.57 l -2.54,6.42 -11.55,29.52 c -7.84,19.61 -15,39.43 -22.56,59.05 -5.96,15.75 -11.62,31.56 -17.09,47.38 l 11.71,7.96 v 0 0 c 0,0 -0.85,5.04 -2.47,13.27 l 86.09,6.23 231.67,16.75 -77.89,-405.9 -61.44,-4.44 16.58,-229.31 -78.3,-408.01 c -9.45,-49.25 -50.67,-86.07 -100.62,-89.95 l -15.3,-1.11 c -3.39,-0.24 -6.73,-0.36 -10.07,-0.36 m 49.5,951.92 c -0.21,0 -0.39,0.01 -0.55,0.03 -0.88,0.03 -0.82,0.3 -0.1,0.3 0.37,0 0.92,-0.07 1.6,-0.28 -0.35,-0.03 -0.67,-0.05 -0.95,-0.05" /><path
         id="path376"
         style="fill:#c3c5c2;fill-opacity:1;fill-rule:nonzero;stroke:none"
         d="m 1928.93,1844.3 -16.58,229.31 61.44,4.44 -44.86,-233.75" /><path
         id="path378"
         style="fill:#ffffff;fill-opacity:1;fill-rule:nonzero;stroke:none"
         d="m 2439.14,1933.77 c -2.88,16.44 -8.19,27.97 -15.93,34.6 -7.75,6.64 -17.51,9.53 -29.3,8.68 -13.61,-0.99 -24.1,-7.18 -31.45,-18.57 -4.71,-7.11 -7.28,-17.38 -7.72,-30.81 z m 90.11,-34.74 -171.75,-12.42 c 2.54,-13.64 7,-23.62 13.38,-29.93 8.98,-9.08 20.13,-13.14 33.46,-12.17 8.42,0.6 16.27,3.29 23.54,8.04 4.44,3.01 9.08,8.07 13.92,15.19 l 84.97,-1.68 c -11.29,-23.39 -25.7,-40.62 -43.23,-51.69 -17.54,-11.07 -43.36,-17.84 -77.45,-20.31 -29.61,-2.14 -53.21,0.35 -70.79,7.47 -17.58,7.12 -32.61,19.37 -45.08,36.73 -12.47,17.37 -19.59,38.33 -21.37,62.88 -2.52,34.94 6.62,64.02 27.44,87.25 20.82,23.23 50.94,36.27 90.37,39.12 31.99,2.32 57.6,-0.7 76.82,-9.04 19.23,-8.34 34.34,-21.35 45.36,-39.03 11.01,-17.69 17.58,-41.26 19.71,-70.73 l 0.7,-9.68" /><path
         id="path380"
         style="fill:#ffffff;fill-opacity:1;fill-rule:nonzero;stroke:none"
         d="m 2555.79,2120.15 85.87,6.21 22.32,-308.56 -85.88,-6.22 -22.31,308.57" /><path
         id="path382"
         style="fill:#ffffff;fill-opacity:1;fill-rule:nonzero;stroke:none"
         d="m 2699.33,2130.53 85.88,6.21 22.32,-308.56 -85.88,-6.21 -22.32,308.56" /><path
         id="path384"
         style="fill:#ffffff;fill-opacity:1;fill-rule:nonzero;stroke:none"
         d="m 2929.55,1948.93 c 1.44,-19.93 6.54,-34.37 15.3,-43.32 8.76,-8.96 19.24,-13 31.45,-12.12 12.35,0.9 22.15,6.33 29.4,16.31 7.24,9.97 10.12,25.34 8.61,46.11 -1.4,19.36 -6.44,33.49 -15.12,42.38 -8.69,8.9 -18.92,12.92 -30.71,12.06 -12.49,-0.9 -22.45,-6.45 -29.9,-16.65 -7.44,-10.2 -10.45,-25.12 -9.03,-44.77 z m -85.86,-6.42 c -2.47,34.1 7.01,63.03 28.42,86.79 21.42,23.77 51.7,37.07 90.85,39.9 44.76,3.24 79.51,-7.3 104.26,-31.6 19.9,-19.58 30.95,-44.66 33.17,-75.25 2.48,-34.38 -6.88,-63.38 -28.1,-86.99 -21.21,-23.61 -51.95,-36.87 -92.22,-39.78 -35.93,-2.6 -65.63,4.42 -89.12,21.06 -28.86,20.62 -44.61,49.24 -47.26,85.87" /><path
         id="path386"
         style="fill:#ffffff;fill-opacity:1;fill-rule:nonzero;stroke:none"
         d="m 3147.67,1928.74 85.46,6.18 5.46,-75.56 -85.45,-6.18 z m -20.01,232.77 91.56,6.63 5.08,-70.3 -7.46,-142.52 -56.62,-4.09 -27.47,139.98 -5.09,70.3" /><path
         id="path388"
         style="fill:#17282f;fill-opacity:1;fill-rule:nonzero;stroke:none"
         d="m 1629.96,2729.64 c -0.46,-18.13 0.84,-33.2 2.32,-43.84 -117.36,-40.5 -226.3,-31.53 -281.51,-22.28 2.68,9.8 6.84,28.2 8.23,52.34 -1.76,-17.1 -11.47,-37.82 -18.31,-50.68 -17.76,3.42 -27.74,6.29 -27.74,6.29 0,0 18.12,98.49 -14.61,169.98 -32.74,71.58 -16.47,111.53 8.32,122.9 46.05,141.4 218.9,119.02 277.43,61.69 74.17,-72.79 74.64,-277.9 87.77,-324.79 -10.82,-4.72 -21.55,-9.06 -32.28,-12.85 -4.72,12.57 -9.34,28.11 -9.62,41.24" /><path
         id="path390"
         style="fill:#f9a8b3;fill-opacity:1;fill-rule:nonzero;stroke:none"
         d="m 1701.48,2509.48 9.04,-28.46 c 3.24,-9.8 6.6,-19.64 10.11,-29.46 6.71,-19.76 13.69,-39.53 21.14,-59.2 7.56,-19.62 14.72,-39.44 22.56,-59.05 l 11.55,-29.52 2.92,-7.38 0.66,-1.68 0.1,-0.27 -0.02,-0.26 c 0,0 -2,1.8 -4.2,2.55 -2.2,0.77 -3.13,0.12 -1.75,0.07 1.22,-0.12 3.93,0.21 7.09,1.12 6.42,1.76 14.48,5.6 22.43,10.03 16.26,8.93 32.56,21.1 48.81,33.47 16.22,12.56 32.11,26.1 47.68,40.15 15.84,13.68 31.3,28.42 46.44,42.58 l 30.69,-25.94 c -12.79,-18.37 -26.36,-35.2 -40.32,-52.32 -14.28,-16.73 -29.13,-33.11 -44.95,-49.03 -15.87,-15.98 -32.89,-31.03 -52.82,-45.14 -10.21,-6.9 -20.99,-13.57 -34.79,-19.01 -6.93,-2.67 -14.67,-5.08 -24.13,-6.18 -9.25,-1.09 -21.2,-0.65 -33.24,4.48 -12.13,4.9 -22.15,14.48 -27.97,23.43 -1.55,2.27 -2.94,4.55 -4.02,6.7 l -2.69,5.31 -3.57,7.33 c -4.77,9.77 -9.6,19.53 -14.15,29.43 -9.13,19.76 -18.22,39.6 -26.47,59.83 -8.38,20.18 -16.43,40.56 -24.07,61.2 -3.68,10.37 -7.23,20.83 -10.68,31.39 -3.55,10.76 -6.62,20.76 -9.78,33.02 l 78.4,20.81" /><path
         id="path392"
         style="fill:#406fbf;fill-opacity:1;fill-rule:nonzero;stroke:none"
         d="m 1677.82,2598.31 c 34.46,-8.78 58.57,-150.61 58.57,-150.61 l -94.97,-64.59 c 0,0 -91.06,143.09 -64.55,180.98 27.61,39.46 50.65,47.02 100.95,34.22" /><path
         id="path394"
         style="fill:#406fbf;fill-opacity:1;fill-rule:nonzero;stroke:none"
         d="m 1677.82,2598.31 c 34.46,-8.78 58.57,-150.61 58.57,-150.61 l -94.97,-64.59 c 0,0 -91.06,143.09 -64.55,180.98 27.61,39.46 50.65,47.02 100.95,34.22" /><path
         id="path396"
         style="fill:#7da6dd;fill-opacity:1;fill-rule:nonzero;stroke:none"
         d="m 1701.17,2423.75 -14.03,75.78 c 0.43,11.48 0.62,21.64 0.62,30.62 0,64.66 -9.94,68.16 -9.94,68.16 0,0 -10.42,2.13 -26.93,5.12 8.08,-0.85 16.96,-2.59 26.93,-5.12 34.46,-8.78 58.57,-150.61 58.57,-150.61 l -35.22,-23.95" /><path
         id="path398"
         style="fill:#b8767a;fill-opacity:1;fill-rule:nonzero;stroke:none"
         d="m 1680.83,2409.88 c 0,0.01 0.01,0.03 0.01,0.04 l 20.33,13.83 0.01,-0.08 -20.35,-13.79" /><path
         id="path400"
         style="fill:#5578bb;fill-opacity:1;fill-rule:nonzero;stroke:none"
         d="m 1680.84,2409.92 c 3.45,36.47 5.4,65.87 6.3,89.61 l 14.03,-75.78 -20.33,-13.83" /><path
         id="path402"
         style="fill:#f9a8b3;fill-opacity:1;fill-rule:nonzero;stroke:none"
         d="m 1944.27,2420.44 31.68,76.33 39.11,-76.33 c 0,0 -25.38,-38 -58.89,-28.73 l -11.9,28.73" /><path
         id="path404"
         style="fill:#f9a8b3;fill-opacity:1;fill-rule:nonzero;stroke:none"
         d="m 2010.89,2504.74 50.22,-20.25 -46.05,-64.05 -39.11,76.33 34.94,7.97" /><path
         id="path406"
         style="fill:#f9a8b3;fill-opacity:1;fill-rule:nonzero;stroke:none"
         d="m 1491.35,211.121 h 83.62 l 5.59,193.649 h -83.63 l -5.58,-193.649" /><path
         id="path408"
         style="fill:#f9a8b3;fill-opacity:1;fill-rule:nonzero;stroke:none"
         d="m 930.105,460.57 76.935,-32.761 100.61,167.64 -76.94,32.762 L 930.105,460.57" /><path
         id="path410"
         style="fill:#17282f;fill-opacity:1;fill-rule:nonzero;stroke:none"
         d="m 1021.79,439.191 -80.032,49.2 c -2.914,1.789 -6.52,1.218 -8.68,-1.379 l -48.039,-57.723 c -4.984,-5.98 -3.156,-15.668 3.637,-19.68 28.199,-16.668 42.652,-23.3 77.851,-44.937 21.653,-13.301 51.903,-35 81.813,-53.383 29.24,-17.969 49.67,10.211 38.86,20.543 -48.45,46.328 -47.09,68.297 -56.19,95.66 -1.64,4.938 -4.96,9.078 -9.22,11.699" /><path
         id="path412"
         style="fill:#17282f;fill-opacity:1;fill-rule:nonzero;stroke:none"
         d="m 1577.84,220.801 h -93.95 c -3.42,0 -6.19,-2.371 -6.67,-5.711 l -10.7,-74.328 c -1.11,-7.711 5.52,-15.012 13.4,-14.871 32.76,0.558 48.54,2.488 89.85,2.488 25.42,0 77.99,-2.641 113.09,-2.641 34.33,0 36.97,34.703 22.36,37.852 -65.53,14.09 -91.33,33.531 -113.4,52.07 -3.98,3.34 -8.98,5.141 -13.98,5.141" /><path
         id="path414"
         style="fill:#c3c5c2;fill-opacity:1;fill-rule:nonzero;stroke:none"
         d="m 1494.05,304.898 h -0.03 l 0.55,19.332 h 0.04 l -0.56,-19.332" /><path
         id="path416"
         style="fill:#d8898c;fill-opacity:1;fill-rule:nonzero;stroke:none"
         d="m 1577.68,304.898 h -83.63 l 0.56,19.332 h 83.62 l -0.55,-19.332" /><path
         id="path418"
         style="fill:#c3c5c2;fill-opacity:1;fill-rule:nonzero;stroke:none"
         d="m 978.824,541.75 -0.058,0.02 10.05,16.742 0.051,-0.032 -10.043,-16.73" /><path
         id="path420"
         style="fill:#d8898c;fill-opacity:1;fill-rule:nonzero;stroke:none"
         d="m 1055.74,509 -76.916,32.75 10.043,16.73 76.923,-32.75 -10.05,-16.73" /><path
         id="path422"
         style="fill:#406fbf;fill-opacity:1;fill-rule:nonzero;stroke:none"
         d="m 1677.82,2598.31 c 0,0 39.84,-14.03 -39.96,-504.71 -134.77,0 -274.05,0 -339.63,0 5.7,138.23 5.86,223.46 -60.2,507.13 0,0 71.16,15.48 144.22,19 57.15,2.76 103.97,4.58 154.22,0 66.23,-6.05 141.35,-21.42 141.35,-21.42" /><path
         id="path424"
         style="fill:#7da6dd;fill-opacity:1;fill-rule:nonzero;stroke:none"
         d="m 1641.48,2116.08 h -20.01 l 0.06,0.6 c 0.01,0.04 0.01,0.09 0.01,0.13 0.01,1.09 -1.35,1.97 -3.11,1.97 h -9.21 c -1.84,0 -3.44,-0.95 -3.57,-2.1 l -0.06,-0.6 h -121.28 l 0.07,0.6 c 0,0.04 0,0.09 0,0.13 0.01,1.09 -1.35,1.97 -3.11,1.97 h -9.21 c -1.83,0 -3.44,-0.95 -3.56,-2.1 l -0.07,-0.6 h -121.27 l 0.06,0.6 c 0.01,0.04 0.01,0.09 0.01,0.13 0.01,1.09 -1.35,1.97 -3.11,1.97 h -9.21 c -1.84,0 -3.44,-0.95 -3.57,-2.1 l -0.07,-0.6 h -32.15 c 0.85,23.06 1.43,44.96 1.43,66.98 0,59.05 -4.19,119.07 -18.65,205.25 l 13.24,-9.47 c 0,0 36.53,74.21 36.5,122.42 0,7.13 -0.81,13.7 -2.65,19.37 -13.29,40.86 -44.37,81.97 -78.49,81.97 -1.51,0 -3.02,-0.08 -4.54,-0.24 20.51,4.07 77.79,14.55 136.29,17.37 v 0 0 c 0,0 13.56,-50.33 105.76,-50.33 101.39,0 48.46,50.33 48.46,50.33 v 0 0 c 66.23,-6.05 141.35,-21.42 141.35,-21.42 0,0 9.94,-3.5 9.94,-68.16 0,-27.53 -1.79,-66.13 -6.93,-120.27 -1.79,-18.87 -3.98,-39.65 -6.65,-62.48 -7.12,-61.07 -17.61,-136.95 -32.7,-231.32" /><path
         id="path426"
         style="fill:#ffffff;fill-opacity:1;fill-rule:nonzero;stroke:none"
         d="m 1382.24,2619.78 c 57.15,2.68 103.94,4.53 154.25,-0.1 8.33,-0.74 16.83,-1.66 25.25,-2.68 5.64,-9.71 9.89,-22.75 4.62,-36.07 -10.82,-26.91 -49.84,-30.05 -78.33,-30.05 -105.14,0 -122.9,61.41 -123.64,63.99 l -1.02,3.7 c 6.29,0.47 12.58,0.93 18.87,1.21" /><path
         id="path428"
         style="fill:#f9a8b3;fill-opacity:1;fill-rule:nonzero;stroke:none"
         d="m 1397.53,2793.38 c 9.73,-49.62 19.43,-140.54 -15.28,-173.65 0,0 13.56,-50.33 105.76,-50.33 101.39,0 48.46,50.33 48.46,50.33 -55.34,13.21 -53.91,54.26 -44.27,92.82 l -94.67,80.83" /><path
         id="path430"
         style="fill:#17282f;fill-opacity:1;fill-rule:nonzero;stroke:none"
         d="m 1407.63,2828.7 c -11.89,-39.29 4.54,-132.3 29.07,-168.27 -48.32,27.65 -64.64,112.09 -64.64,112.09 l 35.57,56.18" /><path
         id="path432"
         style="fill:#111d23;fill-opacity:1;fill-rule:nonzero;stroke:none"
         d="m 1487.4,2685.22 c 0,0 -0.01,0 -0.02,0 0.06,0.68 0.12,1.37 0.19,2.05 -0.06,-0.68 -0.12,-1.37 -0.17,-2.05 m 4.75,27.36 -13.55,11.58 13.56,-11.57 c 0,0 -0.01,0 -0.01,-0.01" /><path
         id="path434"
         style="fill:#d8898c;fill-opacity:1;fill-rule:nonzero;stroke:none"
         d="m 1487.38,2685.22 c -21.13,3.06 -50.16,26.26 -52.4,48.39 -1.12,11.04 -0.66,21.65 1.14,26.79 l 42.48,-36.24 13.55,-11.58 c -2.13,-8.42 -3.83,-16.97 -4.58,-25.31 -0.07,-0.68 -0.13,-1.37 -0.19,-2.05" /><path
         id="path436"
         style="fill:#f9a8b3;fill-opacity:1;fill-rule:nonzero;stroke:none"
         d="m 1351.73,2882.02 c 19.35,-80.71 25.81,-115.28 74.38,-149.92 73.05,-52.09 167.95,-10.67 173.1,74.19 4.64,76.38 -27.79,195.53 -113.35,213.96 -84.3,18.16 -153.49,-57.53 -134.13,-138.23" /><path
         id="path438"
         style="fill:#406fbf;fill-opacity:1;fill-rule:nonzero;stroke:none"
         d="m 1637.86,2093.6 c 0,0 65.95,-644.16 60.47,-899.17 -5.7,-265.25 -102.89,-870.2 -102.89,-870.2 h -113.08 c 0,0 17.9,589.45 7.9,849.95 -10.89,284 -101.1,919.42 -101.1,919.42 h 248.7" /><path
         id="path440"
         style="fill:#2251aa;fill-opacity:1;fill-rule:nonzero;stroke:none"
         d="m 1595.44,324.23 h -113.08 c 0,0 10.94,360.219 10.94,641.918 0,78.652 -0.86,151.182 -3.04,208.032 -2.69,70.26 -10.24,162.03 -20.08,260.36 3.05,-30.46 5.89,-60.27 8.43,-89.02 25.26,97.52 77.78,336.01 39.96,507.9 13.75,106.23 23.9,191.53 27.82,224.95 h 55.07 l -0.13,-1.19 c 0,-0.05 -0.01,-0.09 -0.01,-0.14 0,-1.09 1.36,-1.96 3.12,-1.96 h 9.21 c 1.83,0 3.44,0.94 3.56,2.1 l 0.13,1.19 h 22.05 c 9.45,-94.44 59.25,-604.27 59.27,-851.5 0,-11.4 -0.11,-22.23 -0.33,-32.44 -1.64,-76.43 -10.87,-181.03 -23.2,-291.27 -1.96,-17.558 -4,-35.32 -6.11,-53.07 -4.66,-39.43 -9.62,-79.059 -14.68,-117.988 -12.7,-97.832 -26.03,-190.973 -36.77,-263.454 -0.87,-5.816 -1.71,-11.468 -2.54,-17.019 -0.12,-0.84 -0.25,-1.668 -0.37,-2.5 -11.37,-76.027 -19.22,-124.899 -19.22,-124.899" /><path
         id="path442"
         style="fill:#406fbf;fill-opacity:1;fill-rule:nonzero;stroke:none"
         d="m 1472.56,320.18 h 132.68 l 9.73,42.32 -148.58,5.18 6.17,-47.5" /><path
         id="path444"
         style="fill:#c3c5c2;fill-opacity:1;fill-rule:nonzero;stroke:none"
         d="m 1470.18,1434.54 c -1.5,14.93 -3.05,30.03 -4.64,45.21 0,0.02 0,0.01 0,0.03 1.6,-15.2 3.14,-30.3 4.64,-45.24" /><path
         id="path446"
         style="fill:#24427c;fill-opacity:1;fill-rule:nonzero;stroke:none"
         d="m 1478.61,1345.52 c -2.54,28.75 -5.38,58.56 -8.43,89.02 -1.5,14.94 -3.04,30.04 -4.64,45.24 19.64,123.36 38.38,260.4 53.03,373.64 37.82,-171.89 -14.7,-410.38 -39.96,-507.9" /><path
         id="path448"
         style="fill:#406fbf;fill-opacity:1;fill-rule:nonzero;stroke:none"
         d="m 1548.17,2093.6 c 0,0 -76.94,-669.68 -135.03,-884.68 -68.98,-255.26 -331.25,-690.049 -331.25,-690.049 l -104.917,44.68 c 0,0 162.357,493.569 215.097,628.049 112.56,287 16.21,714.71 106.16,902 h 249.94" /><path
         id="path450"
         style="fill:#2251aa;fill-opacity:1;fill-rule:nonzero;stroke:none"
         d="m 1081.89,518.871 -16.1,6.859 -76.923,32.75 -11.894,5.071 c 0,0 162.357,493.569 215.097,628.049 87.45,222.98 48.8,530.89 69.39,745 l 16.49,6.77 -11.09,37.71 c 5.46,36.32 13.31,69.09 24.67,97.29 h 35.62 l -0.13,-1.19 c 0,-0.05 -0.01,-0.09 -0.01,-0.14 -0.01,-1.09 1.35,-1.96 3.12,-1.96 h 9.21 c 1.83,0 3.43,0.94 3.56,2.1 l 0.13,1.19 h 121.28 l -0.13,-1.19 c -0.01,-0.05 -0.01,-0.09 -0.01,-0.14 -0.01,-1.09 1.35,-1.96 3.11,-1.96 h 9.21 c 1.84,0 3.44,0.94 3.57,2.1 l 0.13,1.19 h 66.2 c -3.92,-33.42 -14.07,-118.72 -27.82,-224.95 -14.65,-113.24 -33.39,-250.28 -53.03,-373.64 v 0 c 0,-0.02 0,-0.01 0,-0.03 -17.51,-109.99 -35.73,-209.14 -52.4,-270.83 -24.23,-89.66 -72.3,-201.46 -124.49,-308.799 -0.4,-0.82 -0.81,-1.68 -1.21,-2.5 -0.15,-0.301 -0.28,-0.582 -0.43,-0.883 -9.83,-20.156 -19.78,-40.117 -29.75,-59.769 -13.59,-26.789 -27.21,-52.957 -40.49,-78.02 C 1144.61,622.84 1081.89,518.871 1081.89,518.871" /><path
         id="path452"
         style="fill:#406fbf;fill-opacity:1;fill-rule:nonzero;stroke:none"
         d="m 962.551,563.211 130.159,-55.422 31.28,35.012 -150.166,72.097 -11.273,-51.687" /><path
         id="path454"
         style="fill:#17282f;fill-opacity:1;fill-rule:nonzero;stroke:none"
         d="m 1479.48,2880.96 c 1.17,-6.64 5.64,-11.41 9.98,-10.64 4.34,0.76 6.92,6.76 5.75,13.41 -1.17,6.64 -5.64,11.41 -9.98,10.64 -4.34,-0.76 -6.91,-6.76 -5.75,-13.41" /><path
         id="path456"
         style="fill:#17282f;fill-opacity:1;fill-rule:nonzero;stroke:none"
         d="m 1554.57,2894.16 c 1.17,-6.64 5.64,-11.41 9.98,-10.64 4.34,0.76 6.91,6.76 5.75,13.41 -1.17,6.64 -5.64,11.4 -9.98,10.64 -4.34,-0.76 -6.92,-6.77 -5.75,-13.41" /><path
         id="path458"
         style="fill:#17282f;fill-opacity:1;fill-rule:nonzero;stroke:none"
         d="m 1558.47,2906.87 15.14,7.4 c 0,0 -5.99,-13.9 -15.14,-7.4" /><path
         id="path460"
         style="fill:#f46878;fill-opacity:1;fill-rule:nonzero;stroke:none"
         d="m 1536.73,2879.26 c 0,0 16.3,-26.62 31.14,-38.24 -7.34,-9.72 -22.9,-8.61 -22.9,-8.61 l -8.24,46.85" /><path
         id="path462"
         style="fill:#17282f;fill-opacity:1;fill-rule:nonzero;stroke:none"
         d="m 1514.88,2801.14 c 3.55,0 7.32,0.31 11.31,1 1.07,0.19 1.79,1.22 1.6,2.3 -0.19,1.07 -1.18,1.79 -2.29,1.61 -29.13,-5.14 -46.35,12.84 -46.52,13.02 l -2.8,0.1 -0.1,-2.79 c 0.66,-0.71 14.51,-15.2 38.8,-15.24" /><path
         id="path464"
         style="fill:#17282f;fill-opacity:1;fill-rule:nonzero;stroke:none"
         d="m 1380,2929.37 c 1.67,-24.42 10,-63.33 10,-63.33 0,0 50.05,63.23 58.27,97.14 -5.13,-27.23 -11.44,-38.52 -11.44,-38.52 0,0 67.3,14.63 73.85,59.06 -0.64,-36.21 -6.55,-59.06 -6.55,-59.06 0,0 64.2,25.16 58.3,67.8 -5.89,42.65 -104.54,59.09 -149.75,44.7 -45.21,-14.38 -89.89,-61.15 -76.55,-125.36 13.34,-64.21 39.05,-88.32 39.05,-88.32 0,0 -18.81,64.79 4.82,105.89" /><path
         id="path466"
         style="fill:#f9a8b3;fill-opacity:1;fill-rule:nonzero;stroke:none"
         d="m 1348.21,2821.19 c 6.46,-15.94 19.69,-27.41 32.8,-32.7 19.72,-7.97 31.94,9.1 28.43,28.94 -3.16,17.87 -17.23,43.53 -37.97,43.05 -20.43,-0.48 -30.66,-21.06 -23.26,-39.29" /><path
         id="path468"
         style="fill:#17282f;fill-opacity:1;fill-rule:nonzero;stroke:none"
         d="m 1392.13,2960.1 c -10.02,-39.82 10.79,-131.95 36.99,-166.72 -49.58,25.34 -69.87,108.92 -69.87,108.92 l 32.88,57.8" /><path
         id="path470"
         style="fill:#17282f;fill-opacity:1;fill-rule:nonzero;stroke:none"
         d="m 1452.64,2903.72 c 1,0.3 1.88,1 2.39,2.01 7.92,15.79 22.38,17.61 22.54,17.63 2.15,0.26 3.74,2.21 3.49,4.39 -0.25,2.17 -2.21,3.73 -4.38,3.48 -0.76,-0.09 -18.91,-2.34 -28.73,-21.95 -0.98,-1.96 -0.19,-4.33 1.77,-5.32 0.94,-0.47 1.98,-0.53 2.92,-0.24" /><path
         id="path472"
         style="fill:#17282f;fill-opacity:1;fill-rule:nonzero;stroke:none"
         d="m 1581.89,2934.69 c 0.99,0 1.97,0.36 2.74,1.1 1.58,1.51 1.64,4.01 0.14,5.6 -15.12,15.86 -33.14,12.73 -33.9,12.58 -2.15,-0.4 -3.58,-2.47 -3.17,-4.61 0.39,-2.15 2.46,-3.57 4.6,-3.18 0.71,0.13 14.71,2.36 26.73,-10.26 0.78,-0.81 1.82,-1.22 2.86,-1.23" /><path
         id="path474"
         style="fill:#f9a8b3;fill-opacity:1;fill-rule:nonzero;stroke:none"
         d="m 1279.27,2482.01 c -13.88,-43.92 -27.14,-90.06 -38.43,-135.39 -10.85,-45.55 -20.61,-91.46 -24.9,-136.28 l -0.83,-8.41 c -0.18,-2.71 -0.29,-3.34 -0.29,-5.67 0.05,-4.1 0.35,-8.95 1.04,-14.13 1.17,-10.3 3.16,-21.42 5.49,-32.57 4.79,-22.36 10.51,-45.34 16.83,-68.18 6.03,-22.97 12.58,-45.98 19.45,-68.94 l 20.32,-69.07 -37.17,-15.26 c -22.79,43.61 -42.58,88.04 -61.09,133.81 -8.88,23.03 -17.61,46.21 -24.78,70.68 -3.62,12.26 -7.03,24.72 -9.71,38.27 -1.32,6.74 -2.39,13.91 -3.02,21.88 -0.32,3.69 -0.38,9.13 -0.32,12.43 l 0.35,9.68 c 0.66,25.92 3.43,51.1 6.99,76.03 3.32,24.99 8.24,49.42 13.45,73.76 10.59,48.81 23.39,95.86 39.89,143.69 l 76.73,-26.33" /><path
         id="path476"
         style="fill:#406fbf;fill-opacity:1;fill-rule:nonzero;stroke:none"
         d="m 1238.03,2600.73 c -34.03,-10.35 -74.89,-127.51 -74.89,-127.51 l 132,-94.38 c 0,0 48.15,97.8 33.85,141.79 -14.89,45.8 -52.13,91.91 -90.96,80.1" /><path
         id="path478"
         style="fill:#7da6dd;fill-opacity:1;fill-rule:nonzero;stroke:none"
         d="m 1295.14,2378.84 -38.46,27.5 -70.61,50.48 -22.93,16.4 c 0,0 40.86,117.16 74.89,127.51 4.18,1.27 8.35,1.87 12.47,1.87 34.12,0 65.2,-41.11 78.49,-81.97 1.84,-5.67 2.65,-12.24 2.65,-19.37 0.03,-48.21 -36.5,-122.42 -36.5,-122.42" /><path
         id="path480"
         style="fill:#406fbf;fill-opacity:1;fill-rule:nonzero;stroke:none"
         d="m 1027.55,425.352 c 12.09,-0.082 28.27,-1.731 31.42,-6.383 0.4,-0.59 0.77,-1.457 0.09,-3.008 -1.25,-2.859 -3.04,-4.481 -5.41,-4.941 -5.64,-1.071 -15.22,4.242 -26.1,14.332 z m 28.05,-17.922 c 3.12,0.98 5.51,3.308 7.09,6.949 1.36,3.09 0.51,5.41 -0.44,6.812 -5.98,8.84 -36.2,8.168 -39.63,8.071 l -1.78,-1.25 0.45,-2.133 c 7.88,-7.859 22.66,-20.731 33.1,-18.75 l 1.21,0.301" /><path
         id="path482"
         style="fill:#406fbf;fill-opacity:1;fill-rule:nonzero;stroke:none"
         d="m 1045.65,447.539 1.23,0.301 c 2.04,0.351 3.8,-0.078 5.38,-1.34 1.99,-1.578 1.86,-2.82 1.53,-3.719 -2.03,-5.5 -17.2,-12.082 -27.3,-13.32 4.33,6.211 12.28,15.937 19.16,18.078 z m -9.23,-19.789 c 9.21,2.871 18.98,7.941 21.09,13.648 0.64,1.731 1.12,5.094 -2.79,8.204 -2.48,1.98 -5.35,2.699 -8.52,2.136 -11.91,-2.097 -24.67,-22.547 -25.2,-23.429 l -0.06,-1.969 1.67,-1.039 c 3.36,-0.121 8.49,0.801 13.81,2.449" /><path
         id="path484"
         style="fill:#406fbf;fill-opacity:1;fill-rule:nonzero;stroke:none"
         d="m 1624.14,223.488 c 1.53,0 2.79,-0.226 3.7,-0.718 0.81,-0.45 1.21,-1.11 1.31,-2.149 0.24,-2.672 -0.51,-4.75 -2.28,-6.34 -5.08,-4.57 -18.85,-5.371 -37.37,-2.281 11.47,5.512 26.71,11.488 34.64,11.488 z m -14.9,-17.308 c 8.31,0 15.98,1.289 20.28,5.148 2.72,2.453 3.93,5.703 3.57,9.652 -0.21,2.36 -1.37,4.18 -3.35,5.27 -10.25,5.621 -43.59,-11.41 -47.35,-13.371 l -1.05,-2.039 1.58,-1.66 c 7.1,-1.418 17.11,-3 26.32,-3" /><path
         id="path486"
         style="fill:#406fbf;fill-opacity:1;fill-rule:nonzero;stroke:none"
         d="m 1603.22,243.039 1.2,-0.07 c 3.61,-0.36 3.85,-1.809 3.93,-2.278 0.92,-5.691 -12.46,-19.882 -22.61,-26.031 0.97,6.551 3.75,20.059 10.65,25.801 2.07,1.719 4.32,2.578 6.83,2.578 z m -19.92,-33.898 0.82,0.179 c 9.96,4.5 29.68,22.539 28.13,32.008 -0.36,2.242 -1.95,5.031 -7.43,5.582 -4.09,0.379 -7.76,-0.73 -10.97,-3.41 -10.51,-8.762 -12.45,-31.27 -12.52,-32.219 l 0.83,-1.781 1.14,-0.359" /><path
         id="path488"
         style="fill:#17282f;fill-opacity:1;fill-rule:nonzero;stroke:none"
         d="m 1293.15,2113.53 -8.69,-30.4 c -1.19,-2.36 1.61,-4.76 5.53,-4.76 h 349.54 c 3.07,0 5.6,1.5 5.8,3.42 l 3.06,30.4 c 0.21,2.11 -2.44,3.89 -5.79,3.89 h -343.92 c -2.53,0 -4.77,-1.03 -5.53,-2.55" /><path
         id="path490"
         style="fill:#406fbf;fill-opacity:1;fill-rule:nonzero;stroke:none"
         d="m 1339.34,2075.08 h -9.21 c -1.84,0 -3.24,0.94 -3.11,2.1 l 4.32,39.5 c 0.13,1.15 1.73,2.1 3.57,2.1 h 9.21 c 1.83,0 3.23,-0.95 3.1,-2.1 l -4.32,-39.5 c -0.13,-1.16 -1.73,-2.1 -3.56,-2.1" /><path
         id="path492"
         style="fill:#2251aa;fill-opacity:1;fill-rule:nonzero;stroke:none"
         d="m 1339.34,2075.08 h -9.21 c -1.77,0 -3.13,0.87 -3.12,1.96 0,0.05 0.01,0.09 0.01,0.14 l 4.32,39.5 c 0.13,1.15 1.73,2.1 3.57,2.1 h 9.21 c 1.76,0 3.12,-0.88 3.11,-1.97 0,-0.04 0,-0.09 -0.01,-0.13 l -0.06,-0.6 -4.13,-37.71 -0.13,-1.19 c -0.13,-1.16 -1.73,-2.1 -3.56,-2.1" /><path
         id="path494"
         style="fill:#406fbf;fill-opacity:1;fill-rule:nonzero;stroke:none"
         d="m 1613.65,2075.08 h -9.21 c -1.84,0 -3.23,0.94 -3.11,2.1 l 4.32,39.5 c 0.13,1.15 1.73,2.1 3.57,2.1 h 9.21 c 1.83,0 3.23,-0.95 3.1,-2.1 l -4.32,-39.5 c -0.12,-1.16 -1.73,-2.1 -3.56,-2.1" /><path
         id="path496"
         style="fill:#2251aa;fill-opacity:1;fill-rule:nonzero;stroke:none"
         d="m 1613.65,2075.08 h -9.21 c -1.76,0 -3.12,0.87 -3.12,1.96 0,0.05 0.01,0.09 0.01,0.14 l 4.32,39.5 c 0.13,1.15 1.73,2.1 3.57,2.1 h 9.21 c 1.76,0 3.12,-0.88 3.11,-1.97 0,-0.04 0,-0.09 -0.01,-0.13 l -0.06,-0.6 -4.13,-37.71 -0.13,-1.19 c -0.12,-1.16 -1.73,-2.1 -3.56,-2.1" /><path
         id="path498"
         style="fill:#406fbf;fill-opacity:1;fill-rule:nonzero;stroke:none"
         d="m 1476.49,2075.08 h -9.21 c -1.83,0 -3.23,0.94 -3.1,2.1 l 4.32,39.5 c 0.12,1.15 1.73,2.1 3.56,2.1 h 9.21 c 1.84,0 3.23,-0.95 3.11,-2.1 l -4.32,-39.5 c -0.13,-1.16 -1.73,-2.1 -3.57,-2.1" /><path
         id="path500"
         style="fill:#2251aa;fill-opacity:1;fill-rule:nonzero;stroke:none"
         d="m 1476.49,2075.08 h -9.21 c -1.76,0 -3.12,0.87 -3.11,1.96 0,0.05 0,0.09 0.01,0.14 l 4.32,39.5 c 0.12,1.15 1.73,2.1 3.56,2.1 h 9.21 c 1.76,0 3.12,-0.88 3.11,-1.97 0,-0.04 0,-0.09 0,-0.13 l -0.07,-0.6 -4.12,-37.71 -0.13,-1.19 c -0.13,-1.16 -1.73,-2.1 -3.57,-2.1" /><path
         id="path502"
         style="fill:#17282f;fill-opacity:1;fill-rule:nonzero;stroke:none"
         d="m 1483.38,2893.67 15.15,7.4 c 0,0 -6,-13.9 -15.15,-7.4" /><path
         id="path504"
         style="fill:#f9a8b3;fill-opacity:1;fill-rule:nonzero;stroke:none"
         d="m 1275.12,1954.67 71.68,-54.99 -83.06,-18.23 c 0,0 -35.38,40.4 -23.14,72.93 l 34.52,0.29" /><path
         id="path506"
         style="fill:#f9a8b3;fill-opacity:1;fill-rule:nonzero;stroke:none"
         d="m 1364.36,1831.61 -70.37,-11.5 -38.44,72.24 91.25,7.33 17.56,-68.07" /></g></g></svg>