<svg width="511" height="309" viewBox="0 0 511 309" fill="none" xmlns="http://www.w3.org/2000/svg">
<g clip-path="url(#clip0)">
<path d="M489.394 297.12H445.231V296.787H489.394V297.12Z" fill="#E7E8E5"/>
<path d="M316.843 296.62H328.433V296.953H316.843V296.62Z" fill="#E7E8E5"/>
<path d="M510.868 304.39H485.278V304.057H510.868V304.39Z" fill="#E7E8E5"/>
<path d="M6.21777 308.473H63.8088V308.807H6.21777V308.473Z" fill="#E7E8E5"/>
<path d="M50.4077 293.916H58.8517V294.249H50.4077V293.916Z" fill="#E7E8E5"/>
<path d="M161.061 295.339H242.258V295.672H161.061V295.339Z" fill="#E7E8E5"/>
<path d="M56.1397 223.13H54.493L54.4917 222.797H56.2517C56.2144 222.909 56.177 223.02 56.1397 223.13" fill="#EEEEEC"/>
<path d="M46.3249 223.13H26.6007L26.5996 222.797H46.3276L46.3249 223.13Z" fill="#EEEEEC"/>
<path d="M22.6606 223.13H0.0366211V222.797H22.6617L22.6606 223.13Z" fill="#EEEEEC"/>
<path d="M54.4932 223.13H46.3252L46.3279 222.797H54.4919L54.4932 223.13Z" fill="#E4E4E2"/>
<path d="M26.6008 223.13H22.6606L22.6617 222.797H26.5997L26.6008 223.13Z" fill="#E4E4E2"/>
<path d="M471.321 223.13H487.423V222.797H471.321V223.13Z" fill="#EEEEEC"/>
<path d="M467.381 223.13H450.579L450.578 222.797H467.382L467.381 223.13" fill="#EEEEEC"/>
<path d="M446.639 223.13H426.028L426.025 222.797H446.64L446.639 223.13Z" fill="#EEEEEC"/>
<path d="M394.288 223.13H386.683V222.797H394.231C394.251 222.912 394.268 223.017 394.288 223.13Z" fill="#EEEEEC"/>
<path d="M426.028 223.13H424.096C424.089 223.016 424.081 222.912 424.073 222.797H426.025L426.028 223.13Z" fill="#E4E4E2"/>
<path d="M450.58 223.13H446.639L446.64 222.797H450.579L450.58 223.13" fill="#E4E4E2"/>
<path d="M471.321 223.13H467.381L467.382 222.797H471.321V223.13Z" fill="#E4E4E2"/>
<path d="M415.053 22.624C415.051 22.6213 415.05 22.6173 415.049 22.6146C414.965 15.664 415.059 8.29461 415.446 0.698606L415.453 0.703944C415.066 8.29061 414.973 15.6653 415.053 22.624Z" fill="#BCBEBC"/>
<path d="M140.952 163.497C139.64 163.497 138.354 163.359 137.11 163.092C138.353 163.359 139.638 163.497 140.952 163.497C141.397 163.497 141.842 163.481 142.294 163.449L144.334 163.301C144.308 163.304 144.28 163.305 144.253 163.308L142.294 163.449C141.844 163.481 141.397 163.497 140.952 163.497Z" fill="#C3C5C2"/>
<path d="M110.206 302.16H110.202L110.275 299.583H110.281L110.206 302.16Z" fill="#C3C5C2"/>
<path d="M41.5097 270.58L41.502 270.577L42.842 268.345L42.8488 268.349L41.5097 270.58" fill="#C3C5C2"/>
<path d="M372.111 80.6322L124.828 82.0413C114.126 82.1029 105.42 90.9042 105.481 101.601L106.155 218.128C106.216 228.825 115.024 237.527 125.725 237.466L139.712 237.387C141.832 237.374 143.561 239.082 143.573 241.202L143.698 262.801C143.709 264.674 145.982 265.599 147.3 264.266L172.432 238.858C173.487 237.79 174.925 237.185 176.427 237.177L373.008 236.056C383.71 235.996 392.416 227.193 392.355 216.497L391.681 99.9687C391.62 89.2723 382.814 80.5707 372.111 80.6322" fill="white" fill-opacity="0.04"/>
<path d="M162.068 110.636L189.573 110.479L162.068 110.636" fill="#BFC0BE"/>
<path d="M151.848 110.695L162.069 110.636L151.848 110.695Z" fill="#C3C5C2"/>
<path d="M145.173 116.314C145.173 116.313 145.175 116.31 145.175 116.309L147.686 114.835L147.686 114.845L145.173 116.314Z" fill="#B8767A"/>
<path d="M162.313 146.429C160.977 146.429 159.951 146.073 159.235 145.362C158.518 144.651 158.16 143.616 158.16 142.258V116.364C158.16 115.039 158.551 113.988 159.333 113.212C160.147 112.404 161.238 112 162.606 112C164.006 112 165.113 112.404 165.928 113.212C166.742 113.988 167.149 115.039 167.149 116.364V139.204H178.385C181.218 139.204 182.635 140.416 182.635 142.84C182.635 144.069 182.276 144.974 181.56 145.556C180.876 146.138 179.817 146.429 178.385 146.429H162.313Z" fill="#FBFBFB"/>
<path d="M204.784 138.767C205.533 138.767 206.135 139.058 206.591 139.64C207.08 140.222 207.324 140.982 207.324 141.919C207.324 143.212 206.689 144.198 205.419 144.877C204.312 145.427 202.993 145.895 201.462 146.283C199.964 146.639 198.58 146.817 197.31 146.817C194.639 146.817 192.311 146.316 190.324 145.313C188.337 144.311 186.807 142.873 185.732 140.998C184.657 139.123 184.12 136.924 184.12 134.403C184.12 132.011 184.625 129.877 185.634 128.002C186.676 126.095 188.109 124.624 189.933 123.589C191.79 122.523 193.874 121.989 196.186 121.989C198.433 121.989 200.404 122.474 202.097 123.444C203.791 124.414 205.093 125.788 206.005 127.566C206.95 129.344 207.422 131.429 207.422 133.821C207.422 134.565 207.243 135.146 206.884 135.567C206.559 135.955 206.07 136.149 205.419 136.149H192.522C192.75 137.7 193.255 138.816 194.037 139.494C194.818 140.173 195.974 140.513 197.505 140.513C198.319 140.513 199.068 140.432 199.752 140.27C200.436 140.076 201.201 139.818 202.048 139.494C202.537 139.301 203.009 139.139 203.465 139.01C203.953 138.848 204.393 138.767 204.784 138.767ZM196.43 127.808C195.291 127.808 194.379 128.18 193.695 128.923C193.011 129.635 192.604 130.685 192.473 132.075H200.143C199.948 129.231 198.71 127.808 196.43 127.808Z" fill="#FBFBFB"/>
<path d="M225.03 140.561C227.212 140.691 228.303 141.66 228.303 143.471C228.303 144.602 227.863 145.443 226.984 145.992C226.104 146.542 224.85 146.768 223.222 146.671L221.854 146.574C218.923 146.348 216.692 145.475 215.162 143.956C213.664 142.404 212.915 140.254 212.915 137.506V128.923H211.498C208.892 128.923 207.59 127.857 207.59 125.723C207.59 123.622 208.892 122.571 211.498 122.571H212.915V119.419C212.915 118.191 213.305 117.221 214.087 116.51C214.869 115.766 215.927 115.394 217.262 115.394C218.598 115.394 219.656 115.766 220.438 116.51C221.219 117.221 221.61 118.191 221.61 119.419V122.571H224.297C226.902 122.571 228.205 123.622 228.205 125.723C228.205 127.857 226.902 128.923 224.297 128.923H221.61V138.234C221.61 138.848 221.789 139.365 222.147 139.785C222.538 140.206 223.027 140.432 223.613 140.464L225.03 140.561Z" fill="#FBFBFB"/>
<path d="M240.089 146.817C237.907 146.817 236.067 146.655 234.569 146.332C233.071 146.008 231.752 145.491 230.612 144.78C230.156 144.554 229.798 144.166 229.537 143.616C229.277 143.067 229.146 142.452 229.146 141.774C229.146 140.901 229.374 140.19 229.83 139.64C230.319 139.058 230.921 138.767 231.638 138.767C232.126 138.767 232.582 138.832 233.006 138.961C233.429 139.058 233.95 139.236 234.569 139.494C235.611 139.85 236.523 140.125 237.305 140.319C238.119 140.513 239.145 140.61 240.382 140.61C241.261 140.61 241.945 140.497 242.434 140.27C242.955 140.012 243.215 139.656 243.215 139.204C243.215 138.848 243.085 138.573 242.825 138.379C242.597 138.185 242.141 138.007 241.457 137.846C240.773 137.652 239.617 137.393 237.988 137.07C235.09 136.52 232.989 135.696 231.687 134.597C230.417 133.465 229.781 131.881 229.781 129.845C229.781 128.358 230.237 127.016 231.149 125.82C232.094 124.624 233.38 123.686 235.009 123.007C236.637 122.329 238.461 121.989 240.48 121.989C241.945 121.989 243.362 122.167 244.73 122.523C246.13 122.878 247.368 123.379 248.443 124.026C249.452 124.608 249.957 125.545 249.957 126.838C249.957 127.743 249.713 128.503 249.224 129.117C248.736 129.732 248.133 130.039 247.417 130.039C246.57 130.039 245.56 129.764 244.388 129.214C243.606 128.859 242.906 128.6 242.287 128.439C241.701 128.245 241.001 128.148 240.187 128.148C239.373 128.148 238.737 128.277 238.282 128.535C237.826 128.762 237.598 129.101 237.598 129.554C237.598 130.071 237.907 130.475 238.526 130.766C239.177 131.057 240.447 131.38 242.336 131.736C245.495 132.285 247.726 133.126 249.029 134.257C250.331 135.357 250.983 136.957 250.983 139.058C250.983 141.418 249.989 143.309 248.003 144.732C246.049 146.122 243.411 146.817 240.089 146.817Z" fill="#FBFBFB"/>
<path d="M172.046 205C169.025 205 166.375 204.378 164.096 203.133C161.844 201.888 160.092 200.106 158.838 197.787C157.613 195.467 157 192.752 157 189.64C157 186.557 157.613 183.856 158.838 181.536C160.092 179.217 161.844 177.435 164.096 176.19C166.375 174.946 169.025 174.323 172.046 174.323C175.665 174.323 178.842 175.271 181.578 177.166C182.063 177.506 182.405 177.873 182.604 178.269C182.832 178.665 182.946 179.174 182.946 179.797C182.946 180.674 182.69 181.423 182.177 182.045C181.692 182.64 181.094 182.937 180.381 182.937C179.954 182.937 179.569 182.88 179.227 182.767C178.885 182.625 178.486 182.413 178.03 182.13C177.033 181.536 176.093 181.112 175.209 180.857C174.326 180.603 173.414 180.476 172.474 180.476C169.937 180.476 168.042 181.239 166.789 182.767C165.563 184.266 164.95 186.557 164.95 189.64C164.95 192.752 165.563 195.071 166.789 196.599C168.042 198.098 169.937 198.848 172.474 198.848C173.328 198.848 174.155 198.72 174.953 198.466C175.751 198.183 176.777 197.759 178.03 197.193C178.629 196.882 179.07 196.67 179.355 196.556C179.64 196.443 179.982 196.387 180.381 196.387C181.094 196.387 181.692 196.698 182.177 197.32C182.69 197.914 182.946 198.65 182.946 199.527C182.946 200.121 182.832 200.63 182.604 201.054C182.405 201.45 182.063 201.818 181.578 202.157C178.842 204.052 175.665 205 172.046 205Z" fill="#FBFBFB"/>
<path d="M196.409 204.958C194.101 204.958 192.063 204.519 190.297 203.642C188.558 202.737 187.205 201.464 186.236 199.824C185.296 198.183 184.825 196.259 184.825 194.053C184.825 191.847 185.296 189.937 186.236 188.325C187.205 186.684 188.558 185.426 190.297 184.549C192.035 183.672 194.072 183.234 196.409 183.234C198.746 183.234 200.783 183.672 202.522 184.549C204.26 185.426 205.599 186.684 206.54 188.325C207.509 189.937 207.993 191.847 207.993 194.053C207.993 196.259 207.509 198.183 206.54 199.824C205.599 201.464 204.26 202.737 202.522 203.642C200.783 204.519 198.746 204.958 196.409 204.958ZM196.409 199.314C199.116 199.314 200.47 197.561 200.47 194.053C200.47 190.546 199.116 188.792 196.409 188.792C193.702 188.792 192.348 190.546 192.348 194.053C192.348 197.561 193.702 199.314 196.409 199.314Z" fill="#FBFBFB"/>
<path d="M225.587 183.234C228.095 183.234 229.961 183.983 231.187 185.482C232.412 186.953 233.025 189.202 233.025 192.229V201.393C233.025 202.468 232.683 203.317 231.999 203.939C231.315 204.562 230.389 204.873 229.22 204.873C228.052 204.873 227.126 204.562 226.442 203.939C225.758 203.317 225.416 202.468 225.416 201.393V192.568C225.416 191.323 225.188 190.418 224.732 189.853C224.305 189.287 223.649 189.004 222.766 189.004C221.626 189.004 220.714 189.372 220.03 190.107C219.375 190.814 219.047 191.776 219.047 192.992V201.393C219.047 202.468 218.705 203.317 218.021 203.939C217.337 204.562 216.411 204.873 215.243 204.873C214.075 204.873 213.148 204.562 212.464 203.939C211.781 203.317 211.439 202.468 211.439 201.393V186.713C211.439 185.723 211.795 184.917 212.507 184.294C213.22 183.644 214.146 183.318 215.286 183.318C216.368 183.318 217.223 183.615 217.85 184.209C218.506 184.803 218.833 185.581 218.833 186.543C219.574 185.468 220.529 184.648 221.697 184.082C222.866 183.516 224.162 183.234 225.587 183.234Z" fill="#FBFBFB"/>
<path d="M251.468 183.234C253.975 183.234 255.842 183.983 257.067 185.482C258.292 186.953 258.905 189.202 258.905 192.229V201.393C258.905 202.468 258.563 203.317 257.879 203.939C257.195 204.562 256.269 204.873 255.101 204.873C253.933 204.873 253.006 204.562 252.322 203.939C251.639 203.317 251.297 202.468 251.297 201.393V192.568C251.297 191.323 251.069 190.418 250.613 189.853C250.185 189.287 249.53 189.004 248.646 189.004C247.507 189.004 246.595 189.372 245.911 190.107C245.255 190.814 244.928 191.776 244.928 192.992V201.393C244.928 202.468 244.586 203.317 243.902 203.939C243.218 204.562 242.292 204.873 241.123 204.873C239.955 204.873 239.029 204.562 238.345 203.939C237.661 203.317 237.319 202.468 237.319 201.393V186.713C237.319 185.723 237.675 184.917 238.388 184.294C239.1 183.644 240.026 183.318 241.166 183.318C242.249 183.318 243.104 183.615 243.731 184.209C244.386 184.803 244.714 185.581 244.714 186.543C245.455 185.468 246.409 184.648 247.578 184.082C248.746 183.516 250.043 183.234 251.468 183.234Z" fill="#FBFBFB"/>
<path d="M280.297 197.914C280.953 197.914 281.48 198.169 281.879 198.678C282.306 199.187 282.52 199.852 282.52 200.672C282.52 201.804 281.965 202.666 280.853 203.26C279.884 203.741 278.73 204.151 277.391 204.491C276.08 204.802 274.869 204.958 273.758 204.958C271.421 204.958 269.383 204.519 267.645 203.642C265.907 202.765 264.567 201.507 263.627 199.866C262.687 198.225 262.217 196.302 262.217 194.096C262.217 192.002 262.658 190.135 263.542 188.495C264.453 186.826 265.707 185.539 267.303 184.634C268.927 183.7 270.751 183.234 272.774 183.234C274.741 183.234 276.465 183.658 277.947 184.506C279.428 185.355 280.568 186.557 281.366 188.113C282.192 189.669 282.606 191.493 282.606 193.586C282.606 194.237 282.449 194.746 282.135 195.114C281.851 195.453 281.423 195.623 280.853 195.623H269.569C269.768 196.981 270.21 197.957 270.894 198.551C271.578 199.145 272.589 199.442 273.929 199.442C274.641 199.442 275.296 199.371 275.895 199.23C276.493 199.06 277.163 198.834 277.904 198.551C278.331 198.381 278.744 198.24 279.143 198.126C279.571 197.985 279.956 197.914 280.297 197.914ZM272.988 188.325C271.991 188.325 271.193 188.65 270.594 189.301C269.996 189.923 269.64 190.843 269.526 192.059H276.237C276.066 189.57 274.983 188.325 272.988 188.325Z" fill="#FBFBFB"/>
<path d="M296.205 204.958C292.786 204.958 290.078 203.996 288.084 202.072C286.089 200.149 285.092 197.532 285.092 194.223C285.092 192.045 285.576 190.121 286.545 188.452C287.514 186.783 288.867 185.496 290.606 184.591C292.372 183.686 294.381 183.234 296.633 183.234C297.829 183.234 299.026 183.389 300.223 183.7C301.42 184.011 302.474 184.45 303.386 185.016C304.27 185.553 304.711 186.373 304.711 187.477C304.711 188.353 304.498 189.075 304.07 189.64C303.671 190.178 303.144 190.447 302.489 190.447C302.061 190.447 301.648 190.39 301.249 190.277C300.85 190.135 300.408 189.937 299.924 189.683C299.354 189.428 298.87 189.244 298.471 189.131C298.072 188.99 297.63 188.919 297.146 188.919C294.324 188.919 292.914 190.63 292.914 194.053C292.914 195.75 293.27 197.051 293.982 197.957C294.723 198.834 295.778 199.272 297.146 199.272C297.63 199.272 298.072 199.215 298.471 199.102C298.898 198.961 299.368 198.763 299.881 198.508C300.451 198.254 300.907 198.07 301.249 197.957C301.619 197.815 302.018 197.745 302.446 197.745C303.101 197.745 303.628 198.027 304.027 198.593C304.455 199.131 304.669 199.838 304.669 200.715C304.669 201.252 304.555 201.747 304.327 202.2C304.099 202.624 303.785 202.949 303.386 203.176C301.42 204.364 299.026 204.958 296.205 204.958Z" fill="#FBFBFB"/>
<path d="M320.136 199.484C322.045 199.597 323 200.446 323 202.03C323 203.02 322.615 203.755 321.846 204.236C321.076 204.717 319.979 204.915 318.555 204.83L317.358 204.745C314.793 204.547 312.841 203.784 311.502 202.454C310.191 201.096 309.535 199.215 309.535 196.811V189.301H308.296C306.016 189.301 304.876 188.368 304.876 186.501C304.876 184.662 306.016 183.743 308.296 183.743H309.535V180.985C309.535 179.91 309.877 179.061 310.561 178.439C311.245 177.788 312.171 177.463 313.34 177.463C314.508 177.463 315.434 177.788 316.118 178.439C316.802 179.061 317.144 179.91 317.144 180.985V183.743H319.495C321.775 183.743 322.915 184.662 322.915 186.501C322.915 188.368 321.775 189.301 319.495 189.301H317.144V197.448C317.144 197.985 317.301 198.438 317.614 198.805C317.956 199.173 318.384 199.371 318.897 199.399L320.136 199.484Z" fill="#FBFBFB"/>
</g>
<defs>
<clipPath id="clip0">
<rect width="510.831" height="308.108" fill="white" transform="translate(0.0366211 0.698608)"/>
</clipPath>
</defs>
</svg>
