<svg width="667" height="497" viewBox="0 0 667 497" fill="none" xmlns="http://www.w3.org/2000/svg">
<g clip-path="url(#clip0)">
<path d="M0 436.929H666.667V436.596H0V436.929Z" fill="#E7E8E5"/>
<path d="M578.395 451.12H534.232V450.787H578.395V451.12Z" fill="#E7E8E5"/>
<path d="M405.843 450.62H417.433V450.953H405.843V450.62Z" fill="#E7E8E5"/>
<path d="M599.868 458.39H574.278V458.057H599.868V458.39Z" fill="#E7E8E5"/>
<path d="M95.2183 462.473H152.809V462.807H95.2183V462.473Z" fill="#E7E8E5"/>
<path d="M139.408 447.916H147.852V448.249H139.408V447.916Z" fill="#E7E8E5"/>
<path d="M250.062 449.339H331.259V449.672H250.062V449.339Z" fill="#E7E8E5"/>
<path d="M189.777 377.13H171.659C171.712 377.021 171.767 376.906 171.82 376.797H189.777V377.13" fill="#EEEEEC"/>
<path d="M145.14 377.13H143.494L143.492 376.797H145.252C145.215 376.909 145.178 377.02 145.14 377.13" fill="#EEEEEC"/>
<path d="M135.325 377.13H115.601L115.6 376.797H135.328L135.325 377.13Z" fill="#EEEEEC"/>
<path d="M111.661 377.13H89.0371V376.797H111.662L111.661 377.13Z" fill="#EEEEEC"/>
<path d="M143.493 377.13H135.325L135.328 376.797H143.492L143.493 377.13Z" fill="#E4E4E2"/>
<path d="M115.601 377.13H111.661L111.662 376.797H115.6L115.601 377.13Z" fill="#E4E4E2"/>
<path d="M560.321 377.13H576.423V376.797H560.321V377.13Z" fill="#EEEEEC"/>
<path d="M556.382 377.13H539.58L539.579 376.797H556.383L556.382 377.13" fill="#EEEEEC"/>
<path d="M535.639 377.13H515.028L515.025 376.797H535.64L535.639 377.13Z" fill="#EEEEEC"/>
<path d="M483.288 377.13H475.683V376.797H483.231C483.251 376.912 483.268 377.017 483.288 377.13Z" fill="#EEEEEC"/>
<path d="M515.028 377.13H513.096C513.089 377.016 513.081 376.912 513.073 376.797H515.025L515.028 377.13Z" fill="#E4E4E2"/>
<path d="M539.58 377.13H535.639L535.64 376.797H539.579L539.58 377.13" fill="#E4E4E2"/>
<path d="M560.321 377.13H556.381L556.382 376.797H560.321V377.13Z" fill="#E4E4E2"/>
<path d="M435.807 434.327H223.908V436.596H442.766V434.327H435.807" fill="#DADBD8"/>
<path d="M591.852 481.715C591.852 490.053 476.109 496.813 333.333 496.813C190.557 496.813 74.8145 490.053 74.8145 481.715C74.8145 473.377 190.557 466.617 333.333 466.617C476.109 466.617 591.852 473.377 591.852 481.715Z" fill="#F3F2F1"/>
<path d="M464.199 80.5507C461.354 77.7093 455.888 66.9453 461.132 61.9493C466.376 56.9533 471.04 61.484 471.402 63.9387C471.764 66.3933 470.794 87.1347 464.199 80.5507" fill="#17282F"/>
<path d="M462.995 467.6L451.1 467.704L447.856 440.187L459.75 440.083L462.995 467.6" fill="#F5A5B0"/>
<path d="M451.076 466.327L464.064 466.213C464.551 466.209 464.998 466.543 465.139 467.016L468.279 477.561C468.604 478.655 467.85 479.7 466.726 479.692C462.034 479.654 455.243 479.437 449.354 479.489C442.467 479.549 439.396 479.977 431.32 480.048C426.438 480.09 424.714 475.169 426.723 474.704C435.876 472.588 440.61 472.304 448.28 467.278C449.114 466.732 450.05 466.336 451.076 466.327" fill="#17282F"/>
<path d="M461.422 454.273L460.577 447.101H460.584L461.428 454.273H461.422Z" fill="#C3C5C2"/>
<path d="M449.529 454.377L448.701 447.355L460.577 447.101L461.422 454.273L449.529 454.377" fill="#D8898C"/>
<path d="M449.014 467.602C446.439 468.055 444.482 467.957 443.696 467.32C443.411 467.088 443.274 466.787 443.274 466.399C443.274 466.225 443.343 466.16 443.41 466.117C444.142 465.661 446.967 466.677 449.014 467.602ZM446.166 468.449C447.503 468.449 448.955 468.205 449.974 467.99L450.195 467.749L450.039 467.461C449.475 467.185 444.478 464.788 443.111 465.64C442.85 465.803 442.711 466.065 442.711 466.397C442.71 466.96 442.922 467.416 443.342 467.757C443.979 468.275 445.031 468.449 446.166 468.449" fill="#406FBF"/>
<path d="M446.666 463.204C448.37 463.204 449.225 465.983 449.517 467.201C447.949 466.312 445.864 464.294 445.982 463.497C445.99 463.44 446.015 463.265 446.487 463.213L446.666 463.204ZM449.916 467.996L450.091 467.936L450.193 467.668C450.156 467.449 449.257 462.337 446.425 462.653C445.677 462.736 445.468 463.113 445.424 463.415C445.227 464.751 448.28 467.325 449.806 467.975L449.916 467.996" fill="#406FBF"/>
<path d="M454.592 140.635L453.36 141.913L452.215 143.052C451.452 143.797 450.667 144.499 449.886 145.201C448.318 146.599 446.718 147.947 445.082 149.253C441.799 151.851 438.342 154.257 434.687 156.423C432.86 157.507 430.98 158.528 429.063 159.5C427.132 160.453 425.142 161.323 423.115 162.135C419.04 163.735 414.735 164.984 410.215 165.659L409.222 165.808C408.602 165.881 408.007 165.944 407.296 165.927C405.959 165.929 404.387 165.655 402.955 165.073C401.495 164.504 400.236 163.62 399.268 162.712C398.26 161.78 397.626 160.865 397.058 159.967C396.022 158.213 395.52 156.685 395.148 155.296C394.787 153.905 394.587 152.639 394.447 151.424C394.166 149.001 394.16 146.792 394.246 144.632C394.335 142.483 394.506 140.403 394.746 138.357C395.255 134.271 395.968 130.316 396.851 126.417C397.747 122.507 398.739 118.72 400.023 114.856L408.786 116.577C408.464 124.08 408.106 131.757 408.347 139.005C408.436 142.593 408.768 146.213 409.41 149.044C409.574 149.735 409.767 150.363 409.962 150.82C410.148 151.275 410.368 151.556 410.359 151.439C410.338 151.332 410.27 151.212 409.995 150.911C409.743 150.643 409.292 150.323 408.744 150.076C408.211 149.839 407.607 149.748 407.234 149.723C407.151 149.724 407.082 149.723 407.022 149.721C406.918 149.719 406.838 149.717 406.75 149.728C406.604 149.756 406.828 149.704 406.891 149.687L407.179 149.612C410.251 148.863 413.318 147.683 416.352 146.283C419.372 144.829 422.354 143.133 425.263 141.237C428.162 139.324 431.01 137.253 433.76 135.036C435.143 133.939 436.499 132.801 437.815 131.635L439.755 129.875L440.696 129.007L441.504 128.232L454.592 140.635" fill="#F5A5B0"/>
<path d="M461.64 135.931C461.187 123.363 450.863 118.988 437.936 127.555C425.672 135.696 421.489 139.364 421.489 139.364L429.856 166.213C429.856 166.213 445.884 161.135 455.111 151.157C461.371 144.388 461.793 140.213 461.64 135.931" fill="#20946A"/>
<path d="M439.047 153.649C439.826 151.904 440.635 150.272 441.414 148.8C441.33 150.295 441.255 151.861 441.194 153.495L439.047 153.649Z" fill="#111D23"/>
<path d="M408.347 120.56L412.824 110.443L400.154 106.729C400.154 106.729 397.975 111.571 399.212 119.877L408.347 120.56Z" fill="#F5A5B0"/>
<path d="M414.171 98.5733L403.152 99.8866L400.153 106.729L412.824 110.443L414.171 98.5733" fill="#F5A5B0"/>
<path d="M445.98 227.072C445.98 227.072 437.783 295.691 436.885 332.368C435.952 370.519 443.429 447.466 443.429 447.466L464.908 447.009C464.908 447.009 467.491 364.639 470.607 326.892C474.005 285.741 482.539 226.293 482.539 226.293L445.98 227.072" fill="#406FBF"/>
<path d="M443.429 447.466C443.429 447.466 442.257 435.405 440.9 418.468C439.028 395.128 436.804 362.527 436.804 339.451C436.804 336.972 436.83 334.604 436.885 332.368C437.096 323.732 437.712 313.325 438.53 302.459L465.381 300.517C466.016 314.152 467.757 326.903 469.98 335.171C469.136 347.179 468.345 361.959 467.65 376.797C467.645 376.908 467.64 377.02 467.634 377.131C466.55 400.335 465.7 423.627 465.254 436.596C465.25 436.707 465.246 436.82 465.242 436.929C465.026 443.235 464.908 447.009 464.908 447.009L460.577 447.101L448.701 447.355L443.429 447.466V447.466ZM472.078 310.919C472.461 307.097 472.868 303.215 473.292 299.316C473.293 299.323 473.293 299.325 473.293 299.331C472.869 303.225 472.461 307.103 472.078 310.919Z" fill="#A4C3E9"/>
<path d="M469.987 335.197C469.984 335.189 469.982 335.18 469.98 335.171C470.186 332.232 470.395 329.459 470.607 326.892C471.028 321.799 471.527 316.425 472.079 310.919C471.53 316.424 471.032 321.799 470.614 326.892C470.4 329.464 470.187 332.251 469.987 335.197Z" fill="#C3C5C2"/>
<path d="M469.98 335.171C467.757 326.903 466.016 314.152 465.381 300.517L466.644 300.425C468.996 300.256 471.216 299.648 473.232 298.689C473.252 298.897 473.272 299.108 473.292 299.316C472.868 303.215 472.461 307.097 472.078 310.919C471.526 316.425 471.028 321.799 470.606 326.892C470.394 329.459 470.185 332.232 469.98 335.171Z" fill="#7F9BCF"/>
<path d="M467.547 447.976L442.291 448.48L440.434 440.089L467.239 440.029L467.547 447.976Z" fill="#406FBF"/>
<path d="M516.058 467.6L504.163 467.704L500.919 440.187L512.812 440.083L516.058 467.6" fill="#F5A5B0"/>
<path d="M504.139 466.327L517.128 466.213C517.614 466.209 518.06 466.543 518.202 467.016L521.342 477.561C521.667 478.655 520.912 479.7 519.788 479.692C515.096 479.654 508.306 479.437 502.416 479.489C495.531 479.549 492.459 479.977 484.383 480.048C479.5 480.09 477.776 475.169 479.786 474.704C488.939 472.588 493.672 472.304 501.343 467.278C502.176 466.732 503.112 466.336 504.139 466.327Z" fill="#17282F"/>
<path d="M514.485 454.273L513.64 447.101H513.646L514.49 454.273H514.485Z" fill="#C3C5C2"/>
<path d="M502.592 454.377L501.766 447.355L513.64 447.101L514.486 454.273L502.592 454.377" fill="#D8898C"/>
<path d="M502.076 467.602C499.503 468.055 497.545 467.957 496.759 467.32C496.475 467.088 496.336 466.787 496.337 466.399C496.337 466.225 496.405 466.16 496.472 466.117C497.205 465.661 500.029 466.677 502.076 467.602V467.602ZM499.228 468.449C500.567 468.449 502.019 468.205 503.036 467.99L503.257 467.749L503.101 467.461C502.537 467.185 497.54 464.788 496.173 465.64C495.912 465.803 495.773 466.065 495.773 466.397C495.772 466.96 495.984 467.416 496.404 467.757C497.041 468.275 498.093 468.449 499.228 468.449" fill="#406FBF"/>
<path d="M499.728 463.204C501.433 463.204 502.288 465.983 502.58 467.201C501.012 466.312 498.927 464.294 499.044 463.497C499.052 463.44 499.077 463.265 499.549 463.213L499.728 463.204ZM502.979 467.996L503.153 467.936L503.256 467.668C503.219 467.449 502.32 462.337 499.488 462.653C498.74 462.736 498.531 463.113 498.487 463.415C498.289 464.751 501.343 467.325 502.868 467.975L502.979 467.996" fill="#406FBF"/>
<path d="M466.938 226.627C466.938 226.627 472.871 300.447 477.196 336.88C481.693 374.776 496.492 447.466 496.492 447.466L517.971 447.009C517.971 447.009 512.076 364.473 509.797 326.667C507.312 285.451 506.672 225.717 506.672 225.717L466.938 226.627" fill="#406FBF"/>
<path d="M496.492 447.466C496.492 447.466 481.694 374.776 477.196 336.88C475.967 326.527 474.608 313.156 473.292 299.316C473.272 299.108 473.252 298.897 473.232 298.689C479.948 295.496 484.391 288.4 483.824 280.567L479.9 226.329L506.672 225.717C506.672 225.776 507.314 285.471 509.798 326.667C512.076 364.473 517.971 447.009 517.971 447.009L513.64 447.101L501.766 447.355H501.764L496.492 447.466" fill="#A4C3E9"/>
<path d="M520.609 447.976L495.353 448.48L493.496 440.089L520.301 440.029L520.609 447.976Z" fill="#406FBF"/>
<path d="M444.493 124.271C444.493 124.271 435.703 156.881 445.98 227.072C465.144 226.664 497.345 225.916 506.672 225.717C506.901 215.944 499.692 168.025 508.129 121.819C508.129 121.819 500.153 120.283 489.753 120.004C481.617 119.785 469.845 119.776 462.715 120.581C453.313 121.641 444.493 124.271 444.493 124.271Z" fill="#2BC88F"/>
<path d="M504.054 176.624C504.052 176.621 504.051 176.617 504.05 176.615C503.966 169.664 504.06 162.295 504.447 154.699L504.454 154.704C504.067 162.291 503.974 169.665 504.054 176.624Z" fill="#BCBEBC"/>
<path d="M504.049 176.615C500.981 168.637 495.173 152.901 494.52 146.477L504.446 154.699C504.06 162.295 503.965 169.664 504.049 176.615" fill="#111D23"/>
<path d="M468.919 143.177L458.084 164.62C457.037 166.691 459.288 168.932 461.303 167.824L468.384 163.932C469.163 163.504 470.12 163.567 470.852 164.095L477.821 169.119C479.693 170.468 482.124 168.605 481.345 166.419L473.195 143.517C472.497 141.555 469.845 141.344 468.919 143.177" fill="white"/>
<path d="M486.426 89.616C484.906 98.352 483.543 114.328 489.754 120.004C489.754 120.004 487.942 127.912 471.398 130.605C460.282 127.039 462.715 120.581 462.715 120.581C472.367 118.057 471.963 110.865 470.13 104.141L486.426 89.616Z" fill="#F5A5B0"/>
<path d="M471.074 108.915C471.062 108.799 471.05 108.681 471.038 108.564C471.051 108.681 471.064 108.799 471.076 108.915C471.075 108.915 471.074 108.915 471.074 108.915ZM470.138 104.135V104.133L471.948 102.52L470.138 104.135Z" fill="#BFC0BE"/>
<path d="M471.076 108.915C471.064 108.799 471.051 108.681 471.038 108.564C470.875 107.101 470.544 105.608 470.138 104.135L471.948 102.52L479.783 95.5427C480.118 96.4373 480.238 98.2947 480.083 100.235C479.772 104.123 474.771 108.299 471.076 108.915Z" fill="#D8898C"/>
<path d="M491.717 78.8507C488.512 90.2134 487.214 97.0254 480.116 101.675C469.44 108.668 456.37 100.311 456.116 88.22C455.886 77.3387 461.165 60.5867 473.43 58.4494C485.514 56.3427 494.921 67.4894 491.717 78.8507" fill="#F5A5B0"/>
<path d="M484.883 85.8066C483.388 82.1826 482.312 70.24 488.528 67.3106C494.744 64.38 501.223 71.5346 499.592 74.916C497.062 80.168 488.348 94.2053 484.883 85.8066Z" fill="#17282F"/>
<path d="M488.598 71.5173C487.068 67.5693 468.78 65.256 466.223 60.9467C463.182 55.82 475.658 55.2067 484.23 57.816C491.763 60.108 496.786 62.3133 495.906 67.916C495.407 71.0867 488.598 71.5173 488.598 71.5173" fill="#17282F"/>
<path d="M492.566 67.3947C492.566 67.3947 496.529 68.496 498.764 65.552C498.069 68.4587 494.688 71.3987 492.566 67.3947Z" fill="#17282F"/>
<path d="M474.271 55.0654C468.772 50.7947 461.295 55.8134 462.004 61.3734C462.713 66.932 481.227 71.1627 481.227 71.1627C481.227 71.1627 481.563 60.7294 474.271 55.0654Z" fill="#17282F"/>
<path d="M462.015 61.4534C462.857 65.34 465.693 68.404 471.437 70.6587C466.064 66.8814 464.207 60.9187 464.207 60.9187L462.015 61.4534Z" fill="#17282F"/>
<path d="M473.553 78.2813C473.349 79.2186 472.688 79.8706 472.074 79.7386C471.462 79.6053 471.13 78.7373 471.333 77.8C471.537 76.8626 472.198 76.2106 472.812 76.3426C473.424 76.476 473.756 77.344 473.553 78.2813Z" fill="#17282F"/>
<path d="M462.955 75.9827C462.752 76.92 462.091 77.5733 461.477 77.44C460.864 77.3067 460.532 76.44 460.736 75.5013C460.939 74.564 461.601 73.912 462.213 74.044C462.827 74.1773 463.159 75.0453 462.955 75.9827Z" fill="#17282F"/>
<path d="M466.222 77.18C466.222 77.18 462.918 82.1267 460.005 84.228C461.328 86.1347 464.301 86.04 464.301 86.04L466.222 77.18" fill="#F46878"/>
<path d="M466.467 89.22L466.472 89.2213C470.884 90.1773 473.562 87.592 473.674 87.4813L473.675 87.0827L473.278 87.08C473.252 87.1053 470.695 89.56 466.592 88.6707C466.44 88.6373 466.29 88.7333 466.256 88.8867C466.224 89.036 466.318 89.184 466.467 89.22" fill="#17282F"/>
<path d="M477.476 75.5533L477.844 75.5173C478.127 75.3853 478.25 75.0507 478.119 74.768C476.808 71.9413 474.238 71.54 474.128 71.5227C473.82 71.4787 473.535 71.6933 473.491 72.0013C473.447 72.308 473.663 72.5933 473.964 72.6387C474.05 72.652 476.051 72.9867 477.096 75.2427C477.172 75.4053 477.315 75.5147 477.476 75.5533" fill="#17282F"/>
<path d="M459.093 71.3333C459.3 71.3826 459.528 71.312 459.668 71.1333C461.22 69.1573 463.289 69.316 463.311 69.3187C463.621 69.3453 463.895 69.116 463.921 68.8067C463.949 68.496 463.713 68.2227 463.411 68.196C463.3 68.1853 460.707 67.9867 458.781 70.4373C458.589 70.6827 458.632 71.036 458.877 71.228L459.093 71.3333" fill="#17282F"/>
<path d="M511.041 130.949C513.467 135.18 515.5 139.285 517.594 143.515C519.657 147.725 521.587 152.003 523.404 156.351C525.215 160.7 526.952 165.099 528.471 169.627C530.039 174.123 531.417 178.751 532.539 183.528L533.35 187.172C533.702 188.891 533.848 190.652 533.804 192.368C533.725 195.819 532.844 199.009 531.677 201.787C529.296 207.372 525.788 211.503 522.194 215.115C518.538 218.687 514.643 221.695 510.6 224.363C508.592 225.712 506.503 226.917 504.412 228.091C502.296 229.273 500.247 230.337 497.912 231.373L493.479 223.621C495.087 222.348 496.866 220.916 498.518 219.517C500.193 218.104 501.791 216.608 503.38 215.143C506.52 212.172 509.481 209.089 511.954 205.88C514.441 202.716 516.428 199.332 517.32 196.356C517.77 194.868 517.889 193.525 517.803 192.399C517.757 191.832 517.653 191.308 517.488 190.801L516.592 187.809C514.053 179.725 510.666 171.565 506.985 163.528C505.161 159.497 503.219 155.497 501.271 151.499C499.343 147.527 497.236 143.483 495.277 139.699L511.041 130.949" fill="#F5A5B0"/>
<path d="M508.592 121.911C519.706 124.325 527.444 153.327 527.444 153.327L507.555 171.371C507.555 171.371 497.84 161.16 492.852 147.335C487.627 132.847 496.688 119.327 508.592 121.911Z" fill="#229E71"/>
<path d="M495.828 222.308L483.044 222.441L490.971 235.328C490.971 235.328 500.075 233.077 500.892 228.504L495.828 222.308" fill="#F5A5B0"/>
<path d="M475.076 230.047L482.136 240.397L490.971 235.328L483.044 222.441L475.076 230.047Z" fill="#F5A5B0"/>
<path d="M495.211 89.2506C493.726 92.0653 491.079 93.9319 488.567 94.6653C484.79 95.7666 482.856 92.3986 483.87 88.8106C484.78 85.5813 487.844 81.116 491.654 81.5893C495.406 82.056 496.908 86.032 495.211 89.2506" fill="#F5A5B0"/>
<path d="M367.739 312.259L367.643 310.928L381.855 309.9L381.951 311.231L367.739 312.259Z" fill="#406FBF"/>
<path d="M387.752 310.811L387.656 309.481L394.636 308.976L394.732 310.307L387.752 310.811Z" fill="#406FBF"/>
<path d="M455.939 152.428L220.589 169.451C210.404 170.188 202.673 179.124 203.409 189.309L211.436 300.269C212.172 310.455 221.109 318.185 231.295 317.449L244.607 316.487C246.624 316.34 248.379 317.857 248.524 319.876L250.012 340.443C250.141 342.227 252.364 342.964 253.535 341.611L275.852 315.813C276.789 314.729 278.12 314.061 279.549 313.959L466.644 300.425C476.829 299.689 484.56 290.752 483.824 280.567L475.797 169.607C475.061 159.421 466.125 151.691 455.939 152.428" fill="#406FBF"/>
<path d="M254.98 220.332L267.692 219.413L268.733 233.809L282.625 232.805L281.584 218.408L294.353 217.484L297.329 258.627L284.56 259.549L283.356 242.908L269.464 243.913L270.668 260.555L257.956 261.475L254.98 220.332" fill="white"/>
<path d="M229.952 317.497C228.64 317.497 227.355 317.359 226.111 317.092C227.354 317.359 228.639 317.497 229.952 317.497C230.398 317.497 230.843 317.481 231.295 317.449L233.335 317.301C233.308 317.304 233.28 317.305 233.254 317.308L231.295 317.449C230.844 317.481 230.398 317.497 229.952 317.497Z" fill="#C3C5C2"/>
<path d="M242.668 167.853L273.557 165.62L242.668 167.853" fill="#BFC0BE"/>
<path d="M231.189 168.684L242.668 167.853L231.189 168.684Z" fill="#C3C5C2"/>
<path d="M229.952 317.497C228.639 317.497 227.353 317.359 226.111 317.092C224.685 281.847 219.664 230.477 218.585 219.697H218.604C219.013 219.697 219.351 219.497 219.377 219.241L219.785 215.188C219.813 214.907 219.46 214.669 219.013 214.669H218.864C220.876 202.087 222.275 191.969 223.224 183.827C224.077 185.807 224.976 187.764 225.877 189.716C226.484 191.036 227.128 192.337 227.764 193.64L228.24 194.617L228.599 195.325C228.743 195.612 228.928 195.916 229.135 196.219C229.911 197.412 231.247 198.689 232.864 199.343C234.025 199.837 235.179 200.005 236.196 200.005C236.585 200.005 236.955 199.98 237.296 199.94C238.557 199.793 239.589 199.472 240.513 199.116C242.353 198.391 243.791 197.501 245.152 196.581C247.809 194.7 250.079 192.693 252.195 190.563C254.304 188.44 256.284 186.256 258.188 184.025C260.049 181.743 261.859 179.499 263.564 177.049L259.472 173.591C257.453 175.479 255.392 177.444 253.28 179.268C251.204 181.141 249.085 182.947 246.923 184.621C244.756 186.271 242.583 187.893 240.415 189.084C239.355 189.675 238.28 190.187 237.424 190.421C237.319 190.452 237.217 190.477 237.123 190.497L236.784 189.641L235.244 185.705C234.199 183.091 233.244 180.448 232.236 177.832C231.441 175.732 230.687 173.624 229.957 171.515L231.519 170.453C231.519 170.453 231.405 169.781 231.189 168.684L242.668 167.853L273.557 165.62L263.172 219.74L254.98 220.332L257.191 250.907L246.751 305.308C245.491 311.875 239.995 316.784 233.335 317.301L231.295 317.449C230.843 317.481 230.397 317.497 229.952 317.497V317.497ZM236.552 190.575C236.524 190.575 236.5 190.573 236.479 190.571C236.361 190.567 236.369 190.531 236.465 190.531C236.515 190.531 236.588 190.54 236.679 190.568C236.632 190.572 236.589 190.575 236.552 190.575Z" fill="#3563B7"/>
<path d="M257.191 250.907L254.98 220.332L263.172 219.74L257.191 250.907" fill="#C3C5C2"/>
<path d="M325.219 238.977C324.835 236.785 324.127 235.248 323.095 234.364C322.061 233.479 320.76 233.093 319.188 233.207C317.373 233.339 315.975 234.164 314.995 235.683C314.367 236.631 314.024 238 313.965 239.791L325.219 238.977ZM337.233 243.609L314.333 245.265C314.672 247.084 315.267 248.415 316.117 249.256C317.315 250.467 318.801 251.008 320.579 250.879C321.701 250.799 322.748 250.44 323.717 249.807C324.309 249.405 324.928 248.731 325.573 247.781L336.903 248.005C335.397 251.124 333.476 253.421 331.139 254.897C328.8 256.373 325.357 257.276 320.812 257.605C316.864 257.891 313.717 257.559 311.373 256.609C309.029 255.66 307.025 254.027 305.363 251.712C303.7 249.396 302.751 246.601 302.513 243.328C302.177 238.669 303.396 234.792 306.172 231.695C308.948 228.597 312.964 226.859 318.221 226.479C322.487 226.169 325.901 226.572 328.464 227.684C331.028 228.796 333.043 230.531 334.512 232.888C335.98 235.247 336.856 238.389 337.14 242.319L337.233 243.609" fill="white"/>
<path d="M340.772 214.127L352.221 213.299L355.197 254.44L343.747 255.269L340.772 214.127Z" fill="white"/>
<path d="M359.911 212.743L371.361 211.915L374.337 253.056L362.887 253.884L359.911 212.743Z" fill="white"/>
<path d="M390.606 236.956C390.798 239.613 391.478 241.539 392.646 242.732C393.814 243.927 395.212 244.465 396.84 244.348C398.486 244.228 399.793 243.504 400.76 242.173C401.725 240.844 402.109 238.795 401.908 236.025C401.721 233.444 401.049 231.56 399.892 230.375C398.733 229.188 397.369 228.652 395.797 228.767C394.132 228.887 392.804 229.627 391.81 230.987C390.818 232.347 390.417 234.336 390.606 236.956ZM379.158 237.812C378.829 233.265 380.093 229.408 382.948 226.24C385.804 223.071 389.841 221.297 395.061 220.92C401.029 220.488 405.662 221.893 408.962 225.133C411.616 227.744 413.089 231.088 413.385 235.167C413.716 239.751 412.468 243.617 409.638 246.765C406.81 249.913 402.712 251.681 397.342 252.069C392.552 252.416 388.592 251.48 385.46 249.261C381.612 246.512 379.512 242.696 379.158 237.812" fill="white"/>
<path d="M419.689 239.648L431.084 238.824L431.812 248.899L420.419 249.723L419.689 239.648ZM417.021 208.612L429.229 207.728L429.907 217.101L428.912 236.104L421.363 236.649L417.7 217.985L417.021 208.612Z" fill="white"/>
<path d="M217.328 132.861C217.266 135.279 217.44 137.288 217.637 138.707C201.989 144.107 187.464 142.911 180.102 141.677C180.46 140.371 181.014 137.917 181.2 134.699C180.965 136.979 179.67 139.741 178.758 141.456C176.39 141 175.06 140.617 175.06 140.617C175.06 140.617 177.476 127.485 173.112 117.953C168.746 108.409 170.916 103.083 174.221 101.567C180.361 82.7133 203.408 85.6973 211.212 93.3413C221.101 103.047 221.164 130.395 222.914 136.647C221.472 137.276 220.041 137.855 218.61 138.36C217.981 136.684 217.365 134.612 217.328 132.861" fill="#17282F"/>
<path d="M226.864 162.216L228.069 166.011C228.501 167.317 228.949 168.629 229.417 169.939C230.312 172.573 231.243 175.209 232.236 177.832C233.244 180.448 234.199 183.091 235.244 185.705L236.784 189.641L237.173 190.625L237.261 190.849L237.275 190.885L237.272 190.92C237.272 190.92 237.005 190.68 236.712 190.58C236.419 190.477 236.295 190.564 236.479 190.571C236.641 190.587 237.003 190.543 237.424 190.421C238.28 190.187 239.355 189.675 240.415 189.084C242.583 187.893 244.756 186.271 246.923 184.621C249.085 182.947 251.204 181.141 253.28 179.268C255.392 177.444 257.453 175.479 259.472 173.591L263.564 177.049C261.859 179.499 260.049 181.743 258.188 184.025C256.284 186.256 254.304 188.44 252.195 190.563C250.079 192.693 247.809 194.7 245.152 196.581C243.791 197.501 242.353 198.391 240.513 199.116C239.589 199.472 238.557 199.793 237.296 199.94C236.063 200.085 234.469 200.027 232.864 199.343C231.247 198.689 229.911 197.412 229.135 196.219C228.928 195.916 228.743 195.612 228.599 195.325L228.24 194.617L227.764 193.64C227.128 192.337 226.484 191.036 225.877 189.716C224.66 187.081 223.448 184.436 222.348 181.739C221.231 179.048 220.157 176.331 219.139 173.579C218.648 172.196 218.175 170.801 217.715 169.393C217.241 167.959 216.832 166.625 216.411 164.991L226.864 162.216" fill="#F9A8B3"/>
<path d="M223.709 150.372C228.304 151.543 231.519 170.453 231.519 170.453L218.856 179.065C218.856 179.065 206.715 159.987 210.249 154.935C213.931 149.673 217.003 148.665 223.709 150.372" fill="#406FBF"/>
<path d="M223.709 150.372C228.304 151.543 231.519 170.453 231.519 170.453L218.856 179.065C218.856 179.065 206.715 159.987 210.249 154.935C213.931 149.673 217.003 148.665 223.709 150.372" fill="#406FBF"/>
<path d="M226.823 173.647L224.952 163.543C225.009 162.012 225.035 160.657 225.035 159.46C225.035 150.839 223.709 150.372 223.709 150.372C223.709 150.372 222.32 150.088 220.119 149.689C221.196 149.803 222.38 150.035 223.709 150.372C228.304 151.543 231.519 170.453 231.519 170.453L226.823 173.647" fill="#7DA6DD"/>
<path d="M224.111 175.496C224.111 175.495 224.112 175.492 224.112 175.491L226.823 173.647L226.824 173.657L224.111 175.496Z" fill="#B8767A"/>
<path d="M224.112 175.491C224.572 170.628 224.832 166.708 224.952 163.543L226.822 173.647L224.112 175.491Z" fill="#5578BB"/>
<path d="M259.236 174.088L263.46 163.911L268.675 174.088C268.675 174.088 265.291 179.155 260.823 177.919L259.236 174.088" fill="#F9A8B3"/>
<path d="M268.119 162.848L274.815 165.548L268.675 174.088L263.46 163.911L268.119 162.848" fill="#F9A8B3"/>
<path d="M198.847 468.664H209.996L210.741 442.844H199.591L198.847 468.664" fill="#F9A8B3"/>
<path d="M124.014 435.404L134.272 439.772L147.687 417.42L137.428 413.052L124.014 435.404Z" fill="#F9A8B3"/>
<path d="M136.239 438.255L125.568 431.695C125.179 431.456 124.698 431.532 124.41 431.878L118.005 439.575C117.341 440.372 117.584 441.664 118.49 442.199C122.25 444.421 124.177 445.305 128.87 448.19C131.757 449.964 135.791 452.857 139.779 455.308C143.677 457.704 146.401 453.947 144.96 452.569C138.5 446.392 138.681 443.463 137.468 439.814C137.249 439.156 136.807 438.604 136.239 438.255" fill="#17282F"/>
<path d="M210.378 467.373H197.852C197.396 467.373 197.026 467.689 196.962 468.135L195.536 478.045C195.388 479.073 196.272 480.047 197.322 480.028C201.69 479.954 203.794 479.696 209.302 479.696C212.692 479.696 219.701 480.048 224.381 480.048C228.958 480.048 229.31 475.421 227.362 475.001C218.625 473.123 215.185 470.531 212.242 468.059C211.712 467.613 211.045 467.373 210.378 467.373" fill="#17282F"/>
<path d="M199.207 456.16H199.203L199.276 453.583H199.281L199.207 456.16Z" fill="#C3C5C2"/>
<path d="M210.357 456.16H199.207L199.281 453.583H210.431L210.357 456.16Z" fill="#D8898C"/>
<path d="M130.51 424.58L130.502 424.577L131.842 422.345L131.849 422.349L130.51 424.58" fill="#C3C5C2"/>
<path d="M140.765 428.947L130.51 424.58L131.849 422.349L142.105 426.716L140.765 428.947Z" fill="#D8898C"/>
<path d="M223.709 150.372C223.709 150.372 229.021 152.243 218.381 217.667C200.412 217.667 181.841 217.667 173.097 217.667C173.857 199.236 173.879 187.872 165.071 150.049C165.071 150.049 174.559 147.985 184.3 147.516C191.92 147.148 198.163 146.905 204.863 147.516C213.693 148.323 223.709 150.372 223.709 150.372Z" fill="#406FBF"/>
<path d="M218.864 214.669H216.196L216.204 214.589C216.205 214.584 216.205 214.577 216.205 214.572C216.207 214.427 216.025 214.309 215.791 214.309H214.563C214.317 214.309 214.104 214.436 214.087 214.589L214.079 214.669H197.908L197.917 214.589C197.917 214.584 197.917 214.577 197.917 214.572C197.919 214.427 197.737 214.309 197.503 214.309H196.275C196.031 214.309 195.816 214.436 195.8 214.589L195.791 214.669H179.621L179.629 214.589C179.631 214.584 179.631 214.577 179.631 214.572C179.632 214.427 179.451 214.309 179.216 214.309H177.988C177.743 214.309 177.529 214.436 177.512 214.589L177.503 214.669H173.216C173.329 211.595 173.407 208.675 173.407 205.739C173.407 197.865 172.848 189.863 170.92 178.372L172.685 179.635C172.685 179.635 177.556 169.74 177.552 163.312C177.552 162.361 177.444 161.485 177.199 160.729C175.427 155.281 171.283 149.8 166.733 149.8C166.532 149.8 166.331 149.811 166.128 149.832C168.863 149.289 176.5 147.892 184.3 147.516C184.3 147.516 186.108 154.227 198.401 154.227C211.92 154.227 204.863 147.516 204.863 147.516C213.693 148.323 223.709 150.372 223.709 150.372C223.709 150.372 225.035 150.839 225.035 159.46C225.035 163.131 224.796 168.277 224.111 175.496C223.872 178.012 223.58 180.783 223.224 183.827C222.275 191.969 220.876 202.087 218.864 214.669Z" fill="#7DA6DD"/>
<path d="M184.299 147.509C191.919 147.152 198.157 146.905 204.865 147.523C205.976 147.621 207.109 147.744 208.232 147.88C208.984 149.175 209.551 150.913 208.848 152.689C207.405 156.277 202.203 156.696 198.404 156.696C184.385 156.696 182.017 148.508 181.919 148.164L181.783 147.671C182.621 147.608 183.46 147.547 184.299 147.509" fill="white"/>
<path d="M186.337 124.363C187.634 130.979 188.928 143.101 184.3 147.516C184.3 147.516 186.108 154.227 198.401 154.227C211.92 154.227 204.862 147.516 204.862 147.516C197.484 145.755 197.674 140.281 198.96 135.14L186.337 124.363Z" fill="#F9A8B3"/>
<path d="M187.684 119.653C186.099 124.892 188.289 137.293 191.56 142.089C185.117 138.403 182.941 127.144 182.941 127.144L187.684 119.653" fill="#17282F"/>
<path d="M198.32 138.784C198.32 138.784 198.318 138.784 198.317 138.784C198.325 138.693 198.333 138.601 198.342 138.511C198.334 138.601 198.326 138.693 198.32 138.784ZM198.953 135.136L197.146 133.592L198.954 135.135C198.954 135.135 198.953 135.135 198.953 135.136" fill="#111D23"/>
<path d="M198.318 138.784C195.5 138.376 191.63 135.283 191.331 132.332C191.182 130.86 191.243 129.445 191.483 128.76L197.147 133.592L198.954 135.136C198.67 136.259 198.443 137.399 198.343 138.511C198.334 138.601 198.326 138.693 198.318 138.784Z" fill="#D8898C"/>
<path d="M180.23 112.544C182.81 123.305 183.672 127.915 190.148 132.533C199.888 139.479 212.541 133.956 213.228 122.641C213.846 112.457 209.522 96.5707 198.114 94.1133C186.874 91.692 177.649 101.784 180.23 112.544Z" fill="#F9A8B3"/>
<path d="M218.381 217.667C218.381 217.667 227.175 303.555 226.444 337.556C225.684 372.923 212.725 453.583 212.725 453.583H197.648C197.648 453.583 200.035 374.989 198.701 340.256C197.249 302.389 185.221 217.667 185.221 217.667H218.381" fill="#406FBF"/>
<path d="M212.725 453.583H197.648C197.648 453.583 199.107 405.553 199.107 367.994C199.107 357.507 198.992 347.836 198.701 340.256C198.343 330.888 197.336 318.652 196.024 305.541C196.431 309.603 196.809 313.577 197.148 317.411C200.516 304.408 207.519 272.609 202.476 249.691C204.309 235.527 205.663 224.153 206.185 219.697H213.528L213.511 219.856C213.511 219.863 213.509 219.868 213.509 219.875C213.509 220.02 213.691 220.136 213.925 220.136H215.153C215.397 220.136 215.612 220.011 215.628 219.856L215.645 219.697H218.585C219.845 232.289 226.485 300.267 226.488 333.231C226.488 334.751 226.473 336.195 226.444 337.556C226.225 347.747 224.995 361.693 223.351 376.392C223.089 378.733 222.817 381.101 222.536 383.468C221.915 388.725 221.253 394.009 220.579 399.2C218.885 412.244 217.108 424.663 215.676 434.327C215.56 435.102 215.448 435.856 215.337 436.596C215.321 436.708 215.304 436.819 215.288 436.929C213.772 447.066 212.725 453.583 212.725 453.583" fill="#2251AA"/>
<path d="M196.341 454.123H214.032L215.329 448.48L195.519 447.789L196.341 454.123" fill="#406FBF"/>
<path d="M196.024 305.541C195.824 303.551 195.617 301.537 195.405 299.513C195.405 299.511 195.405 299.512 195.405 299.509C195.619 301.536 195.824 303.549 196.024 305.541Z" fill="#C3C5C2"/>
<path d="M197.148 317.411C196.809 313.577 196.431 309.603 196.024 305.541C195.824 303.549 195.619 301.536 195.405 299.509C198.024 283.061 200.523 264.789 202.476 249.691C207.519 272.609 200.516 304.408 197.148 317.411" fill="#24427C"/>
<path d="M206.423 217.667C206.423 217.667 196.164 306.957 188.419 335.624C179.221 369.659 144.252 427.631 144.252 427.631L130.263 421.673C130.263 421.673 151.911 355.864 158.943 337.933C173.951 299.667 161.104 242.639 173.097 217.667H206.423" fill="#406FBF"/>
<path d="M144.252 427.631L142.105 426.716L131.849 422.349L130.263 421.673C130.263 421.673 151.911 355.864 158.943 337.933C170.603 308.203 165.449 267.148 168.195 238.6L170.393 237.697L168.915 232.669C169.643 227.827 170.689 223.457 172.204 219.697H176.953L176.936 219.856C176.936 219.863 176.935 219.868 176.935 219.875C176.933 220.02 177.115 220.136 177.351 220.136H178.579C178.823 220.136 179.036 220.011 179.053 219.856L179.071 219.697H195.241L195.224 219.856C195.223 219.863 195.223 219.868 195.223 219.875C195.221 220.02 195.403 220.136 195.637 220.136H196.865C197.111 220.136 197.324 220.011 197.341 219.856L197.359 219.697H206.185C205.663 224.153 204.309 235.527 202.476 249.691C200.523 264.789 198.024 283.061 195.405 299.509C195.405 299.512 195.405 299.511 195.405 299.513C193.071 314.179 190.641 327.399 188.419 335.624C185.188 347.579 178.779 362.485 171.82 376.797C171.767 376.907 171.712 377.021 171.659 377.131C171.639 377.171 171.621 377.208 171.601 377.248C170.291 379.936 168.964 382.597 167.635 385.218C165.823 388.789 164.007 392.278 162.236 395.62C152.615 413.768 144.252 427.631 144.252 427.631Z" fill="#2251AA"/>
<path d="M128.34 421.719L145.695 429.108L149.866 424.44L129.843 414.827L128.34 421.719" fill="#406FBF"/>
<path d="M197.264 112.685C197.42 113.571 198.016 114.207 198.595 114.104C199.174 114.003 199.518 113.203 199.362 112.316C199.206 111.431 198.61 110.795 198.031 110.897C197.452 110.999 197.11 111.799 197.264 112.685Z" fill="#17282F"/>
<path d="M207.276 110.925C207.432 111.811 208.028 112.447 208.607 112.344C209.185 112.243 209.528 111.443 209.373 110.556C209.217 109.671 208.621 109.036 208.043 109.137C207.464 109.239 207.12 110.04 207.276 110.925Z" fill="#17282F"/>
<path d="M207.796 109.231L209.815 108.244C209.815 108.244 209.016 110.097 207.796 109.231Z" fill="#17282F"/>
<path d="M204.897 112.912C204.897 112.912 207.071 116.461 209.049 118.011C208.071 119.307 205.996 119.159 205.996 119.159L204.897 112.912Z" fill="#F46878"/>
<path d="M201.984 123.328C202.457 123.328 202.96 123.287 203.492 123.195C203.635 123.169 203.731 123.032 203.705 122.888C203.68 122.745 203.548 122.649 203.4 122.673C199.516 123.359 197.22 120.961 197.197 120.937L196.824 120.924L196.811 121.296C196.899 121.391 198.745 123.323 201.984 123.328" fill="#17282F"/>
<path d="M184 106.231C184.223 109.487 185.333 114.675 185.333 114.675C185.333 114.675 192.007 106.244 193.103 101.723C192.419 105.353 191.577 106.859 191.577 106.859C191.577 106.859 200.551 104.908 201.424 98.984C201.339 103.812 200.551 106.859 200.551 106.859C200.551 106.859 209.111 103.504 208.324 97.8187C207.539 92.132 194.385 89.94 188.357 91.8587C182.329 93.776 176.372 100.012 178.151 108.573C179.929 117.135 183.357 120.349 183.357 120.349C183.357 120.349 180.849 111.711 184 106.231" fill="#17282F"/>
<path d="M179.761 120.655C180.623 122.78 182.387 124.309 184.135 125.015C186.764 126.077 188.393 123.801 187.925 121.156C187.504 118.773 185.628 115.352 182.863 115.416C180.139 115.48 178.775 118.224 179.761 120.655" fill="#F9A8B3"/>
<path d="M185.617 102.133C184.281 107.443 187.056 119.727 190.549 124.363C183.939 120.984 181.233 109.84 181.233 109.84L185.617 102.133" fill="#17282F"/>
<path d="M193.685 109.651C193.819 109.611 193.936 109.517 194.004 109.383C195.06 107.277 196.988 107.035 197.009 107.032C197.296 106.997 197.508 106.737 197.475 106.447C197.441 106.157 197.18 105.949 196.891 105.983C196.789 105.995 194.369 106.295 193.06 108.909C192.929 109.171 193.035 109.487 193.296 109.619C193.421 109.681 193.56 109.689 193.685 109.651" fill="#17282F"/>
<path d="M210.919 105.521C211.051 105.521 211.181 105.473 211.284 105.375C211.495 105.173 211.503 104.84 211.303 104.628C209.287 102.513 206.884 102.931 206.783 102.951C206.496 103.004 206.305 103.28 206.36 103.565C206.412 103.852 206.688 104.041 206.973 103.989C207.068 103.972 208.935 103.675 210.537 105.357C210.641 105.465 210.78 105.52 210.919 105.521" fill="#17282F"/>
<path d="M170.569 165.879C168.719 171.735 166.951 177.887 165.445 183.931C163.999 190.004 162.697 196.125 162.125 202.101L162.015 203.223C161.991 203.584 161.976 203.668 161.976 203.979C161.983 204.525 162.023 205.172 162.115 205.863C162.271 207.236 162.536 208.719 162.847 210.205C163.485 213.187 164.248 216.251 165.091 219.296C165.895 222.359 166.768 225.427 167.684 228.488L170.393 237.697L165.437 239.732C162.399 233.917 159.76 227.993 157.292 221.891C156.108 218.82 154.944 215.729 153.988 212.467C153.505 210.832 153.051 209.171 152.693 207.364C152.517 206.465 152.375 205.509 152.291 204.447C152.248 203.955 152.24 203.229 152.248 202.789L152.295 201.499C152.383 198.043 152.752 194.685 153.227 191.361C153.669 188.029 154.325 184.772 155.02 181.527C156.432 175.019 158.139 168.745 160.339 162.368L170.569 165.879Z" fill="#F9A8B3"/>
<path d="M165.071 150.049C160.533 151.429 155.085 167.051 155.085 167.051L172.685 179.635C172.685 179.635 179.105 166.595 177.199 160.729C175.213 154.623 170.248 148.475 165.071 150.049" fill="#406FBF"/>
<path d="M172.685 179.635L167.557 175.968L158.143 169.237L155.085 167.051C155.085 167.051 160.533 151.429 165.071 150.049C165.628 149.88 166.184 149.8 166.733 149.8C171.283 149.8 175.427 155.281 177.199 160.729C177.444 161.485 177.552 162.361 177.552 163.312C177.556 169.74 172.685 179.635 172.685 179.635" fill="#7DA6DD"/>
<path d="M137.006 440.1C138.618 440.111 140.776 440.331 141.196 440.951C141.249 441.029 141.298 441.145 141.208 441.352C141.041 441.733 140.802 441.949 140.486 442.011C139.734 442.153 138.457 441.445 137.006 440.1V440.1ZM140.746 442.489C141.162 442.359 141.481 442.048 141.692 441.563C141.873 441.151 141.76 440.841 141.633 440.655C140.836 439.476 136.806 439.565 136.349 439.578L136.112 439.745L136.172 440.029C137.222 441.077 139.193 442.794 140.585 442.529L140.746 442.489" fill="#406FBF"/>
<path d="M139.42 437.141L139.584 437.101C139.856 437.054 140.091 437.112 140.301 437.28C140.567 437.49 140.549 437.656 140.505 437.776C140.235 438.509 138.212 439.387 136.865 439.552C137.443 438.724 138.503 437.427 139.42 437.141V437.141ZM138.189 439.78C139.417 439.397 140.72 438.721 141.001 437.96C141.087 437.729 141.151 437.281 140.629 436.866C140.299 436.602 139.916 436.506 139.493 436.582C137.905 436.861 136.204 439.588 136.133 439.705L136.125 439.968L136.348 440.106C136.796 440.123 137.48 440 138.189 439.78" fill="#406FBF"/>
<path d="M216.552 467.015C216.756 467.015 216.924 467.045 217.045 467.111C217.153 467.171 217.207 467.259 217.22 467.397C217.252 467.753 217.152 468.03 216.916 468.242C216.239 468.852 214.403 468.959 211.933 468.547C213.463 467.812 215.495 467.015 216.552 467.015V467.015ZM214.565 469.323C215.673 469.323 216.696 469.151 217.269 468.636C217.632 468.309 217.793 467.876 217.745 467.349C217.717 467.035 217.563 466.792 217.299 466.647C215.932 465.897 211.487 468.168 210.985 468.429L210.845 468.701L211.056 468.923C212.003 469.112 213.337 469.323 214.565 469.323Z" fill="#406FBF"/>
<path d="M213.762 464.408L213.922 464.417C214.404 464.465 214.436 464.659 214.446 464.721C214.569 465.48 212.785 467.372 211.432 468.192C211.561 467.319 211.932 465.517 212.852 464.752C213.128 464.523 213.428 464.408 213.762 464.408V464.408ZM211.106 468.928L211.216 468.904C212.544 468.304 215.173 465.899 214.966 464.636C214.918 464.337 214.706 463.965 213.976 463.892C213.43 463.841 212.941 463.989 212.513 464.347C211.112 465.515 210.853 468.516 210.844 468.643L210.954 468.88L211.106 468.928Z" fill="#406FBF"/>
<path d="M172.42 215.009L171.261 219.063C171.103 219.377 171.476 219.697 171.999 219.697H218.604C219.013 219.697 219.351 219.497 219.377 219.241L219.785 215.188C219.813 214.907 219.46 214.669 219.013 214.669H173.157C172.82 214.669 172.521 214.807 172.42 215.009" fill="#17282F"/>
<path d="M178.579 220.136H177.351C177.106 220.136 176.919 220.011 176.936 219.856L177.512 214.589C177.53 214.436 177.743 214.309 177.988 214.309H179.216C179.46 214.309 179.647 214.436 179.63 214.589L179.054 219.856C179.036 220.011 178.823 220.136 178.579 220.136Z" fill="#406FBF"/>
<path d="M178.579 220.136H177.351C177.115 220.136 176.933 220.02 176.935 219.875C176.935 219.868 176.936 219.863 176.936 219.856L177.512 214.589C177.529 214.436 177.743 214.309 177.988 214.309H179.216C179.451 214.309 179.632 214.427 179.631 214.572C179.631 214.577 179.631 214.584 179.629 214.589L179.621 214.669L179.071 219.697L179.053 219.856C179.036 220.011 178.823 220.136 178.579 220.136" fill="#2251AA"/>
<path d="M215.153 220.136H213.925C213.68 220.136 213.495 220.011 213.511 219.856L214.087 214.589C214.104 214.436 214.317 214.309 214.563 214.309H215.791C216.035 214.309 216.221 214.436 216.204 214.589L215.628 219.856C215.612 220.011 215.397 220.136 215.153 220.136Z" fill="#406FBF"/>
<path d="M215.153 220.136H213.925C213.691 220.136 213.509 220.02 213.509 219.875C213.509 219.868 213.511 219.863 213.511 219.856L214.087 214.589C214.104 214.436 214.317 214.309 214.563 214.309H215.791C216.025 214.309 216.207 214.427 216.205 214.572C216.205 214.577 216.205 214.584 216.204 214.589L216.196 214.669L215.645 219.697L215.628 219.856C215.612 220.011 215.397 220.136 215.153 220.136" fill="#2251AA"/>
<path d="M196.865 220.136H195.637C195.393 220.136 195.206 220.011 195.224 219.856L195.8 214.589C195.816 214.436 196.03 214.309 196.274 214.309H197.502C197.748 214.309 197.933 214.436 197.917 214.589L197.341 219.856C197.324 220.011 197.11 220.136 196.865 220.136Z" fill="#406FBF"/>
<path d="M196.865 220.136H195.637C195.403 220.136 195.221 220.02 195.223 219.875C195.223 219.868 195.223 219.863 195.224 219.856L195.8 214.589C195.816 214.436 196.031 214.309 196.275 214.309H197.503C197.737 214.309 197.919 214.427 197.917 214.572C197.917 214.577 197.917 214.584 197.917 214.589L197.908 214.669L197.359 219.697L197.341 219.856C197.324 220.011 197.111 220.136 196.865 220.136Z" fill="#2251AA"/>
<path d="M197.784 110.991L199.804 110.004C199.804 110.004 199.004 111.857 197.784 110.991Z" fill="#17282F"/>
<path d="M170.016 236.191L179.574 243.523L168.499 245.953C168.499 245.953 163.782 240.567 165.414 236.229L170.016 236.191Z" fill="#F9A8B3"/>
<path d="M181.915 252.599L172.532 254.132L167.407 244.5L179.573 243.523L181.915 252.599" fill="#F9A8B3"/>
</g>
<defs>
<clipPath id="clip0">
<rect width="666.667" height="496.813" fill="white"/>
</clipPath>
</defs>
</svg>
