<?xml version="1.0" encoding="UTF-8" standalone="no"?>
<svg
   xmlns:dc="http://purl.org/dc/elements/1.1/"
   xmlns:cc="http://creativecommons.org/ns#"
   xmlns:rdf="http://www.w3.org/1999/02/22-rdf-syntax-ns#"
   xmlns:svg="http://www.w3.org/2000/svg"
   xmlns="http://www.w3.org/2000/svg"
   viewBox="0 0 666.66669 496.81332"
   height="496.81332"
   width="666.66669"
   xml:space="preserve"
   id="svg2"
   version="1.1"><metadata
     id="metadata8"><rdf:RDF><cc:Work
         rdf:about=""><dc:format>image/svg+xml</dc:format><dc:type
           rdf:resource="http://purl.org/dc/dcmitype/StillImage" /></cc:Work></rdf:RDF></metadata><defs
     id="defs6" /><g
     transform="matrix(1.3333333,0,0,-1.3333333,0,496.81333)"
     id="g10"><g
       transform="scale(0.1)"
       id="g12"><path
         id="path14"
         style="fill:#d9d7d4;fill-opacity:1;fill-rule:nonzero;stroke:none"
         d="m 0,449.129 h 5000 v 2.5 H 0 Z" /><path
         id="path16"
         style="fill:#d9d7d4;fill-opacity:1;fill-rule:nonzero;stroke:none"
         d="m 3432.63,343.219 h 344.043 v 2.5 H 3432.63 Z" /><path
         id="path18"
         style="fill:#d9d7d4;fill-opacity:1;fill-rule:nonzero;stroke:none"
         d="m 916.813,344.469 h 193.597 v -2.5 H 916.813 v 2.5" /><path
         id="path20"
         style="fill:#d9d7d4;fill-opacity:1;fill-rule:nonzero;stroke:none"
         d="M 2117.61,347.84 H 2510 v 2.5 h -392.39 v -2.5" /><path
         id="path22"
         style="fill:#d9d7d4;fill-opacity:1;fill-rule:nonzero;stroke:none"
         d="m 1932.2,383.391 h 175.41 v 2.5 H 1932.2 v -2.5" /><path
         id="path24"
         style="fill:#d9d7d4;fill-opacity:1;fill-rule:nonzero;stroke:none"
         d="m 3715.7,382.141 h 529.859 v 2.5 H 3715.7 Z" /><path
         id="path26"
         style="fill:#d9d7d4;fill-opacity:1;fill-rule:nonzero;stroke:none"
         d="m 439.152,3723.59 c -30.101,0 -54.582,-24.48 -54.582,-54.57 V 954.699 c 0,-30.097 24.481,-54.578 54.582,-54.578 H 2370.14 c 30.08,0 54.57,24.481 54.57,54.578 V 3669.02 c 0,30.09 -24.49,54.57 -54.57,54.57 H 439.152 M 2370.14,897.621 H 439.152 c -31.476,0 -57.082,25.598 -57.082,57.078 V 3669.02 c 0,31.46 25.606,57.07 57.082,57.07 H 2370.14 c 31.46,0 57.07,-25.61 57.07,-57.07 V 954.699 c 0,-31.48 -25.61,-57.078 -57.07,-57.078" /><path
         id="path28"
         style="fill:#d9d7d4;fill-opacity:1;fill-rule:nonzero;stroke:none"
         d="m 2602.12,3723.59 c -30.09,0 -54.57,-24.48 -54.57,-54.57 V 954.699 c 0,-30.097 24.48,-54.578 54.57,-54.578 h 1930.99 c 30.09,0 54.58,24.481 54.58,54.578 V 3669.02 c 0,30.09 -24.49,54.57 -54.58,54.57 H 2602.12 M 4533.11,897.621 H 2602.12 c -31.47,0 -57.07,25.598 -57.07,57.078 V 3669.02 c 0,31.46 25.6,57.07 57.07,57.07 h 1930.99 c 31.47,0 57.08,-25.61 57.08,-57.07 V 954.699 c 0,-31.48 -25.61,-57.078 -57.08,-57.078" /><path
         id="path30"
         style="fill:#d9d7d4;fill-opacity:1;fill-rule:nonzero;stroke:none"
         d="m 4393.13,1703.34 c -123.06,187.27 -10.7,388.62 -29.43,596.94 -18.73,208.32 -216.7,253.8 -179.25,430.38 43.44,204.73 -72.22,401.29 -203.32,401.29 -131.09,0 -246.75,-196.56 -203.32,-401.29 37.45,-176.58 -160.52,-222.06 -179.25,-430.38 -18.72,-208.32 93.64,-409.67 -29.42,-596.94 -123.07,-187.27 -90.77,-435.33 -21.41,-558.44 19.12,-33.91 41.61,-63.93 66.13,-90.49 196.8,-213.14 537.74,-213.14 734.55,0 24.52,26.56 47.02,56.58 66.12,90.49 69.37,123.11 101.66,371.17 -21.4,558.44" /><path
         id="path32"
         style="fill:#ebe9e8;fill-opacity:1;fill-rule:nonzero;stroke:none"
         d="M 4043.33,451.629 H 3918.94 V 1498.98 c 0,34.2 27.98,62.19 62.19,62.19 34.21,0 62.2,-27.99 62.2,-62.19 V 451.629" /><path
         id="path34"
         style="fill:#d9d7d4;fill-opacity:1;fill-rule:nonzero;stroke:none"
         d="M 3199.09,451.629 H 3029.73 V 1498.9 c 0,46.57 38.1,84.68 84.68,84.68 46.58,0 84.68,-38.11 84.68,-84.68 V 451.629" /><path
         id="path36"
         style="fill:#ebe9e8;fill-opacity:1;fill-rule:nonzero;stroke:none"
         d="m 3636.09,1255.82 c 0,-288.109 -233.56,-521.672 -521.68,-521.672 -288.11,0 -521.68,233.563 -521.68,521.672 0,288.12 233.57,521.68 521.68,521.68 288.12,0 521.68,-233.56 521.68,-521.68" /><path
         id="path38"
         style="fill:#ebe9e8;fill-opacity:1;fill-rule:nonzero;stroke:none"
         d="m 3733.48,1461.86 c 0,-113.55 -92.05,-205.59 -205.58,-205.59 -113.54,0 -205.59,92.04 -205.59,205.59 0,113.53 92.05,205.58 205.59,205.58 113.53,0 205.58,-92.05 205.58,-205.58" /><path
         id="path40"
         style="fill:#ebe9e8;fill-opacity:1;fill-rule:nonzero;stroke:none"
         d="m 2814.26,1583.58 c 0,-67.22 -54.49,-121.72 -121.73,-121.72 -67.23,0 -121.72,54.5 -121.72,121.72 0,67.23 54.49,121.72 121.72,121.72 67.24,0 121.73,-54.49 121.73,-121.72" /><path
         id="path42"
         style="fill:#ebe9e8;fill-opacity:1;fill-rule:nonzero;stroke:none"
         d="m 2910.27,1646.6 c 0,-47.18 -38.25,-85.43 -85.44,-85.43 -47.17,0 -85.43,38.25 -85.43,85.43 0,47.19 38.26,85.44 85.43,85.44 47.19,0 85.44,-38.25 85.44,-85.44" /><path
         id="path44"
         style="fill:#d9d7d4;fill-opacity:1;fill-rule:nonzero;stroke:none"
         d="m 2039.7,1076.7 c -86.86,-12.91 -162.15,-44.39 -227.16,-86.68 -0.62,79.15 -15.11,154.34 -52.31,215.04 -56.63,-55.19 -102.5,-126.56 -139.56,-203.33 -13.87,144.34 -51.76,284.16 -135.67,372.54 -125.72,-79.07 -190.52,-210.89 -221.35,-350.48 -50.09,89.45 -119.2,172.01 -214.63,232.03 C 972.094,1174.81 947.543,1062.78 949.586,948.059 862.203,1049.79 765.152,1129.22 670.563,1138.55 647.27,977.398 696.871,825.469 759.902,705.672 842.578,548.539 1007.06,451.629 1184.62,451.629 h 410.85 c 175.11,0 339.28,93.43 421.44,248.07 52.04,97.922 76.79,224.063 22.79,377.001" /><path
         id="path46"
         style="fill:#ebe9e8;fill-opacity:1;fill-rule:nonzero;stroke:none"
         d="m 1922.56,3154.23 c 50.78,148.72 10.47,254.59 -113.64,254.59 -77.83,0 -174.34,-41.68 -268.32,-109.52 -10.61,38.68 -40.52,61.85 -88.62,61.85 -84.67,0 -201.37,-71.62 -292.92,-172.67 -22.15,22.53 -54.2,36.33 -95.4,38.55 -81.019,4.55 -179.152,-36.6 -264.476,-103.53 -7.383,11.2 -20.063,18.23 -37.547,19.27 -46.696,2.61 -109.895,-38.93 -141.297,-92.72 -1.949,-3.38 -3.692,-6.64 -5.422,-9.89 h 96.977 77.16 268.035 131.9 102.56 157.97 28.67 391.86 77.16 c 3.98,46.88 -4.31,86.07 -24.65,114.07" /><path
         id="path48"
         style="fill:#ebe9e8;fill-opacity:1;fill-rule:nonzero;stroke:none"
         d="m 1926.67,2251.3 c 24.81,72.64 5.12,124.35 -55.5,124.35 -38.02,0 -85.16,-20.35 -131.07,-53.49 -5.18,18.89 -19.79,30.21 -43.29,30.21 -41.36,0 -98.36,-34.98 -143.08,-84.34 -10.82,11 -26.47,17.75 -46.6,18.83 -39.58,2.22 -87.51,-17.88 -129.19,-50.57 -3.6,5.47 -9.8,8.9 -18.34,9.41 -22.81,1.27 -53.68,-19.02 -69.01,-45.29 -0.96,-1.65 -1.81,-3.24 -2.66,-4.83 h 47.37 37.69 130.93 64.43 50.1 77.16 14.01 191.41 37.69 c 1.94,22.9 -2.11,42.04 -12.05,55.72" /><path
         id="path50"
         style="fill:#ebe9e8;fill-opacity:1;fill-rule:nonzero;stroke:none"
         d="m 3427.67,2800.68 c -5.07,0.75 -10.22,1.12 -15.44,1.12 4.79,72.56 -22.95,118.89 -82.19,118.89 -42.76,0 -95.21,-24.19 -148.68,-65.12 15.3,140.84 -33.69,232.38 -144.62,232.38 -89.48,0 -202.78,-59.54 -314.67,-156.65 -9.8,55.25 -42.77,88.37 -98.16,88.37 -97.33,0 -235.6,-102.33 -346.48,-246.71 h -0.14 c -23.96,32.19 -59.95,52.09 -107.27,55.26 -92.66,6.51 -207.71,-52.28 -309.72,-148.1 -7.77,16.18 -21.9,26.23 -42.11,27.54 -50.67,3.53 -120.5,-49.31 -161.06,-120.01 h 118.22 80.13 308.18 144.33 128.52 182.55 344.89 134.43 47.83 191.34 171.69 c 43.47,107.17 8.83,200.94 -81.57,213.03" /><path
         id="path52"
         style="fill:#f1efef;fill-opacity:1;fill-rule:nonzero;stroke:none"
         d="M 4438.89,113.23 C 4438.89,50.6914 3570.82,0 2500,0 1429.18,0 561.113,50.6914 561.113,113.23 c 0,62.54 868.067,113.239 1938.887,113.239 1070.82,0 1938.89,-50.699 1938.89,-113.239" /><path
         id="path54"
         style="fill:#3a66b9;fill-opacity:1;fill-rule:nonzero;stroke:none"
         d="M 488.563,2770 2768.27,2441.85 3074.22,2133.1 488.563,2770" /><path
         id="path56"
         style="fill:#9db5e3;fill-opacity:1;fill-rule:nonzero;stroke:none"
         d="m 3074.22,2133.1 -358.2,88.23 52.25,220.52 -462.29,66.54 462.29,-66.54 305.95,-308.75" /><path
         id="path58"
         style="fill:#3a66b9;fill-opacity:1;fill-rule:nonzero;stroke:none"
         d="M 488.563,2770 2768.27,2441.85 2662.48,1995.4 488.563,2770" /><path
         id="path60"
         style="fill:#3459b0;fill-opacity:1;fill-rule:nonzero;stroke:none"
         d="m 2662.48,1995.4 v 0 l -293.59,327.74 -440.47,104.68 377.56,80.57 462.29,-66.54 -52.25,-220.52 -53.54,-225.93 M 1410.43,2550.92 488.563,2770 l 902.847,-129.96 19.02,-89.12" /><path
         id="path62"
         style="fill:#3a66b9;fill-opacity:1;fill-rule:nonzero;stroke:none"
         d="m 2615.66,3286.86 132.38,-620.27 c 7.17,-33.6 -14.46,-66.95 -48.05,-74.11 l -1180.8,-251.99 c -33.59,-7.17 -66.93,14.45 -74.1,48.04 l -132.37,620.27 c -3.75,17.56 0.38,35.1 9.96,48.85 8.77,12.47 22.05,21.84 38.08,25.27 l 1180.79,251.98 c 16.04,3.42 31.98,0.28 45.08,-7.51 14.36,-8.65 25.28,-22.97 29.03,-40.53" /><path
         id="path64"
         style="fill:#2f479c;fill-opacity:1;fill-rule:nonzero;stroke:none"
         d="m 1506.22,2339.12 c -28.81,0 -54.89,20.17 -61.13,49.41 l -9.39,43.99 192.81,-68.7 -109.32,-23.33 c -4.34,-0.93 -8.69,-1.37 -12.97,-1.37 m 422.2,88.7 -517.99,123.1 -97.71,457.88 c -0.92,4.33 -1.37,8.65 -1.37,12.91 -0.02,13.06 4.11,25.58 11.33,35.94 8.77,12.47 22.05,21.84 38.08,25.27 l 1180.79,251.98 c 4.35,0.93 8.7,1.37 12.98,1.37 11.5,0 22.55,-3.2 32.1,-8.88 14.36,-8.65 25.28,-22.97 29.03,-40.53 l 132.38,-620.27 c 0.92,-4.33 1.37,-8.66 1.37,-12.93 0.02,-28.83 -20.16,-54.94 -49.42,-61.18 l -22.6,-4.83 -129.84,-27.71 -2.5,-0.53 -117.84,-25.15 -2.5,-0.53 -496.29,-105.91" /><path
         id="path66"
         style="fill:#3a66b9;fill-opacity:1;fill-rule:nonzero;stroke:none"
         d="m 2586.63,3327.39 -394.56,-484.32 c -75.36,-92.5 -204.94,-120.15 -311.49,-66.48 l -557.9,281.06 c 8.78,12.47 22.05,21.84 38.08,25.27 l 1180.79,251.98 c 16.04,3.42 31.98,0.28 45.08,-7.51" /><path
         id="path68"
         style="fill:#3a66b9;fill-opacity:1;fill-rule:nonzero;stroke:none"
         d="M 488.563,2770 2368.89,2323.14 2662.48,1995.4 488.563,2770" /><path
         id="path70"
         style="fill:#9db5e3;fill-opacity:1;fill-rule:nonzero;stroke:none"
         d="m 2662.48,1995.4 -114.93,40.95 -2.5,0.89 -117.84,41.99 -2.5,0.89 -496.19,176.8 -186.65,66.51 -2.4,0.85 -68.23,24.31 -42.73,15.23 -192.81,68.7 L 488.563,2770 2368.89,2323.14 2662.48,1995.4" /><path
         id="path72"
         style="fill:#3a66b9;fill-opacity:1;fill-rule:nonzero;stroke:none"
         d="m 1378.62,2208.03 -209.22,122.56 5.06,8.63 209.22,-122.56 -5.06,-8.63" /><path
         id="path74"
         style="fill:#3a66b9;fill-opacity:1;fill-rule:nonzero;stroke:none"
         d="m 1546.31,2109.79 -75.26,44.09 5.06,8.63 75.26,-44.09 -5.06,-8.63" /><path
         id="path76"
         style="fill:#3a66b9;fill-opacity:1;fill-rule:nonzero;stroke:none"
         d="M 488.563,2770 2368.89,2323.14 2003.4,1882.58 Z" /><path
         id="path78"
         style="fill:#3a66b9;fill-opacity:1;fill-rule:nonzero;stroke:none"
         d="m 3003.59,1723 c -2.44,0 -4.93,0.46 -7.35,1.42 L 2689.9,1845.7 c -10.27,4.06 -15.3,15.68 -11.23,25.96 4.06,10.26 15.63,15.32 25.96,11.23 l 306.34,-121.29 c 10.27,-4.06 15.3,-15.68 11.23,-25.95 -3.11,-7.86 -10.64,-12.65 -18.61,-12.65" /><path
         id="path80"
         style="fill:#3150aa;fill-opacity:1;fill-rule:nonzero;stroke:none"
         d="m 3003.59,1723 c -2.44,0 -4.93,0.46 -7.35,1.42 L 2689.9,1845.7 c -7.86,3.11 -12.65,10.65 -12.64,18.63 0,2.44 0.46,4.92 1.41,7.33 3.11,7.84 10.6,12.65 18.57,12.65 2.45,0 4.96,-0.46 7.39,-1.42 l 306.34,-121.29 c 7.86,-3.11 12.65,-10.65 12.64,-18.62 0,-2.44 -0.46,-4.93 -1.41,-7.33 -3.11,-7.86 -10.64,-12.65 -18.61,-12.65" /><path
         id="path82"
         style="fill:#3a66b9;fill-opacity:1;fill-rule:nonzero;stroke:none"
         d="m 2985.55,1898.66 c -2.44,0 -4.94,0.46 -7.36,1.41 l -164.52,65.14 c -10.27,4.06 -15.3,15.68 -11.23,25.96 4.05,10.26 15.64,15.32 25.96,11.23 l 164.52,-65.14 c 10.27,-4.06 15.3,-15.68 11.23,-25.96 -3.1,-7.85 -10.63,-12.64 -18.6,-12.64" /><path
         id="path84"
         style="fill:#87a6dc;fill-opacity:1;fill-rule:nonzero;stroke:none"
         d="m 2985.55,1898.66 c -2.44,0 -4.94,0.46 -7.36,1.41 l -164.52,65.14 c -7.86,3.11 -12.66,10.65 -12.64,18.63 0,2.44 0.46,4.92 1.41,7.33 3.1,7.84 10.6,12.65 18.57,12.65 2.46,0 4.96,-0.46 7.39,-1.42 l 164.52,-65.14 c 7.87,-3.11 12.66,-10.65 12.64,-18.62 0,-2.45 -0.46,-4.93 -1.41,-7.34 -3.1,-7.85 -10.63,-12.64 -18.6,-12.64" /><path
         id="path86"
         style="fill:#3a66b9;fill-opacity:1;fill-rule:nonzero;stroke:none"
         d="m 2641.61,1726.03 c -2.44,0 -4.93,0.46 -7.35,1.41 l -298.69,118.26 c -10.27,4.06 -15.3,15.69 -11.23,25.96 4.06,10.27 15.67,15.29 25.96,11.23 l 298.68,-118.26 c 10.28,-4.06 15.31,-15.68 11.23,-25.96 -3.1,-7.85 -10.63,-12.64 -18.6,-12.64" /><path
         id="path88"
         style="fill:#3150aa;fill-opacity:1;fill-rule:nonzero;stroke:none"
         d="m 2641.61,1726.03 c -2.44,0 -4.93,0.46 -7.35,1.41 l -86.71,34.33 -2.5,0.99 -117.84,46.66 -2.5,0.99 -89.14,35.29 c -7.86,3.11 -12.65,10.65 -12.64,18.63 0,2.44 0.46,4.92 1.41,7.33 3.1,7.85 10.62,12.64 18.59,12.64 2.45,0 4.95,-0.46 7.37,-1.41 l 298.68,-118.26 c 7.87,-3.11 12.66,-10.65 12.65,-18.63 -0.01,-2.44 -0.46,-4.92 -1.42,-7.33 -3.1,-7.85 -10.63,-12.64 -18.6,-12.64" /><path
         id="path90"
         style="fill:#f3646c;fill-opacity:1;fill-rule:nonzero;stroke:none"
         d="m 3723.02,2627.41 c 26.47,-51.74 50.79,-103.49 73.86,-156.54 22.9,-53.05 44.67,-106.66 63.39,-162.91 l 6.84,-21.33 c 1.15,-3.79 2.93,-10.02 3.86,-14.45 0.93,-4.62 1.94,-9.39 2.48,-13.61 2.64,-17.43 3.11,-33.16 3.41,-48.65 0.49,-30.84 -1.6,-60.25 -4.16,-89.49 -5.6,-58.42 -14.71,-115.24 -27.23,-172.24 l -54.83,6.09 c -0.71,56.33 -1.24,113.21 -3.19,168.69 -0.99,27.69 -2.58,55.32 -5.38,81.37 -1.42,12.94 -3.52,25.64 -5.95,36.25 -0.56,2.81 -1.31,4.95 -1.95,7.28 -0.79,2.48 -1.13,3.06 -2.22,6.02 l -7.54,18.91 c -20.89,50.6 -44.41,101.65 -68.38,152.44 l -72.6,152.34 99.59,49.83" /><path
         id="path92"
         style="fill:#f3646c;fill-opacity:1;fill-rule:nonzero;stroke:none"
         d="m 3791.43,1971.41 -25.6,-47.88 81.77,-22.81 c 0,0 15.57,38.52 -2.98,68.89 l -53.19,1.8" /><path
         id="path94"
         style="fill:#f3646c;fill-opacity:1;fill-rule:nonzero;stroke:none"
         d="m 3734.48,1854.5 75.18,-5.93 37.94,52.15 -81.77,22.81 -31.35,-69.03" /><path
         id="path96"
         style="fill:#242d38;fill-opacity:1;fill-rule:nonzero;stroke:none"
         d="m 3378.73,2972.97 c -1.17,-5.81 -5.21,-9.89 -9,-9.12 -3.8,0.78 -5.92,6.11 -4.74,11.92 1.18,5.8 5.22,9.89 9,9.11 3.8,-0.77 5.92,-6.11 4.74,-11.91" /><path
         id="path98"
         style="fill:#ef344d;fill-opacity:1;fill-rule:nonzero;stroke:none"
         d="m 3374.05,2962.97 c 0,0 -20.01,-30.81 -37.83,-44.02 8.32,-11.68 26.68,-10.84 26.68,-10.84 l 11.15,54.86" /><path
         id="path100"
         style="fill:#242d38;fill-opacity:1;fill-rule:nonzero;stroke:none"
         d="m 3406.54,3000.89 c -0.93,0 -1.86,0.38 -2.56,1.12 -10.41,11.28 -22.78,9.45 -23.33,9.38 -1.83,-0.34 -3.68,0.97 -3.99,2.86 -0.31,1.89 0.96,3.68 2.84,4 0.67,0.12 16.53,2.63 29.6,-11.51 1.3,-1.41 1.21,-3.61 -0.19,-4.92 l -2.37,-0.93" /><path
         id="path102"
         style="fill:#f3646c;fill-opacity:1;fill-rule:nonzero;stroke:none"
         d="m 3544.14,2891.3 c -10.53,-53.75 -21.04,-152.22 16.55,-188.08 0,0 -14.68,-54.52 -114.55,-54.52 -109.81,0 -52.48,54.51 -52.48,54.51 59.93,14.31 58.39,58.78 47.95,100.54 l 102.53,87.55" /><path
         id="path104"
         style="fill:#242d38;fill-opacity:1;fill-rule:nonzero;stroke:none"
         d="m 3575.77,2669.28 c 7.93,26.34 16.66,56.48 -1.4,65.92 -19.87,10.38 -128.63,20.98 -166.12,1.48 -37.5,-19.5 -26.86,-72.91 -26.86,-72.91 l 194.38,5.51" /><path
         id="path106"
         style="fill:#3a66b9;fill-opacity:1;fill-rule:nonzero;stroke:none"
         d="m 3797.25,189.41 -2.14,-0.219 c -1.49,-0.351 -2.54,-1.121 -3.22,-2.339 -1.57,-2.872 -0.64,-4.082 -0.34,-4.481 3.15,-4.121 18.17,-4.191 29.12,-2.332 -6.32,3.902 -16.74,9.371 -23.42,9.371 z m 9.18,-14 c -7.53,0 -14.81,1.149 -17.64,4.852 -1.19,1.558 -2.15,4.25 0.06,8.269 1.15,2.098 3,3.457 5.46,4.047 10.79,2.481 31.01,-11.379 31.87,-11.957 l 0.72,-1.762 -1.29,-1.367 c -3.77,-0.91 -11.6,-2.082 -19.18,-2.082" /><path
         id="path108"
         style="fill:#3a66b9;fill-opacity:1;fill-rule:nonzero;stroke:none"
         d="m 3810.36,207.219 -0.78,-0.047 c -2.27,-0.274 -2.46,-1.32 -2.55,-1.762 -0.91,-4.851 8.45,-17.012 16.01,-22.73 -0.86,6.191 -3.21,18.539 -8.68,23.011 -1.25,1.028 -2.56,1.528 -4,1.528 z m 14.84,-29.778 -0.83,0.207 c -7.6,4.122 -22.31,20.204 -20.76,28.411 0.29,1.48 1.38,4.05 5.54,4.57 2.64,0.301 5.19,-0.418 7.41,-2.238 8.54,-6.969 10.3,-28.172 10.37,-29.071 l -0.79,-1.59 -0.94,-0.289" /><path
         id="path110"
         style="fill:#3a66b9;fill-opacity:1;fill-rule:nonzero;stroke:none"
         d="m 3353.64,189.66 c -1.22,0 -2.35,-0.129 -3.36,-0.398 -1.61,-0.442 -2.72,-1.231 -3.4,-2.43 -1.25,-2.172 -0.8,-3.242 -0.35,-3.852 3.31,-4.589 21.87,-4.832 35.65,-2.929 -6.82,3.5 -19.95,9.609 -28.54,9.609 z m 11.64,-14.262 c -9.42,0 -18.51,1.301 -21.57,5.543 -1.07,1.481 -1.91,4.008 0.14,7.61 1.15,2.019 3.02,3.379 5.53,4.07 12.15,3.25 37.9,-11.312 38.98,-11.941 l 0.85,-1.782 -1.38,-1.429 c -4.69,-0.938 -13.76,-2.071 -22.55,-2.071" /><path
         id="path112"
         style="fill:#3a66b9;fill-opacity:1;fill-rule:nonzero;stroke:none"
         d="m 3369.57,207.219 -1.04,-0.047 c -3.14,-0.32 -3.33,-1.551 -3.4,-1.961 -0.8,-4.992 11.13,-17.481 20.17,-22.902 -0.93,5.773 -3.56,17.613 -9.69,22.652 -1.85,1.519 -3.83,2.258 -6.04,2.258 z m 17.92,-29.778 -0.71,0.149 c -8.86,3.969 -26.43,19.851 -25.09,28.172 0.32,1.957 1.7,4.379 6.48,4.867 3.56,0.34 6.8,-0.637 9.65,-2.981 9.35,-7.679 11.32,-27.457 11.4,-28.296 l -0.71,-1.59 -1.02,-0.321" /><path
         id="path114"
         style="fill:#f3646c;fill-opacity:1;fill-rule:nonzero;stroke:none"
         d="m 3468.27,179.18 h -73.47 l -7.31,170.121 h 73.47 l 7.31,-170.121" /><path
         id="path116"
         style="fill:#f3646c;fill-opacity:1;fill-rule:nonzero;stroke:none"
         d="m 3909.35,179.18 h -73.46 l -36.93,170.121 h 73.47 l 36.92,-170.121" /><path
         id="path118"
         style="fill:#242d38;fill-opacity:1;fill-rule:nonzero;stroke:none"
         d="m 3830.67,187.691 h 82.53 c 3.01,0 5.61,-2.089 6.26,-5.019 l 14.51,-65.313 c 1.51,-6.757 -3.81,-13.179 -10.76,-13.058 -28.81,0.5 -42.81,2.179 -79.1,2.179 -22.33,0 -68.34,-2.308 -99.17,-2.308 -30.15,0 -34.86,30.488 -22.23,33.25 56.6,12.379 77.92,29.457 96.04,45.738 3.26,2.942 7.53,4.531 11.92,4.531" /><path
         id="path120"
         style="fill:#242d38;fill-opacity:1;fill-rule:nonzero;stroke:none"
         d="m 3395.29,187.691 h 80.23 c 3.01,0 5.6,-2.089 6.26,-5.019 l 14.51,-65.313 c 1.5,-6.757 -3.64,-13.179 -10.58,-13.058 -28.93,0.488 -70.75,2.179 -107.13,2.179 -42.53,0 -79.26,-2.308 -129.14,-2.308 -30.15,0 -38.52,30.488 -25.9,33.25 57.47,12.57 104.39,13.918 154.06,44.527 5.39,3.332 11.36,5.742 17.69,5.742" /><path
         id="path122"
         style="fill:#f3646c;fill-opacity:1;fill-rule:nonzero;stroke:none"
         d="m 3359.81,2574.18 c -62.29,4.86 -122.16,12.93 -183.07,24.34 -30.31,5.82 -60.68,12.32 -91.04,20.5 -30.39,8.15 -60.85,17.38 -91.62,30.23 -7.69,3.17 -15.46,6.71 -23.22,10.4 -9.74,4.81 -17.82,9.81 -24.95,14.55 -14.45,9.55 -26.81,19.38 -39.11,29.19 -24.47,19.59 -47.23,39.96 -69.69,60.53 -44.72,41.36 -87.15,84.17 -128.01,129.21 l 36.79,41.1 145.09,-104.27 c 23.95,-17.27 48.12,-34.13 71.9,-50.04 11.85,-7.87 23.96,-15.34 34.98,-21.56 5.59,-3.17 10.56,-5.54 14.4,-7.06 5.94,-2.32 11.97,-4.62 18.29,-6.74 50.79,-16.94 108.22,-27.82 165.26,-37.01 57.1,-9.04 116.1,-16.48 173.1,-22.39 l -9.1,-110.98" /><path
         id="path124"
         style="fill:#3a66b9;fill-opacity:1;fill-rule:nonzero;stroke:none"
         d="m 3692.23,2686.61 c 68.85,-15.78 138.46,-217.11 138.46,-217.11 l -141.73,-101.66 c 0,0 -39.6,93.77 -78.54,175.77 -40.81,85.91 11.41,159.14 81.81,143" /><path
         id="path126"
         style="fill:#2f479c;fill-opacity:1;fill-rule:nonzero;stroke:none"
         d="m 3688.96,2367.84 c 0,0 -10.97,25.99 -27.04,62.55 0,0.02 0,0.03 0,0.05 12.23,-27.81 21.51,-49.51 25.28,-58.33 v 0 0 c -0.69,51.42 -7.66,111.41 -18.38,156.08 5.05,52.11 12.56,105.43 23.41,158.42 v 0 0 c 0,0 -2.38,0.47 -6.65,1.27 2.19,-0.34 4.41,-0.76 6.65,-1.27 68.85,-15.78 138.46,-217.11 138.46,-217.11 l -25.41,-18.23 -90.91,-65.2 -25.41,-18.23" /><path
         id="path128"
         style="fill:#3a66b9;fill-opacity:1;fill-rule:nonzero;stroke:none"
         d="m 3652.5,2576.62 -28.1,-62.9 c 29.1,-62.81 55.7,-125 62.8,-141.61 -1,74.31 -15.1,166.5 -34.7,204.51" /><path
         id="path130"
         style="fill:#30346b;fill-opacity:1;fill-rule:nonzero;stroke:none"
         d="m 3687.2,2372.11 c -3.77,8.82 -13.05,30.52 -25.28,58.33 1.46,31.8 3.68,64.54 6.9,97.75 10.72,-44.67 17.69,-104.66 18.38,-156.08" /><path
         id="path132"
         style="fill:#3a66b9;fill-opacity:1;fill-rule:nonzero;stroke:none"
         d="m 3280.66,2682.82 c 0,0 -78.19,-88.32 -4.34,-634.97 118.39,0 335.32,0 392.93,0 2.7,60.31 -35.2,354.56 22.98,638.76 0,0 -67.35,13.51 -131.54,16.61 -50.2,2.42 -122.89,4.02 -167.03,-0.01 -58.19,-5.31 -113,-20.39 -113,-20.39" /><path
         id="path134"
         style="fill:#2f479c;fill-opacity:1;fill-rule:nonzero;stroke:none"
         d="m 3669.25,2047.85 c -57.61,0 -274.54,0 -392.93,0 -23.69,175.36 -31.74,303.56 -31.73,396.81 0,21.02 0.41,40.25 1.14,57.86 22.17,6.9 48.02,16.63 73.8,30.09 41.83,6.06 80.92,16.24 100.16,33.29 23.97,21.25 37.84,48.95 37.82,73.91 -0.04,30.94 -21.4,57.66 -71.35,62.66 2.49,0.27 4.99,0.52 7.5,0.74 19.46,1.78 44.46,2.46 70.64,2.46 33.21,0 68.32,-1.1 96.39,-2.45 64.19,-3.1 131.54,-16.61 131.54,-16.61 -10.85,-52.99 -18.36,-106.31 -23.41,-158.42 -3.22,-33.21 -5.44,-65.95 -6.9,-97.75 v 0 c 0,-0.02 0,-0.03 0,-0.05 -1.67,-36.4 -2.33,-71.61 -2.33,-105.01 0.01,-128.52 9.81,-230.29 9.8,-270.31 0,-2.69 -0.05,-5.1 -0.14,-7.22 m -423.14,463.17 c 0.25,5.01 0.52,9.9 0.81,14.64 0.02,0 0.02,0 0.03,0.01 -0.3,-4.75 -0.58,-9.63 -0.84,-14.65" /><path
         id="path136"
         style="fill:#3a66b9;fill-opacity:1;fill-rule:nonzero;stroke:none"
         d="m 3251.6,2576.62 c -2.6,-20.71 -4.6,-45.2 -5.9,-74.1 32.5,10.1 72.9,26.29 109.4,51.4 l -103.5,22.7" /><path
         id="path138"
         style="fill:#30346b;fill-opacity:1;fill-rule:nonzero;stroke:none"
         d="m 3245.7,2502.52 c 0.37,8.05 0.78,15.76 1.25,23.15 22.87,1.27 48.19,3.4 72.58,6.94 -25.78,-13.46 -51.63,-23.19 -73.8,-30.09 -0.01,0 -0.02,0 -0.03,0" /><path
         id="path140"
         style="fill:#3a66b9;fill-opacity:1;fill-rule:nonzero;stroke:none"
         d="m 3419.69,2565.9 c -52.57,-46.58 -253.4,-41.92 -253.4,-41.92 l -6.62,194.14 c 0,0 113.85,-16.69 204.7,-14.85 112.21,2.28 113,-86.25 55.32,-137.37" /><path
         id="path142"
         style="fill:#2f479c;fill-opacity:1;fill-rule:nonzero;stroke:none"
         d="m 3181.41,2523.85 c -9.54,0 -15.12,0.13 -15.12,0.13 l -6.62,194.14 c 0,0 102.25,-14.99 190.27,-14.99 4.86,0 9.67,0.05 14.43,0.14 1.41,0.03 2.81,0.05 4.2,0.05 62.55,0 88.9,-29.16 88.94,-63.51 0.02,-24.96 -13.85,-52.66 -37.82,-73.91 -19.24,-17.05 -58.33,-27.23 -100.16,-33.29 -24.39,-3.54 -49.71,-5.67 -72.58,-6.94 v 0 c -0.01,-0.01 -0.01,-0.01 -0.03,-0.01 -27.22,-1.51 -50.97,-1.81 -65.51,-1.81" /><path
         id="path144"
         style="fill:#f3646c;fill-opacity:1;fill-rule:nonzero;stroke:none"
         d="m 2747.69,2933.23 -50.42,58.88 -53.83,-59.63 c 0,0 33.14,-55.75 85.91,-46.96 l 18.34,47.71" /><path
         id="path146"
         style="fill:#f3646c;fill-opacity:1;fill-rule:nonzero;stroke:none"
         d="m 2626.06,3060.77 -19.39,-76.82 36.77,-51.47 53.83,59.63 -71.21,68.66" /><path
         id="path148"
         style="fill:#e04c58;fill-opacity:1;fill-rule:nonzero;stroke:none"
         d="m 3387.51,349.262 3.76,-87.703 h 73.49 l -3.75,87.703 h -73.5" /><path
         id="path150"
         style="fill:#e04c58;fill-opacity:1;fill-rule:nonzero;stroke:none"
         d="m 3872.46,349.262 h -73.5 l 19.08,-87.703 h 73.48 l -19.06,87.703" /><path
         id="path152"
         style="fill:#242d38;fill-opacity:1;fill-rule:nonzero;stroke:none"
         d="m 3431.74,3045.99 c -65.91,30.46 -86.74,163.38 102.84,130.46 0,0 -28.56,-31.67 29.47,-51.67 58.03,-20 9.45,-144.31 -132.31,-78.79" /><path
         id="path154"
         style="fill:#f3646c;fill-opacity:1;fill-rule:nonzero;stroke:none"
         d="m 3574.91,2945.91 c -18.87,-70.42 -26.35,-112.6 -69.8,-141.88 -65.37,-44.05 -146.76,6.51 -149.31,81.15 -2.28,67.18 28.97,171.07 104.53,185.25 74.46,13.99 133.46,-54.09 114.58,-124.52" /><path
         id="path156"
         style="fill:#242d38;fill-opacity:1;fill-rule:nonzero;stroke:none"
         d="m 3532,3140.66 c 44.87,-25.09 105.69,-40.05 99.57,-75.62 -7.48,-43.48 36.77,-16.28 26.47,-81.06 -6.73,-42.3 -84.76,-170.48 -139.68,-164.22 -82.56,9.41 -72.09,135.52 -72.36,201.79 -0.17,39.07 -2,168.33 86,119.11" /><path
         id="path158"
         style="fill:#242d38;fill-opacity:1;fill-rule:nonzero;stroke:none"
         d="m 3436.1,3084.5 c -20,-4.72 -46.5,-119.99 30.97,-130.55 89.16,-12.15 -30.97,130.55 -30.97,130.55" /><path
         id="path160"
         style="fill:#242d38;fill-opacity:1;fill-rule:nonzero;stroke:none"
         d="m 3438.13,3043.59 c -24.52,-2.16 -79.8,27.34 -73.2,71.7 0,0 35.24,-51.91 73.2,-71.7" /><path
         id="path162"
         style="fill:#f3646c;fill-opacity:1;fill-rule:nonzero;stroke:none"
         d="m 3474.46,2944.74 c -7.67,-17.49 -22.18,-31.25 -36.24,-38.57 -21.13,-11 -33.01,5.1 -28.23,26.24 4.31,19.03 20.49,47.69 42.23,50.03 21.41,2.31 31.01,-17.7 22.24,-37.7" /><path
         id="path164"
         style="fill:#242d38;fill-opacity:1;fill-rule:nonzero;stroke:none"
         d="m 3584.46,3026.13 c 14.85,7.55 48.64,24.67 57.85,73.25 0,0 33,-92.17 -57.85,-73.25" /><path
         id="path166"
         style="fill:#242d38;fill-opacity:1;fill-rule:nonzero;stroke:none"
         d="m 3667.93,3027.1 c -7.4,4.34 -24.23,14.23 -47.85,4.71 0,0 30.78,39.95 47.85,-4.71" /><path
         id="path168"
         style="fill:#3a66b9;fill-opacity:1;fill-rule:nonzero;stroke:none"
         d="m 3415.7,2047.85 c 0,0 83.37,-561.42 129.14,-771.76 50.12,-230.32 238.95,-997.539 238.95,-997.539 h 134.56 c 0,0 -124.52,748.629 -153.12,976.669 -31.04,247.51 -95.98,792.63 -95.98,792.63 H 3415.7" /><path
         id="path170"
         style="fill:#87a6dc;fill-opacity:1;fill-rule:nonzero;stroke:none"
         d="m 3910.98,323.031 -139.29,4.77 c -42.46,173.051 -184.4,753.229 -226.85,948.289 -0.61,2.8 -1.22,5.66 -1.84,8.58 3.7,59.03 7.26,135.81 7.25,213.62 -0.01,107.77 -6.85,217.49 -29.6,284.74 7.51,149.09 13.95,264.82 13.95,264.82 v 0 0 h -118.9 v 0 h 253.55 c 0,0 64.94,-545.12 95.98,-792.63 24.4,-194.53 118.59,-767.861 145.75,-932.189" /><path
         id="path172"
         style="fill:#3a66b9;fill-opacity:1;fill-rule:nonzero;stroke:none"
         d="m 3762.3,328.121 13.9,-51.672 h 151.38 l -2.78,46.11 -162.5,5.562" /><path
         id="path174"
         style="fill:#375fb5;fill-opacity:1;fill-rule:nonzero;stroke:none"
         d="M 3927.58,276.449 H 3776.2 l -13.9,51.672 162.5,-5.562 2.78,-46.11" /><path
         id="path176"
         style="fill:#3a66b9;fill-opacity:1;fill-rule:nonzero;stroke:none"
         d="m 3468.39,1847.82 c 96.4,-18.9 86.2,-378.4 74.6,-563.31 -27.79,130.71 -68.5,382.21 -96.3,560.71 6.41,3.19 13.6,4.19 21.7,2.6" /><path
         id="path178"
         style="fill:#7098d6;fill-opacity:1;fill-rule:nonzero;stroke:none"
         d="m 3542.99,1284.51 c -10.77,50.63 -23.47,119.38 -36.61,194.99 4.28,100.57 9.49,208.79 14.27,303.53 22.75,-67.25 29.59,-176.97 29.6,-284.74 0.01,-77.81 -3.55,-154.59 -7.25,-213.62 -0.01,-0.05 -0.01,-0.1 -0.01,-0.16" /><path
         id="path180"
         style="fill:#3a66b9;fill-opacity:1;fill-rule:nonzero;stroke:none"
         d="m 3276.32,2047.85 c 0,0 -10.12,-549.26 -2.13,-773.3 8.31,-233.03 89.7,-995.999 89.7,-995.999 h 124.45 c 0,0 4.57,749.359 10.11,978.219 6.03,249.48 36.15,791.08 36.15,791.08 h -258.28" /><path
         id="path182"
         style="fill:#87a6dc;fill-opacity:1;fill-rule:nonzero;stroke:none"
         d="m 3488.62,323.031 -129.89,4.438 c -8.74,83.371 -27.19,261.863 -44.71,446.23 -18.63,196.223 -36.2,399.091 -39.83,500.851 -2.26,63.34 -3.07,152.67 -3.07,248.24 -0.01,242.46 5.2,525.06 5.2,525.06 h 258.28 c 0,0 -6.44,-115.73 -13.95,-264.82 -4.78,-94.74 -9.99,-202.96 -14.27,-303.53 v 0 c -3.52,-82.84 -6.41,-160.48 -7.89,-221.14 -0.02,-0.54 -0.03,-1.06 -0.04,-1.59 -3.85,-159.06 -7.23,-569.551 -8.94,-805.141 0,-0.828 -0.01,-1.668 -0.02,-2.5 -0.29,-40.457 -0.53,-75.649 -0.72,-103.41 0,-0.84 -0.01,-1.66 -0.01,-2.5 -0.05,-7.27 -0.1,-14.02 -0.14,-20.188 m -183.3,1199.209 c 0,-95.5 0.81,-184.79 3.05,-247.74 6.54,-183.31 58.27,-694.27 80.2,-905.441 l 1.24,-1.118 0.13,0.008 1.11,1.371 v 0 c -21.93,211.149 -73.64,722.04 -80.18,905.28 -2.24,62.93 -3.05,152.19 -3.05,247.67 0,188.34 3.11,400.89 4.45,483.3 v 0 0 l -1.23,1.27 h -0.01 l -1.25,-1.23 c -1.35,-82.42 -4.46,-294.99 -4.46,-483.37" /><path
         id="path184"
         style="fill:#3a66b9;fill-opacity:1;fill-rule:nonzero;stroke:none"
         d="m 3389.81,367.941 -1.24,1.118 c -21.93,211.171 -73.66,722.131 -80.2,905.441 -6.67,187.11 -0.62,606.91 1.41,731.11 l 1.25,1.23 h 0.01 l 1.23,-1.27 c -2.02,-124.19 -8.07,-543.93 -1.4,-730.97 6.54,-183.24 58.25,-694.131 80.18,-905.28 l -1.11,-1.371 -0.13,-0.008" /><path
         id="path186"
         style="fill:#7098d6;fill-opacity:1;fill-rule:nonzero;stroke:none"
         d="m 3389.81,367.941 -1.24,1.118 c -21.93,211.171 -73.66,722.131 -80.2,905.441 -2.24,62.95 -3.05,152.24 -3.05,247.74 0,188.38 3.11,400.95 4.46,483.37 l 1.25,1.23 h 0.01 l 1.23,-1.27 c -1.34,-82.41 -4.45,-294.96 -4.45,-483.3 0,-95.48 0.81,-184.74 3.05,-247.67 6.54,-183.24 58.25,-694.131 80.18,-905.28 l -1.11,-1.371 -0.13,-0.008" /><path
         id="path188"
         style="fill:#3a66b9;fill-opacity:1;fill-rule:nonzero;stroke:none"
         d="m 3339.94,328.121 7.02,-51.672 h 151.39 l 4.09,46.11 -162.5,5.562" /><path
         id="path190"
         style="fill:#375fb5;fill-opacity:1;fill-rule:nonzero;stroke:none"
         d="m 3498.35,276.449 h -151.39 l -7.02,51.672 162.5,-5.562 -4.09,-46.11" /></g></g></svg>